STARTFONT 2.1
COMMENT
COMMENT Converted from OpenType font "ipag.ttf" by "..\otf2bdf.exe 3.0".
COMMENT
FONT -FreeType-IPAGothic-Medium-R-Normal--20-200-72-72-P-174-ISO10646-1
SIZE 20 72 72
FONTBOUNDINGBOX 20 21 0 -3
STARTPROPERTIES 19
FOUNDRY "FreeType"
FAMILY_NAME "IPAGothic"
WEIGHT_NAME "Medium"
SLANT "R"
SETWIDTH_NAME "Normal"
ADD_STYLE_NAME ""
PIXEL_SIZE 20
POINT_SIZE 200
RESOLUTION_X 72
RESOLUTION_Y 72
SPACING "P"
AVERAGE_WIDTH 174
CHARSET_REGISTRY "ISO10646"
CHARSET_ENCODING "1"
FONT_ASCENT 17
FONT_DESCENT 2
COPYRIGHT "Copyright(c) Information-technology Promotion Agency, Japan (IPA), 2003-2011. You must accept "http://ipafont.ipa.go.jp/ipa_font_license_v1.html" to use this product."
_OTF_FONTFILE "ipag.ttf"
_OTF_PSNAME "IPAGothic"
ENDPROPERTIES
CHARS 11158
STARTCHAR 0020
ENCODING 32
SWIDTH 500 0
DWIDTH 10 0
BBX 0 0 0 0
BITMAP
ENDCHAR
STARTCHAR 0021
ENCODING 33
SWIDTH 500 0
DWIDTH 10 0
BBX 2 16 4 0
BITMAP
C0
C0
C0
C0
C0
C0
C0
C0
C0
C0
C0
C0
00
00
C0
C0
ENDCHAR
STARTCHAR 0022
ENCODING 34
SWIDTH 500 0
DWIDTH 10 0
BBX 6 6 2 11
BITMAP
FC
FC
6C
6C
48
90
ENDCHAR
STARTCHAR 0023
ENCODING 35
SWIDTH 500 0
DWIDTH 10 0
BBX 8 17 1 -1
BITMAP
13
13
12
12
7F
32
22
22
22
26
26
26
FF
24
64
64
64
ENDCHAR
STARTCHAR 0024
ENCODING 36
SWIDTH 500 0
DWIDTH 10 0
BBX 8 18 1 -1
BITMAP
10
38
7C
D6
D6
D0
D0
70
38
1C
16
13
93
93
D7
7E
10
10
ENDCHAR
STARTCHAR 0025
ENCODING 37
SWIDTH 500 0
DWIDTH 10 0
BBX 8 18 1 -1
BITMAP
61
91
92
92
96
94
9C
98
68
16
19
39
29
69
49
C9
89
86
ENDCHAR
STARTCHAR 0026
ENCODING 38
SWIDTH 500 0
DWIDTH 10 0
BBX 8 14 1 1
BITMAP
3C
66
66
66
6C
38
30
79
C9
CF
C7
C6
67
3D
ENDCHAR
STARTCHAR 0027
ENCODING 39
SWIDTH 500 0
DWIDTH 10 0
BBX 3 6 2 11
BITMAP
E0
E0
60
60
40
80
ENDCHAR
STARTCHAR 0028
ENCODING 40
SWIDTH 500 0
DWIDTH 10 0
BBX 5 18 3 -1
BITMAP
18
10
30
60
60
C0
C0
C0
C0
C0
C0
C0
C0
60
60
30
10
18
ENDCHAR
STARTCHAR 0029
ENCODING 41
SWIDTH 500 0
DWIDTH 10 0
BBX 5 18 2 -1
BITMAP
C0
40
60
30
30
18
18
18
18
18
18
18
18
30
30
60
40
C0
ENDCHAR
STARTCHAR 002A
ENCODING 42
SWIDTH 500 0
DWIDTH 10 0
BBX 8 10 1 2
BITMAP
18
18
DB
F7
18
3C
FF
DB
18
18
ENDCHAR
STARTCHAR 002B
ENCODING 43
SWIDTH 500 0
DWIDTH 10 0
BBX 8 12 1 2
BITMAP
10
10
10
10
10
10
FF
10
10
10
10
10
ENDCHAR
STARTCHAR 002C
ENCODING 44
SWIDTH 500 0
DWIDTH 10 0
BBX 3 5 1 -2
BITMAP
60
60
60
40
C0
ENDCHAR
STARTCHAR 002D
ENCODING 45
SWIDTH 500 0
DWIDTH 10 0
BBX 8 1 1 7
BITMAP
FF
ENDCHAR
STARTCHAR 002E
ENCODING 46
SWIDTH 500 0
DWIDTH 10 0
BBX 3 3 2 0
BITMAP
E0
E0
E0
ENDCHAR
STARTCHAR 002F
ENCODING 47
SWIDTH 500 0
DWIDTH 10 0
BBX 8 17 1 -1
BITMAP
01
01
02
02
04
04
08
08
10
10
10
20
20
40
40
80
80
ENDCHAR
STARTCHAR 0030
ENCODING 48
SWIDTH 500 0
DWIDTH 10 0
BBX 8 14 1 1
BITMAP
3C
66
62
C7
C7
CB
CB
D3
D3
E3
E3
46
66
3C
ENDCHAR
STARTCHAR 0031
ENCODING 49
SWIDTH 500 0
DWIDTH 10 0
BBX 4 14 2 1
BITMAP
30
F0
D0
10
10
10
10
10
10
10
10
10
10
10
ENDCHAR
STARTCHAR 0032
ENCODING 50
SWIDTH 500 0
DWIDTH 10 0
BBX 8 14 1 1
BITMAP
3C
62
C3
C3
03
07
0E
1C
38
30
60
C0
C0
FF
ENDCHAR
STARTCHAR 0033
ENCODING 51
SWIDTH 500 0
DWIDTH 10 0
BBX 9 14 0 1
BITMAP
3C00
6600
4300
0300
0300
0600
1C00
0300
0180
0180
C180
4180
6300
3E00
ENDCHAR
STARTCHAR 0034
ENCODING 52
SWIDTH 500 0
DWIDTH 10 0
BBX 9 14 1 1
BITMAP
0600
0600
0E00
0A00
1200
3200
2200
6200
C200
FF80
0200
0200
0200
0200
ENDCHAR
STARTCHAR 0035
ENCODING 53
SWIDTH 500 0
DWIDTH 10 0
BBX 8 14 1 1
BITMAP
FE
C0
C0
C0
C0
FC
C6
C3
03
03
03
83
C6
7C
ENDCHAR
STARTCHAR 0036
ENCODING 54
SWIDTH 500 0
DWIDTH 10 0
BBX 8 14 1 1
BITMAP
1C
62
43
40
C0
DC
A6
C3
C3
C3
C3
43
66
3C
ENDCHAR
STARTCHAR 0037
ENCODING 55
SWIDTH 500 0
DWIDTH 10 0
BBX 8 14 1 1
BITMAP
FF
03
02
06
06
04
0C
0C
08
18
18
10
30
30
ENDCHAR
STARTCHAR 0038
ENCODING 56
SWIDTH 500 0
DWIDTH 10 0
BBX 8 14 1 1
BITMAP
3C
66
C3
C3
C3
66
3C
66
C3
C3
C3
C3
66
3C
ENDCHAR
STARTCHAR 0039
ENCODING 57
SWIDTH 500 0
DWIDTH 10 0
BBX 8 14 1 1
BITMAP
3C
66
C2
C3
C3
C3
C3
65
39
03
03
C2
46
3C
ENDCHAR
STARTCHAR 003A
ENCODING 58
SWIDTH 500 0
DWIDTH 10 0
BBX 2 10 4 1
BITMAP
C0
C0
00
00
00
00
00
00
C0
C0
ENDCHAR
STARTCHAR 003B
ENCODING 59
SWIDTH 500 0
DWIDTH 10 0
BBX 3 13 3 -2
BITMAP
60
60
00
00
00
00
00
00
60
60
40
C0
80
ENDCHAR
STARTCHAR 003C
ENCODING 60
SWIDTH 500 0
DWIDTH 10 0
BBX 8 15 1 0
BITMAP
01
03
06
08
10
20
40
80
60
30
18
0C
06
03
01
ENDCHAR
STARTCHAR 003D
ENCODING 61
SWIDTH 500 0
DWIDTH 10 0
BBX 8 5 1 5
BITMAP
FF
00
00
00
FF
ENDCHAR
STARTCHAR 003E
ENCODING 62
SWIDTH 500 0
DWIDTH 10 0
BBX 8 15 1 0
BITMAP
80
C0
60
10
08
04
02
01
06
0C
18
30
60
C0
80
ENDCHAR
STARTCHAR 003F
ENCODING 63
SWIDTH 500 0
DWIDTH 10 0
BBX 8 16 1 0
BITMAP
3C
66
43
C3
C3
07
06
0C
08
18
18
18
00
00
18
18
ENDCHAR
STARTCHAR 0040
ENCODING 64
SWIDTH 500 0
DWIDTH 10 0
BBX 10 15 0 0
BITMAP
1E00
2100
4080
4EC0
8A40
9240
9240
9240
9240
9680
8F80
4000
4080
2100
1E00
ENDCHAR
STARTCHAR 0041
ENCODING 65
SWIDTH 500 0
DWIDTH 10 0
BBX 8 14 1 1
BITMAP
18
18
3C
3C
24
24
66
66
7E
42
C3
C3
81
81
ENDCHAR
STARTCHAR 0042
ENCODING 66
SWIDTH 500 0
DWIDTH 10 0
BBX 7 14 1 1
BITMAP
F8
8C
86
86
86
8C
F8
8C
86
86
86
86
8C
F8
ENDCHAR
STARTCHAR 0043
ENCODING 67
SWIDTH 500 0
DWIDTH 10 0
BBX 8 14 1 1
BITMAP
3C
66
63
C3
C0
C0
C0
C0
C0
C3
C3
63
66
3C
ENDCHAR
STARTCHAR 0044
ENCODING 68
SWIDTH 500 0
DWIDTH 10 0
BBX 8 14 1 1
BITMAP
F8
4E
46
43
43
43
43
43
43
43
43
46
4C
F8
ENDCHAR
STARTCHAR 0045
ENCODING 69
SWIDTH 500 0
DWIDTH 10 0
BBX 8 14 1 1
BITMAP
FE
80
80
80
80
80
FE
80
80
80
80
80
80
FF
ENDCHAR
STARTCHAR 0046
ENCODING 70
SWIDTH 500 0
DWIDTH 10 0
BBX 7 14 1 1
BITMAP
FE
80
80
80
80
80
FE
80
80
80
80
80
80
80
ENDCHAR
STARTCHAR 0047
ENCODING 71
SWIDTH 500 0
DWIDTH 10 0
BBX 8 14 1 1
BITMAP
3C
62
63
C3
C0
C0
C0
C7
C1
C1
C3
63
67
3D
ENDCHAR
STARTCHAR 0048
ENCODING 72
SWIDTH 500 0
DWIDTH 10 0
BBX 8 14 1 1
BITMAP
81
81
81
81
81
81
FF
81
81
81
81
81
81
81
ENDCHAR
STARTCHAR 0049
ENCODING 73
SWIDTH 500 0
DWIDTH 10 0
BBX 6 14 2 1
BITMAP
FC
20
20
20
20
20
20
20
20
20
20
20
20
FC
ENDCHAR
STARTCHAR 004A
ENCODING 74
SWIDTH 500 0
DWIDTH 10 0
BBX 6 14 2 1
BITMAP
04
04
04
04
04
04
04
04
04
04
84
84
CC
78
ENDCHAR
STARTCHAR 004B
ENCODING 75
SWIDTH 500 0
DWIDTH 10 0
BBX 7 14 1 1
BITMAP
86
8C
88
98
B0
B0
F0
D8
98
88
8C
84
86
86
ENDCHAR
STARTCHAR 004C
ENCODING 76
SWIDTH 500 0
DWIDTH 10 0
BBX 8 14 1 1
BITMAP
80
80
80
80
80
80
80
80
80
80
80
80
80
FF
ENDCHAR
STARTCHAR 004D
ENCODING 77
SWIDTH 500 0
DWIDTH 10 0
BBX 8 14 1 1
BITMAP
C3
C3
C3
C3
E7
E7
A5
A5
A5
BD
BD
99
99
99
ENDCHAR
STARTCHAR 004E
ENCODING 78
SWIDTH 500 0
DWIDTH 10 0
BBX 8 14 1 1
BITMAP
C1
C1
E1
E1
B1
B1
99
99
8D
8D
87
87
83
83
ENDCHAR
STARTCHAR 004F
ENCODING 79
SWIDTH 500 0
DWIDTH 10 0
BBX 8 14 1 1
BITMAP
3C
66
46
C3
C3
C3
C3
C3
C3
C3
C3
62
66
3C
ENDCHAR
STARTCHAR 0050
ENCODING 80
SWIDTH 500 0
DWIDTH 10 0
BBX 7 14 1 1
BITMAP
F8
8C
86
86
86
8C
F8
80
80
80
80
80
80
80
ENDCHAR
STARTCHAR 0051
ENCODING 81
SWIDTH 500 0
DWIDTH 10 0
BBX 8 15 1 -1
BITMAP
3C
66
46
C3
C3
C3
C3
C3
C3
C3
DB
6E
66
3C
06
ENDCHAR
STARTCHAR 0052
ENCODING 82
SWIDTH 500 0
DWIDTH 10 0
BBX 7 14 1 1
BITMAP
F8
8C
86
86
86
8C
F8
98
98
8C
8C
84
86
86
ENDCHAR
STARTCHAR 0053
ENCODING 83
SWIDTH 500 0
DWIDTH 10 0
BBX 8 14 1 1
BITMAP
3C
66
C2
C3
E0
70
38
1C
06
03
C3
C3
47
3E
ENDCHAR
STARTCHAR 0054
ENCODING 84
SWIDTH 500 0
DWIDTH 10 0
BBX 8 14 1 1
BITMAP
FF
10
10
10
10
10
10
10
10
10
10
10
10
10
ENDCHAR
STARTCHAR 0055
ENCODING 85
SWIDTH 500 0
DWIDTH 10 0
BBX 8 14 1 1
BITMAP
81
81
81
81
81
81
81
81
81
81
81
81
42
3C
ENDCHAR
STARTCHAR 0056
ENCODING 86
SWIDTH 500 0
DWIDTH 10 0
BBX 8 14 1 1
BITMAP
C3
C3
C3
43
42
66
66
66
24
24
3C
3C
18
18
ENDCHAR
STARTCHAR 0057
ENCODING 87
SWIDTH 500 0
DWIDTH 10 0
BBX 8 14 1 1
BITMAP
99
99
99
99
99
99
FF
E7
E7
66
66
66
66
66
ENDCHAR
STARTCHAR 0058
ENCODING 88
SWIDTH 500 0
DWIDTH 10 0
BBX 8 14 1 1
BITMAP
C3
66
66
24
3C
3C
18
18
3C
3C
66
66
C3
C3
ENDCHAR
STARTCHAR 0059
ENCODING 89
SWIDTH 500 0
DWIDTH 10 0
BBX 7 14 1 1
BITMAP
82
C6
C6
44
6C
28
28
10
10
10
10
10
10
10
ENDCHAR
STARTCHAR 005A
ENCODING 90
SWIDTH 500 0
DWIDTH 10 0
BBX 8 14 1 1
BITMAP
7F
03
06
06
0C
0C
18
18
38
30
70
60
E0
FF
ENDCHAR
STARTCHAR 005B
ENCODING 91
SWIDTH 500 0
DWIDTH 10 0
BBX 6 18 2 -1
BITMAP
FC
80
80
80
80
80
80
80
80
80
80
80
80
80
80
80
80
FC
ENDCHAR
STARTCHAR 005C
ENCODING 92
SWIDTH 500 0
DWIDTH 10 0
BBX 8 14 1 1
BITMAP
83
C2
46
6C
28
18
FF
10
10
FF
10
10
10
10
ENDCHAR
STARTCHAR 005D
ENCODING 93
SWIDTH 500 0
DWIDTH 10 0
BBX 6 18 2 -1
BITMAP
FC
04
04
04
04
04
04
04
04
04
04
04
04
04
04
04
04
FC
ENDCHAR
STARTCHAR 005E
ENCODING 94
SWIDTH 500 0
DWIDTH 10 0
BBX 6 2 2 13
BITMAP
78
CC
ENDCHAR
STARTCHAR 005F
ENCODING 95
SWIDTH 500 0
DWIDTH 10 0
BBX 0 0 0 -2
BITMAP
ENDCHAR
STARTCHAR 0060
ENCODING 96
SWIDTH 500 0
DWIDTH 10 0
BBX 4 2 3 13
BITMAP
C0
30
ENDCHAR
STARTCHAR 0061
ENCODING 97
SWIDTH 500 0
DWIDTH 10 0
BBX 8 9 1 0
BITMAP
3C
42
02
3E
72
C2
C2
C6
7B
ENDCHAR
STARTCHAR 0062
ENCODING 98
SWIDTH 500 0
DWIDTH 10 0
BBX 7 14 1 1
BITMAP
80
80
80
80
80
B8
C4
86
86
86
86
86
CC
B8
ENDCHAR
STARTCHAR 0063
ENCODING 99
SWIDTH 500 0
DWIDTH 10 0
BBX 8 9 1 1
BITMAP
3C
62
C0
C0
C0
C0
C3
66
3C
ENDCHAR
STARTCHAR 0064
ENCODING 100
SWIDTH 500 0
DWIDTH 10 0
BBX 7 14 2 1
BITMAP
02
02
02
02
02
3A
66
C2
C2
C2
C2
C2
66
7A
ENDCHAR
STARTCHAR 0065
ENCODING 101
SWIDTH 500 0
DWIDTH 10 0
BBX 8 9 1 1
BITMAP
3C
62
C3
FF
C0
C0
C3
66
3C
ENDCHAR
STARTCHAR 0066
ENCODING 102
SWIDTH 500 0
DWIDTH 10 0
BBX 6 14 2 1
BITMAP
3C
20
20
20
FC
20
20
20
20
20
20
20
20
20
ENDCHAR
STARTCHAR 0067
ENCODING 103
SWIDTH 500 0
DWIDTH 10 0
BBX 7 13 2 -2
BITMAP
02
3E
66
C2
C2
C2
C2
66
3A
02
C2
46
3C
ENDCHAR
STARTCHAR 0068
ENCODING 104
SWIDTH 500 0
DWIDTH 10 0
BBX 8 14 1 1
BITMAP
80
80
80
80
80
BE
E3
81
81
81
81
81
81
81
ENDCHAR
STARTCHAR 0069
ENCODING 105
SWIDTH 500 0
DWIDTH 10 0
BBX 2 14 4 1
BITMAP
C0
C0
00
00
80
80
80
80
80
80
80
80
80
80
ENDCHAR
STARTCHAR 006A
ENCODING 106
SWIDTH 500 0
DWIDTH 10 0
BBX 4 16 2 -2
BITMAP
30
30
00
00
10
10
10
10
10
10
10
10
10
10
10
F0
ENDCHAR
STARTCHAR 006B
ENCODING 107
SWIDTH 500 0
DWIDTH 10 0
BBX 7 14 2 1
BITMAP
80
80
80
80
8C
98
B0
A0
F0
D0
98
8C
8C
86
ENDCHAR
STARTCHAR 006C
ENCODING 108
SWIDTH 500 0
DWIDTH 10 0
BBX 4 14 4 0
BITMAP
80
80
80
80
80
80
80
80
80
80
80
80
80
70
ENDCHAR
STARTCHAR 006D
ENCODING 109
SWIDTH 500 0
DWIDTH 10 0
BBX 8 10 1 1
BITMAP
80
FF
91
91
91
91
91
91
91
91
ENDCHAR
STARTCHAR 006E
ENCODING 110
SWIDTH 500 0
DWIDTH 10 0
BBX 8 10 1 1
BITMAP
80
BE
E3
81
81
81
81
81
81
81
ENDCHAR
STARTCHAR 006F
ENCODING 111
SWIDTH 500 0
DWIDTH 10 0
BBX 8 9 1 1
BITMAP
3C
66
C3
C3
C3
C3
C3
66
3C
ENDCHAR
STARTCHAR 0070
ENCODING 112
SWIDTH 500 0
DWIDTH 10 0
BBX 7 13 1 -2
BITMAP
80
B8
CC
86
86
86
86
86
CC
B8
80
80
80
ENDCHAR
STARTCHAR 0071
ENCODING 113
SWIDTH 500 0
DWIDTH 10 0
BBX 7 13 2 -2
BITMAP
02
3A
46
C2
C2
C2
C2
C2
66
3A
02
02
02
ENDCHAR
STARTCHAR 0072
ENCODING 114
SWIDTH 500 0
DWIDTH 10 0
BBX 5 10 3 2
BITMAP
98
B8
E0
80
80
80
80
80
80
80
ENDCHAR
STARTCHAR 0073
ENCODING 115
SWIDTH 500 0
DWIDTH 10 0
BBX 8 9 1 1
BITMAP
3C
62
60
78
1E
07
C3
43
3E
ENDCHAR
STARTCHAR 0074
ENCODING 116
SWIDTH 500 0
DWIDTH 10 0
BBX 6 12 2 0
BITMAP
20
20
FC
20
20
20
20
20
20
20
20
3C
ENDCHAR
STARTCHAR 0075
ENCODING 117
SWIDTH 500 0
DWIDTH 10 0
BBX 8 10 1 1
BITMAP
81
81
81
81
81
81
81
81
C7
7D
ENDCHAR
STARTCHAR 0076
ENCODING 118
SWIDTH 500 0
DWIDTH 10 0
BBX 8 10 1 1
BITMAP
C3
C2
42
66
66
24
3C
3C
18
18
ENDCHAR
STARTCHAR 0077
ENCODING 119
SWIDTH 500 0
DWIDTH 10 0
BBX 8 10 1 1
BITMAP
99
99
99
99
BD
E7
66
66
66
66
ENDCHAR
STARTCHAR 0078
ENCODING 120
SWIDTH 500 0
DWIDTH 10 0
BBX 8 10 1 1
BITMAP
66
66
3C
18
18
18
3C
66
66
C3
ENDCHAR
STARTCHAR 0079
ENCODING 121
SWIDTH 500 0
DWIDTH 10 0
BBX 7 12 2 -2
BITMAP
82
C6
C6
44
6C
28
28
38
10
10
30
E0
ENDCHAR
STARTCHAR 007A
ENCODING 122
SWIDTH 500 0
DWIDTH 10 0
BBX 8 10 1 1
BITMAP
7E
06
0C
08
18
30
30
60
E0
FF
ENDCHAR
STARTCHAR 007B
ENCODING 123
SWIDTH 500 0
DWIDTH 10 0
BBX 5 18 3 -2
BITMAP
08
18
20
20
20
20
20
20
60
C0
60
20
20
20
20
20
20
18
ENDCHAR
STARTCHAR 007C
ENCODING 124
SWIDTH 500 0
DWIDTH 10 0
BBX 1 20 4 -2
BITMAP
80
80
80
80
80
80
80
80
80
80
80
80
80
80
80
80
80
80
80
80
ENDCHAR
STARTCHAR 007D
ENCODING 125
SWIDTH 500 0
DWIDTH 10 0
BBX 5 18 2 -2
BITMAP
80
C0
20
20
20
20
20
20
30
18
30
20
20
20
20
20
20
C0
ENDCHAR
STARTCHAR 007E
ENCODING 126
SWIDTH 500 0
DWIDTH 10 0
BBX 6 2 2 13
BITMAP
E0
1C
ENDCHAR
STARTCHAR 00A0
ENCODING 160
SWIDTH 500 0
DWIDTH 10 0
BBX 0 0 0 0
BITMAP
ENDCHAR
STARTCHAR 00A1
ENCODING 161
SWIDTH 500 0
DWIDTH 10 0
BBX 2 16 4 0
BITMAP
C0
C0
00
00
C0
C0
C0
C0
C0
C0
C0
C0
C0
C0
C0
C0
ENDCHAR
STARTCHAR 00A2
ENCODING 162
SWIDTH 1000 0
DWIDTH 20 0
BBX 10 14 5 1
BITMAP
0100
0300
1E00
6780
4480
8400
8C00
8800
D8C0
7080
3180
3E00
2000
2000
ENDCHAR
STARTCHAR 00A3
ENCODING 163
SWIDTH 1000 0
DWIDTH 20 0
BBX 14 15 3 1
BITMAP
03C0
0460
0830
0830
0800
0400
3FE0
0200
0100
7900
8F00
8604
870C
C488
7870
ENDCHAR
STARTCHAR 00A4
ENCODING 164
SWIDTH 500 0
DWIDTH 10 0
BBX 6 6 2 5
BITMAP
84
78
CC
84
8C
FC
ENDCHAR
STARTCHAR 00A5
ENCODING 165
SWIDTH 1000 0
DWIDTH 20 0
BBX 12 14 4 1
BITMAP
C030
6060
30C0
1980
0F00
FFF0
0600
0600
0600
FFF0
0600
0600
0600
0600
ENDCHAR
STARTCHAR 00A6
ENCODING 166
SWIDTH 500 0
DWIDTH 10 0
BBX 1 19 4 -2
BITMAP
80
80
80
80
80
80
80
80
80
00
80
80
80
80
80
80
80
80
80
ENDCHAR
STARTCHAR 00A7
ENCODING 167
SWIDTH 1000 0
DWIDTH 20 0
BBX 8 18 6 -1
BITMAP
3C
46
83
83
C0
60
7C
86
81
81
61
3E
06
03
C1
C1
62
3C
ENDCHAR
STARTCHAR 00A8
ENCODING 168
SWIDTH 1000 0
DWIDTH 20 0
BBX 7 2 7 13
BITMAP
C6
C6
ENDCHAR
STARTCHAR 00A9
ENCODING 169
SWIDTH 500 0
DWIDTH 10 0
BBX 9 9 1 3
BITMAP
3E00
4300
BD80
C080
C080
C480
FD00
6200
3C00
ENDCHAR
STARTCHAR 00AA
ENCODING 170
SWIDTH 500 0
DWIDTH 10 0
BBX 6 8 1 7
BITMAP
70
C8
18
E8
88
FC
00
FC
ENDCHAR
STARTCHAR 00AB
ENCODING 171
SWIDTH 500 0
DWIDTH 10 0
BBX 7 8 2 2
BITMAP
36
24
48
D0
D0
48
24
36
ENDCHAR
STARTCHAR 00AC
ENCODING 172
SWIDTH 1000 0
DWIDTH 20 0
BBX 17 9 1 3
BITMAP
FFFF80
000080
000080
000080
000080
000080
000080
000080
000080
ENDCHAR
STARTCHAR 00AD
ENCODING 173
SWIDTH 500 0
DWIDTH 10 0
BBX 8 1 1 7
BITMAP
FF
ENDCHAR
STARTCHAR 00AE
ENCODING 174
SWIDTH 500 0
DWIDTH 10 0
BBX 9 9 1 3
BITMAP
3C00
6200
FF00
A280
BC80
A480
E380
6300
3E00
ENDCHAR
STARTCHAR 00AF
ENCODING 175
SWIDTH 500 0
DWIDTH 10 0
BBX 8 1 1 14
BITMAP
FF
ENDCHAR
STARTCHAR 00B0
ENCODING 176
SWIDTH 1000 0
DWIDTH 20 0
BBX 5 5 1 12
BITMAP
70
88
88
88
70
ENDCHAR
STARTCHAR 00B1
ENCODING 177
SWIDTH 1000 0
DWIDTH 20 0
BBX 14 14 3 1
BITMAP
0200
0200
0200
0200
0200
FFFC
0200
0200
0200
0200
0200
0000
0000
FFFC
ENDCHAR
STARTCHAR 00B2
ENCODING 178
SWIDTH 500 0
DWIDTH 10 0
BBX 5 7 1 10
BITMAP
70
88
08
10
20
40
F8
ENDCHAR
STARTCHAR 00B3
ENCODING 179
SWIDTH 500 0
DWIDTH 10 0
BBX 5 7 1 10
BITMAP
78
48
08
30
08
C8
70
ENDCHAR
STARTCHAR 00B4
ENCODING 180
SWIDTH 1000 0
DWIDTH 20 0
BBX 4 2 8 13
BITMAP
30
C0
ENDCHAR
STARTCHAR 00B6
ENCODING 182
SWIDTH 1000 0
DWIDTH 20 0
BBX 8 17 5 -1
BITMAP
7F
F1
F1
F1
F1
71
31
11
11
11
11
11
11
11
11
11
11
ENDCHAR
STARTCHAR 00B7
ENCODING 183
SWIDTH 500 0
DWIDTH 10 0
BBX 2 3 4 6
BITMAP
C0
C0
C0
ENDCHAR
STARTCHAR 00B8
ENCODING 184
SWIDTH 500 0
DWIDTH 10 0
BBX 5 4 3 -1
BITMAP
40
F8
08
F0
ENDCHAR
STARTCHAR 00B9
ENCODING 185
SWIDTH 500 0
DWIDTH 10 0
BBX 2 7 2 10
BITMAP
40
C0
40
40
40
40
40
ENDCHAR
STARTCHAR 00BA
ENCODING 186
SWIDTH 500 0
DWIDTH 10 0
BBX 6 8 1 7
BITMAP
78
CC
84
84
CC
78
00
FC
ENDCHAR
STARTCHAR 00BB
ENCODING 187
SWIDTH 500 0
DWIDTH 10 0
BBX 7 8 1 2
BITMAP
D8
48
24
16
16
24
48
D8
ENDCHAR
STARTCHAR 00BC
ENCODING 188
SWIDTH 500 0
DWIDTH 10 0
BBX 8 17 1 -1
BITMAP
42
C2
42
44
44
48
48
50
12
16
26
2A
4A
52
9F
82
82
ENDCHAR
STARTCHAR 00BD
ENCODING 189
SWIDTH 500 0
DWIDTH 10 0
BBX 9 17 1 -1
BITMAP
4100
C200
4200
4200
4400
4400
4800
4800
1700
1880
2880
2080
4100
4600
8C00
8800
8F80
ENDCHAR
STARTCHAR 00BE
ENCODING 190
SWIDTH 500 0
DWIDTH 10 0
BBX 9 17 1 -1
BITMAP
E100
9300
1200
6200
1600
1400
9C00
E800
0A00
1600
1600
2A00
2A00
7200
5F80
4200
8200
ENDCHAR
STARTCHAR 00BF
ENCODING 191
SWIDTH 500 0
DWIDTH 10 0
BBX 8 16 1 0
BITMAP
18
18
00
00
18
18
18
10
30
60
E0
C3
C3
C2
66
3C
ENDCHAR
STARTCHAR 00C0
ENCODING 192
SWIDTH 500 0
DWIDTH 10 0
BBX 8 16 1 1
BITMAP
18
00
18
18
3C
3C
24
24
66
66
7E
42
C3
C3
81
81
ENDCHAR
STARTCHAR 00C1
ENCODING 193
SWIDTH 500 0
DWIDTH 10 0
BBX 8 16 1 1
BITMAP
18
00
18
18
3C
3C
24
24
66
66
7E
42
C3
C3
81
81
ENDCHAR
STARTCHAR 00C2
ENCODING 194
SWIDTH 500 0
DWIDTH 10 0
BBX 8 16 1 1
BITMAP
3C
00
18
18
3C
3C
24
24
66
66
7E
42
C3
C3
81
81
ENDCHAR
STARTCHAR 00C3
ENCODING 195
SWIDTH 500 0
DWIDTH 10 0
BBX 8 16 1 2
BITMAP
3C
00
18
18
3C
3C
24
24
24
66
7E
42
42
C3
C3
C3
ENDCHAR
STARTCHAR 00C4
ENCODING 196
SWIDTH 500 0
DWIDTH 10 0
BBX 10 16 0 1
BITMAP
3300
0000
0C00
0C00
1E00
1E00
1200
1200
3300
3300
3F00
6180
6180
6180
4080
C0C0
ENDCHAR
STARTCHAR 00C5
ENCODING 197
SWIDTH 500 0
DWIDTH 10 0
BBX 8 16 1 1
BITMAP
18
18
18
18
3C
3C
24
24
66
66
7E
42
C3
C3
81
81
ENDCHAR
STARTCHAR 00C6
ENCODING 198
SWIDTH 500 0
DWIDTH 10 0
BBX 9 14 1 1
BITMAP
1F00
1800
3800
2800
2800
2800
6F00
4800
7800
4800
C800
C800
8800
8F80
ENDCHAR
STARTCHAR 00C7
ENCODING 199
SWIDTH 500 0
DWIDTH 10 0
BBX 9 17 0 -2
BITMAP
1C00
6300
6300
C100
C000
C000
C000
C000
C000
C180
C100
6300
7F00
3E00
1000
1E00
1E00
ENDCHAR
STARTCHAR 00C8
ENCODING 200
SWIDTH 500 0
DWIDTH 10 0
BBX 8 16 1 1
BITMAP
30
00
FE
80
80
80
80
80
FE
80
80
80
80
80
80
FF
ENDCHAR
STARTCHAR 00C9
ENCODING 201
SWIDTH 500 0
DWIDTH 10 0
BBX 8 16 1 1
BITMAP
18
00
FE
80
80
80
80
80
FE
80
80
80
80
80
80
FF
ENDCHAR
STARTCHAR 00CA
ENCODING 202
SWIDTH 500 0
DWIDTH 10 0
BBX 8 16 1 1
BITMAP
3C
00
FE
80
80
80
80
80
FE
80
80
80
80
80
80
FF
ENDCHAR
STARTCHAR 00CB
ENCODING 203
SWIDTH 500 0
DWIDTH 10 0
BBX 8 16 1 1
BITMAP
66
00
FE
80
80
80
80
80
FE
80
80
80
80
80
80
FF
ENDCHAR
STARTCHAR 00CC
ENCODING 204
SWIDTH 500 0
DWIDTH 10 0
BBX 1 16 4 1
BITMAP
80
00
80
80
80
80
80
80
80
80
80
80
80
80
80
80
ENDCHAR
STARTCHAR 00CD
ENCODING 205
SWIDTH 500 0
DWIDTH 10 0
BBX 1 16 4 1
BITMAP
80
00
80
80
80
80
80
80
80
80
80
80
80
80
80
80
ENDCHAR
STARTCHAR 00CE
ENCODING 206
SWIDTH 500 0
DWIDTH 10 0
BBX 3 16 3 1
BITMAP
E0
00
40
40
40
40
40
40
40
40
40
40
40
40
40
40
ENDCHAR
STARTCHAR 00CF
ENCODING 207
SWIDTH 500 0
DWIDTH 10 0
BBX 6 16 2 1
BITMAP
CC
00
20
20
20
20
20
20
20
20
20
20
20
20
20
20
ENDCHAR
STARTCHAR 00D0
ENCODING 208
SWIDTH 500 0
DWIDTH 10 0
BBX 9 14 0 1
BITMAP
3C00
2600
2300
2180
2180
2180
F980
2180
2180
2180
2100
2300
2600
3C00
ENDCHAR
STARTCHAR 00D1
ENCODING 209
SWIDTH 500 0
DWIDTH 10 0
BBX 8 16 1 2
BITMAP
3C
00
C1
C1
E1
E1
B1
B1
99
99
9D
8D
8F
87
87
87
ENDCHAR
STARTCHAR 00D2
ENCODING 210
SWIDTH 500 0
DWIDTH 10 0
BBX 8 16 1 1
BITMAP
18
00
3C
66
66
C3
C3
C3
C3
C3
C3
C3
C3
62
66
3C
ENDCHAR
STARTCHAR 00D3
ENCODING 211
SWIDTH 500 0
DWIDTH 10 0
BBX 8 16 1 1
BITMAP
18
00
3C
66
66
C3
C3
C3
C3
C3
C3
C3
C3
62
66
3C
ENDCHAR
STARTCHAR 00D4
ENCODING 212
SWIDTH 500 0
DWIDTH 10 0
BBX 8 16 1 1
BITMAP
3C
00
3C
66
46
C3
C3
C3
C3
C3
C3
C3
C3
62
66
3C
ENDCHAR
STARTCHAR 00D5
ENCODING 213
SWIDTH 500 0
DWIDTH 10 0
BBX 8 16 1 2
BITMAP
3C
00
3C
66
66
C3
C3
C3
C3
C3
C3
C3
C3
62
66
3C
ENDCHAR
STARTCHAR 00D6
ENCODING 214
SWIDTH 500 0
DWIDTH 10 0
BBX 8 16 1 1
BITMAP
66
00
3C
66
66
C3
C3
C3
C3
C3
C3
C3
C3
62
66
3C
ENDCHAR
STARTCHAR 00D7
ENCODING 215
SWIDTH 1000 0
DWIDTH 20 0
BBX 12 12 4 1
BITMAP
8010
C030
6060
30C0
1980
0F00
0600
0F00
1980
30C0
6060
C030
ENDCHAR
STARTCHAR 00D8
ENCODING 216
SWIDTH 500 0
DWIDTH 10 0
BBX 8 16 1 0
BITMAP
01
3E
66
62
C7
C7
CB
CB
D3
D3
E3
E3
46
66
7C
80
ENDCHAR
STARTCHAR 00D9
ENCODING 217
SWIDTH 500 0
DWIDTH 10 0
BBX 8 16 1 1
BITMAP
38
00
81
81
81
81
81
81
81
81
81
81
81
81
42
3C
ENDCHAR
STARTCHAR 00DA
ENCODING 218
SWIDTH 500 0
DWIDTH 10 0
BBX 8 16 1 1
BITMAP
1C
00
81
81
81
81
81
81
81
81
81
81
81
81
42
3C
ENDCHAR
STARTCHAR 00DB
ENCODING 219
SWIDTH 500 0
DWIDTH 10 0
BBX 8 16 1 1
BITMAP
3C
00
81
81
81
81
81
81
81
81
81
81
81
81
42
3C
ENDCHAR
STARTCHAR 00DC
ENCODING 220
SWIDTH 500 0
DWIDTH 10 0
BBX 8 16 1 1
BITMAP
66
00
81
81
81
81
81
81
81
81
81
81
81
81
42
3C
ENDCHAR
STARTCHAR 00DD
ENCODING 221
SWIDTH 500 0
DWIDTH 10 0
BBX 7 16 1 1
BITMAP
10
00
82
C6
C6
44
6C
28
28
10
10
10
10
10
10
10
ENDCHAR
STARTCHAR 00DE
ENCODING 222
SWIDTH 500 0
DWIDTH 10 0
BBX 7 14 1 1
BITMAP
80
80
80
F8
8C
86
86
86
86
8C
F8
80
80
80
ENDCHAR
STARTCHAR 00DF
ENCODING 223
SWIDTH 500 0
DWIDTH 10 0
BBX 7 14 2 0
BITMAP
78
4C
8C
8C
8C
98
B0
8C
86
86
86
86
8C
B8
ENDCHAR
STARTCHAR 00E0
ENCODING 224
SWIDTH 500 0
DWIDTH 10 0
BBX 8 13 1 0
BITMAP
10
08
00
00
3C
42
02
3E
72
C2
C2
C6
7B
ENDCHAR
STARTCHAR 00E1
ENCODING 225
SWIDTH 500 0
DWIDTH 10 0
BBX 8 13 1 0
BITMAP
0C
18
00
00
3C
42
02
3E
72
C2
C2
C6
7B
ENDCHAR
STARTCHAR 00E2
ENCODING 226
SWIDTH 500 0
DWIDTH 10 0
BBX 8 13 1 0
BITMAP
18
24
00
00
3C
42
02
3E
72
C2
C2
C6
7B
ENDCHAR
STARTCHAR 00E3
ENCODING 227
SWIDTH 500 0
DWIDTH 10 0
BBX 8 12 1 1
BITMAP
3C
00
00
3C
42
02
3E
72
C2
C2
C6
7B
ENDCHAR
STARTCHAR 00E4
ENCODING 228
SWIDTH 500 0
DWIDTH 10 0
BBX 8 13 1 0
BITMAP
66
00
00
00
7C
C2
02
3E
72
C2
C2
C6
7B
ENDCHAR
STARTCHAR 00E5
ENCODING 229
SWIDTH 500 0
DWIDTH 10 0
BBX 8 14 1 0
BITMAP
1C
14
1C
00
00
3C
42
02
3E
72
C2
C2
C6
7B
ENDCHAR
STARTCHAR 00E6
ENCODING 230
SWIDTH 500 0
DWIDTH 10 0
BBX 8 9 1 1
BITMAP
FE
9B
11
3F
70
D0
D9
DB
7E
ENDCHAR
STARTCHAR 00E7
ENCODING 231
SWIDTH 500 0
DWIDTH 10 0
BBX 7 12 2 -2
BITMAP
3C
66
C0
C0
C0
C0
C2
66
7C
20
38
38
ENDCHAR
STARTCHAR 00E8
ENCODING 232
SWIDTH 500 0
DWIDTH 10 0
BBX 8 13 1 1
BITMAP
30
08
00
00
3C
62
C3
FF
C0
C0
C3
66
3C
ENDCHAR
STARTCHAR 00E9
ENCODING 233
SWIDTH 500 0
DWIDTH 10 0
BBX 8 13 1 1
BITMAP
0C
10
00
00
3C
62
C3
FF
C0
C0
C3
66
3C
ENDCHAR
STARTCHAR 00EA
ENCODING 234
SWIDTH 500 0
DWIDTH 10 0
BBX 8 13 1 1
BITMAP
18
24
00
00
3C
62
C3
FF
C0
C0
C3
66
3C
ENDCHAR
STARTCHAR 00EB
ENCODING 235
SWIDTH 500 0
DWIDTH 10 0
BBX 8 13 1 1
BITMAP
66
00
00
00
3C
42
C3
FF
C0
C0
C3
62
3C
ENDCHAR
STARTCHAR 00EC
ENCODING 236
SWIDTH 500 0
DWIDTH 10 0
BBX 2 13 3 1
BITMAP
80
40
00
40
40
40
40
40
40
40
40
40
40
ENDCHAR
STARTCHAR 00ED
ENCODING 237
SWIDTH 500 0
DWIDTH 10 0
BBX 2 13 4 1
BITMAP
40
80
00
80
80
80
80
80
80
80
80
80
80
ENDCHAR
STARTCHAR 00EE
ENCODING 238
SWIDTH 500 0
DWIDTH 10 0
BBX 3 13 3 1
BITMAP
40
A0
00
40
40
40
40
40
40
40
40
40
40
ENDCHAR
STARTCHAR 00EF
ENCODING 239
SWIDTH 500 0
DWIDTH 10 0
BBX 6 13 2 1
BITMAP
CC
00
00
20
20
20
20
20
20
20
20
20
20
ENDCHAR
STARTCHAR 00F0
ENCODING 240
SWIDTH 500 0
DWIDTH 10 0
BBX 8 15 1 1
BITMAP
20
3C
1C
3C
06
02
3F
67
C3
C3
C3
C3
C3
66
3C
ENDCHAR
STARTCHAR 00F1
ENCODING 241
SWIDTH 500 0
DWIDTH 10 0
BBX 8 13 1 1
BITMAP
3C
00
00
C0
DE
E3
81
81
81
81
81
81
81
ENDCHAR
STARTCHAR 00F2
ENCODING 242
SWIDTH 500 0
DWIDTH 10 0
BBX 8 13 1 1
BITMAP
30
08
00
00
3C
66
C3
C3
C3
C3
C3
66
3C
ENDCHAR
STARTCHAR 00F3
ENCODING 243
SWIDTH 500 0
DWIDTH 10 0
BBX 8 13 1 1
BITMAP
0C
10
00
00
3C
66
C3
C3
C3
C3
C3
66
3C
ENDCHAR
STARTCHAR 00F4
ENCODING 244
SWIDTH 500 0
DWIDTH 10 0
BBX 8 13 1 1
BITMAP
18
24
00
00
3C
66
C3
C3
C3
C3
C3
66
3C
ENDCHAR
STARTCHAR 00F5
ENCODING 245
SWIDTH 500 0
DWIDTH 10 0
BBX 8 12 1 2
BITMAP
3C
00
00
3C
66
C3
C3
C3
C3
C3
66
3C
ENDCHAR
STARTCHAR 00F6
ENCODING 246
SWIDTH 500 0
DWIDTH 10 0
BBX 8 13 1 1
BITMAP
66
00
00
00
3C
66
C3
C3
C3
C3
C3
66
3C
ENDCHAR
STARTCHAR 00F7
ENCODING 247
SWIDTH 1000 0
DWIDTH 20 0
BBX 14 10 3 2
BITMAP
0300
0300
0000
0000
FFFC
0000
0000
0000
0300
0300
ENDCHAR
STARTCHAR 00F8
ENCODING 248
SWIDTH 500 0
DWIDTH 10 0
BBX 8 11 1 0
BITMAP
02
3E
66
C7
CB
D3
D3
E3
66
7C
80
ENDCHAR
STARTCHAR 00F9
ENCODING 249
SWIDTH 500 0
DWIDTH 10 0
BBX 8 13 1 1
BITMAP
30
18
00
81
81
81
81
81
81
81
81
C7
7D
ENDCHAR
STARTCHAR 00FA
ENCODING 250
SWIDTH 500 0
DWIDTH 10 0
BBX 8 13 1 1
BITMAP
0C
10
00
81
81
81
81
81
81
81
81
C7
7D
ENDCHAR
STARTCHAR 00FB
ENCODING 251
SWIDTH 500 0
DWIDTH 10 0
BBX 8 13 1 1
BITMAP
3C
66
00
81
81
81
81
81
81
81
81
C7
7D
ENDCHAR
STARTCHAR 00FC
ENCODING 252
SWIDTH 500 0
DWIDTH 10 0
BBX 8 13 1 1
BITMAP
66
00
00
81
81
81
81
81
81
81
81
C7
7D
ENDCHAR
STARTCHAR 00FD
ENCODING 253
SWIDTH 500 0
DWIDTH 10 0
BBX 7 16 2 -2
BITMAP
08
10
00
82
C6
C6
44
6C
6C
28
38
38
10
30
20
E0
ENDCHAR
STARTCHAR 00FE
ENCODING 254
SWIDTH 500 0
DWIDTH 10 0
BBX 7 17 1 -2
BITMAP
80
80
80
80
80
B8
CC
86
86
86
86
86
CC
B8
80
80
80
ENDCHAR
STARTCHAR 00FF
ENCODING 255
SWIDTH 500 0
DWIDTH 10 0
BBX 7 16 2 -2
BITMAP
CC
00
00
86
86
84
4C
48
48
78
30
30
30
20
20
C0
ENDCHAR
STARTCHAR 0100
ENCODING 256
SWIDTH 500 0
DWIDTH 10 0
BBX 10 16 0 1
BITMAP
3F00
0000
0C00
1E00
1E00
1200
1200
3300
3300
2100
3F80
6180
6180
4080
C0C0
C0C0
ENDCHAR
STARTCHAR 0101
ENCODING 257
SWIDTH 500 0
DWIDTH 10 0
BBX 8 12 1 0
BITMAP
7E
00
00
7C
C2
02
3E
72
C2
C2
C6
7B
ENDCHAR
STARTCHAR 0102
ENCODING 258
SWIDTH 500 0
DWIDTH 10 0
BBX 8 16 1 1
BITMAP
3C
00
18
18
3C
3C
24
24
66
66
7E
42
C3
C3
81
81
ENDCHAR
STARTCHAR 0103
ENCODING 259
SWIDTH 500 0
DWIDTH 10 0
BBX 8 13 1 0
BITMAP
24
3C
00
00
3C
42
02
3E
72
C2
C2
C6
7B
ENDCHAR
STARTCHAR 0104
ENCODING 260
SWIDTH 500 0
DWIDTH 10 0
BBX 9 17 1 -2
BITMAP
1800
1C00
1400
3400
3400
2600
2600
6200
7E00
4300
4300
C100
C100
C180
0100
0200
0380
ENDCHAR
STARTCHAR 0105
ENCODING 261
SWIDTH 500 0
DWIDTH 10 0
BBX 8 12 1 -2
BITMAP
3C
42
02
3E
72
C2
C2
C6
7B
02
04
07
ENDCHAR
STARTCHAR 0106
ENCODING 262
SWIDTH 500 0
DWIDTH 10 0
BBX 8 16 1 1
BITMAP
18
00
3C
66
63
C3
C0
C0
C0
C0
C0
C3
C3
63
66
3C
ENDCHAR
STARTCHAR 0107
ENCODING 263
SWIDTH 500 0
DWIDTH 10 0
BBX 8 13 1 1
BITMAP
0C
10
00
00
3C
62
C0
C0
C0
C0
C3
66
3C
ENDCHAR
STARTCHAR 0108
ENCODING 264
SWIDTH 500 0
DWIDTH 10 0
BBX 8 16 1 1
BITMAP
3C
00
3C
66
63
C3
C0
C0
C0
C0
C0
C3
C3
63
66
3C
ENDCHAR
STARTCHAR 0109
ENCODING 265
SWIDTH 500 0
DWIDTH 10 0
BBX 8 13 1 1
BITMAP
18
24
00
00
3C
62
C0
C0
C0
C0
C3
66
3C
ENDCHAR
STARTCHAR 010C
ENCODING 268
SWIDTH 500 0
DWIDTH 10 0
BBX 8 16 1 1
BITMAP
3C
00
3C
66
63
C3
C0
C0
C0
C0
C0
C3
C3
63
66
3C
ENDCHAR
STARTCHAR 010D
ENCODING 269
SWIDTH 500 0
DWIDTH 10 0
BBX 8 13 1 1
BITMAP
24
18
00
00
3C
62
C0
C0
C0
C0
C3
66
3C
ENDCHAR
STARTCHAR 010E
ENCODING 270
SWIDTH 500 0
DWIDTH 10 0
BBX 7 16 1 1
BITMAP
50
20
F0
98
8C
86
86
86
86
86
86
86
84
8C
98
F0
ENDCHAR
STARTCHAR 010F
ENCODING 271
SWIDTH 500 0
DWIDTH 10 0
BBX 9 15 1 1
BITMAP
0180
0580
0480
0500
0400
0400
7C00
6C00
C400
C400
C400
C400
C400
6C00
7400
ENDCHAR
STARTCHAR 0111
ENCODING 273
SWIDTH 500 0
DWIDTH 10 0
BBX 9 14 1 1
BITMAP
0200
0200
0F80
0200
0200
3A00
6600
C200
C200
C200
C200
C200
6600
3A00
ENDCHAR
STARTCHAR 0112
ENCODING 274
SWIDTH 500 0
DWIDTH 10 0
BBX 8 16 1 1
BITMAP
7E
00
FE
80
80
80
80
80
FE
80
80
80
80
80
80
FF
ENDCHAR
STARTCHAR 0113
ENCODING 275
SWIDTH 500 0
DWIDTH 10 0
BBX 8 12 1 1
BITMAP
7E
00
00
3C
43
C3
FF
80
80
C3
62
3C
ENDCHAR
STARTCHAR 0118
ENCODING 280
SWIDTH 500 0
DWIDTH 10 0
BBX 8 17 1 -2
BITMAP
FE
80
80
80
80
80
FE
80
80
80
80
80
80
FF
10
20
3C
ENDCHAR
STARTCHAR 0119
ENCODING 281
SWIDTH 500 0
DWIDTH 10 0
BBX 7 12 2 -2
BITMAP
3C
46
82
FE
80
80
C2
46
7C
20
20
38
ENDCHAR
STARTCHAR 011A
ENCODING 282
SWIDTH 500 0
DWIDTH 10 0
BBX 8 16 1 1
BITMAP
2C
10
FE
80
80
80
80
80
FE
80
80
80
80
80
80
FF
ENDCHAR
STARTCHAR 011B
ENCODING 283
SWIDTH 500 0
DWIDTH 10 0
BBX 8 13 1 1
BITMAP
24
18
00
00
3C
62
C3
FF
C0
C0
C3
66
3C
ENDCHAR
STARTCHAR 011C
ENCODING 284
SWIDTH 500 0
DWIDTH 10 0
BBX 8 16 1 1
BITMAP
1C
00
3C
62
63
C3
C0
C0
C0
C7
C1
C1
C3
63
67
3D
ENDCHAR
STARTCHAR 011D
ENCODING 285
SWIDTH 500 0
DWIDTH 10 0
BBX 7 16 2 -2
BITMAP
38
64
00
02
3E
66
C2
C2
C2
C2
66
3A
02
C2
46
3C
ENDCHAR
STARTCHAR 0124
ENCODING 292
SWIDTH 500 0
DWIDTH 10 0
BBX 8 16 1 1
BITMAP
3C
00
81
81
81
81
81
81
FF
81
81
81
81
81
81
81
ENDCHAR
STARTCHAR 0125
ENCODING 293
SWIDTH 500 0
DWIDTH 10 0
BBX 8 16 1 1
BITMAP
3C
00
80
80
80
80
80
BE
E3
81
81
81
81
81
81
81
ENDCHAR
STARTCHAR 0127
ENCODING 295
SWIDTH 500 0
DWIDTH 10 0
BBX 9 14 0 1
BITMAP
2000
2000
F800
2000
2000
2F00
3180
2080
2080
2080
2080
2080
2080
2080
ENDCHAR
STARTCHAR 012A
ENCODING 298
SWIDTH 500 0
DWIDTH 10 0
BBX 6 16 2 1
BITMAP
FC
00
20
20
20
20
20
20
20
20
20
20
20
20
20
20
ENDCHAR
STARTCHAR 012B
ENCODING 299
SWIDTH 500 0
DWIDTH 10 0
BBX 6 12 2 1
BITMAP
FC
00
20
20
20
20
20
20
20
20
20
20
ENDCHAR
STARTCHAR 0134
ENCODING 308
SWIDTH 500 0
DWIDTH 10 0
BBX 7 16 2 1
BITMAP
0E
00
04
04
04
04
04
04
04
04
04
04
84
84
CC
78
ENDCHAR
STARTCHAR 0135
ENCODING 309
SWIDTH 500 0
DWIDTH 10 0
BBX 5 15 2 -2
BITMAP
30
68
00
10
10
10
10
10
10
10
10
10
10
10
F0
ENDCHAR
STARTCHAR 0139
ENCODING 313
SWIDTH 500 0
DWIDTH 10 0
BBX 8 16 1 1
BITMAP
18
00
80
80
80
80
80
80
80
80
80
80
80
80
80
FF
ENDCHAR
STARTCHAR 013A
ENCODING 314
SWIDTH 500 0
DWIDTH 10 0
BBX 1 16 4 1
BITMAP
80
00
80
80
80
80
80
80
80
80
80
80
80
80
80
80
ENDCHAR
STARTCHAR 013D
ENCODING 317
SWIDTH 500 0
DWIDTH 10 0
BBX 8 15 1 1
BITMAP
0C
8C
84
88
80
80
80
80
80
80
80
80
80
80
FF
ENDCHAR
STARTCHAR 013E
ENCODING 318
SWIDTH 500 0
DWIDTH 10 0
BBX 5 15 4 1
BITMAP
18
98
88
90
80
80
80
80
80
80
80
80
80
80
80
ENDCHAR
STARTCHAR 0141
ENCODING 321
SWIDTH 500 0
DWIDTH 10 0
BBX 8 14 1 1
BITMAP
40
40
40
40
58
70
40
40
C0
40
40
40
40
7F
ENDCHAR
STARTCHAR 0142
ENCODING 322
SWIDTH 500 0
DWIDTH 10 0
BBX 5 14 2 1
BITMAP
20
20
20
20
28
30
20
60
A0
20
20
20
20
20
ENDCHAR
STARTCHAR 0143
ENCODING 323
SWIDTH 500 0
DWIDTH 10 0
BBX 8 16 1 1
BITMAP
1C
00
C1
C1
E1
E1
B1
B1
99
99
8D
8D
87
87
83
83
ENDCHAR
STARTCHAR 0144
ENCODING 324
SWIDTH 500 0
DWIDTH 10 0
BBX 8 13 1 1
BITMAP
0C
10
00
80
BE
E3
81
81
81
81
81
81
81
ENDCHAR
STARTCHAR 0147
ENCODING 327
SWIDTH 500 0
DWIDTH 10 0
BBX 8 16 1 1
BITMAP
2C
10
C1
C1
E1
E1
B1
B1
99
99
8D
8D
87
87
83
83
ENDCHAR
STARTCHAR 0148
ENCODING 328
SWIDTH 500 0
DWIDTH 10 0
BBX 8 13 1 1
BITMAP
66
3C
00
80
BE
E3
81
81
81
81
81
81
81
ENDCHAR
STARTCHAR 014B
ENCODING 331
SWIDTH 500 0
DWIDTH 10 0
BBX 8 13 1 -2
BITMAP
80
BE
E3
81
81
81
81
81
81
81
01
01
0F
ENDCHAR
STARTCHAR 014C
ENCODING 332
SWIDTH 500 0
DWIDTH 10 0
BBX 10 16 0 1
BITMAP
3F00
0000
1E00
3300
6180
4080
C0C0
C0C0
C0C0
C0C0
C0C0
C0C0
4080
6180
3100
1E00
ENDCHAR
STARTCHAR 014D
ENCODING 333
SWIDTH 500 0
DWIDTH 10 0
BBX 8 12 1 1
BITMAP
7E
00
00
3C
62
C3
C3
C3
C3
C3
66
3C
ENDCHAR
STARTCHAR 0150
ENCODING 336
SWIDTH 500 0
DWIDTH 10 0
BBX 8 16 1 1
BITMAP
34
00
3C
66
66
C3
C3
C3
C3
C3
C3
C3
C3
62
66
3C
ENDCHAR
STARTCHAR 0151
ENCODING 337
SWIDTH 500 0
DWIDTH 10 0
BBX 8 13 1 1
BITMAP
1A
34
00
00
3C
66
C3
C3
C3
C3
C3
66
3C
ENDCHAR
STARTCHAR 0152
ENCODING 338
SWIDTH 500 0
DWIDTH 10 0
BBX 8 14 2 1
BITMAP
3E
68
48
C8
C8
C8
CE
C8
C8
C8
C8
48
48
3F
ENDCHAR
STARTCHAR 0153
ENCODING 339
SWIDTH 500 0
DWIDTH 10 0
BBX 8 10 1 0
BITMAP
7E
99
99
9F
98
98
99
99
99
66
ENDCHAR
STARTCHAR 0154
ENCODING 340
SWIDTH 500 0
DWIDTH 10 0
BBX 7 16 1 1
BITMAP
10
00
F8
8C
86
86
86
8C
F8
98
98
8C
8C
84
86
86
ENDCHAR
STARTCHAR 0155
ENCODING 341
SWIDTH 500 0
DWIDTH 10 0
BBX 5 13 3 1
BITMAP
20
40
00
98
B8
E0
80
80
80
80
80
80
80
ENDCHAR
STARTCHAR 0158
ENCODING 344
SWIDTH 500 0
DWIDTH 10 0
BBX 7 16 1 1
BITMAP
50
20
F8
8C
86
86
86
8C
F8
98
98
8C
8C
84
86
86
ENDCHAR
STARTCHAR 0159
ENCODING 345
SWIDTH 500 0
DWIDTH 10 0
BBX 5 13 3 1
BITMAP
90
E0
00
98
B8
E0
80
80
80
80
80
80
80
ENDCHAR
STARTCHAR 015A
ENCODING 346
SWIDTH 500 0
DWIDTH 10 0
BBX 8 16 1 1
BITMAP
18
00
3C
66
C2
C3
E0
70
38
1E
07
03
C3
C3
46
3C
ENDCHAR
STARTCHAR 015B
ENCODING 347
SWIDTH 500 0
DWIDTH 10 0
BBX 8 13 1 1
BITMAP
0C
10
00
00
3C
62
60
78
1E
07
C3
43
3E
ENDCHAR
STARTCHAR 015C
ENCODING 348
SWIDTH 500 0
DWIDTH 10 0
BBX 8 16 1 1
BITMAP
3C
00
3C
66
C2
C3
E0
70
38
1C
06
03
C3
C3
47
3E
ENDCHAR
STARTCHAR 015D
ENCODING 349
SWIDTH 500 0
DWIDTH 10 0
BBX 8 13 1 1
BITMAP
18
24
00
00
3C
62
60
78
1E
07
C3
43
3E
ENDCHAR
STARTCHAR 015E
ENCODING 350
SWIDTH 500 0
DWIDTH 10 0
BBX 8 17 1 -2
BITMAP
3C
E6
C2
C0
E0
70
3C
0E
07
C3
C3
46
3C
00
18
18
08
ENDCHAR
STARTCHAR 015F
ENCODING 351
SWIDTH 500 0
DWIDTH 10 0
BBX 8 12 1 -2
BITMAP
3C
62
60
3C
0E
C3
43
3E
00
18
18
08
ENDCHAR
STARTCHAR 0160
ENCODING 352
SWIDTH 500 0
DWIDTH 10 0
BBX 8 16 1 1
BITMAP
3C
00
3C
66
C2
C3
E0
70
38
1E
07
03
C3
C3
46
3C
ENDCHAR
STARTCHAR 0161
ENCODING 353
SWIDTH 500 0
DWIDTH 10 0
BBX 8 13 1 1
BITMAP
24
18
00
00
3C
62
60
78
1E
07
C3
43
3E
ENDCHAR
STARTCHAR 0162
ENCODING 354
SWIDTH 500 0
DWIDTH 10 0
BBX 8 17 1 -2
BITMAP
FF
10
10
10
10
10
10
10
10
10
10
10
10
00
18
18
10
ENDCHAR
STARTCHAR 0163
ENCODING 355
SWIDTH 500 0
DWIDTH 10 0
BBX 6 15 2 -2
BITMAP
20
20
FC
20
20
20
20
20
20
20
3C
00
30
30
10
ENDCHAR
STARTCHAR 0164
ENCODING 356
SWIDTH 500 0
DWIDTH 10 0
BBX 8 16 1 1
BITMAP
28
10
FF
10
10
10
10
10
10
10
10
10
10
10
10
10
ENDCHAR
STARTCHAR 0165
ENCODING 357
SWIDTH 500 0
DWIDTH 10 0
BBX 7 15 2 0
BITMAP
06
06
02
24
20
FC
20
20
20
20
20
20
20
20
3C
ENDCHAR
STARTCHAR 016A
ENCODING 362
SWIDTH 500 0
DWIDTH 10 0
BBX 8 16 1 1
BITMAP
7E
00
81
81
81
81
81
81
81
81
81
81
81
81
42
3C
ENDCHAR
STARTCHAR 016B
ENCODING 363
SWIDTH 500 0
DWIDTH 10 0
BBX 8 12 1 1
BITMAP
7E
00
81
81
81
81
81
81
81
81
C7
7D
ENDCHAR
STARTCHAR 016C
ENCODING 364
SWIDTH 500 0
DWIDTH 10 0
BBX 8 16 1 1
BITMAP
7E
00
81
81
81
81
81
81
81
81
81
81
81
81
42
3C
ENDCHAR
STARTCHAR 016D
ENCODING 365
SWIDTH 500 0
DWIDTH 10 0
BBX 8 13 1 1
BITMAP
42
3C
00
81
81
81
81
81
81
81
81
C7
7D
ENDCHAR
STARTCHAR 016E
ENCODING 366
SWIDTH 500 0
DWIDTH 10 0
BBX 8 16 1 1
BITMAP
3C
3C
81
81
81
81
81
81
81
81
81
81
81
81
42
3C
ENDCHAR
STARTCHAR 016F
ENCODING 367
SWIDTH 500 0
DWIDTH 10 0
BBX 8 14 1 1
BITMAP
38
24
18
00
81
81
81
81
81
81
81
81
C7
7D
ENDCHAR
STARTCHAR 0170
ENCODING 368
SWIDTH 500 0
DWIDTH 10 0
BBX 8 16 1 1
BITMAP
36
00
81
81
81
81
81
81
81
81
81
81
81
81
42
3C
ENDCHAR
STARTCHAR 0171
ENCODING 369
SWIDTH 500 0
DWIDTH 10 0
BBX 8 13 1 1
BITMAP
1B
64
00
81
81
81
81
81
81
81
81
C7
7D
ENDCHAR
STARTCHAR 0179
ENCODING 377
SWIDTH 500 0
DWIDTH 10 0
BBX 8 16 1 1
BITMAP
08
00
7F
03
06
06
0C
0C
18
18
38
30
70
60
E0
FF
ENDCHAR
STARTCHAR 017A
ENCODING 378
SWIDTH 500 0
DWIDTH 10 0
BBX 8 13 1 1
BITMAP
08
10
00
7E
06
0C
08
18
30
30
60
E0
FF
ENDCHAR
STARTCHAR 017B
ENCODING 379
SWIDTH 500 0
DWIDTH 10 0
BBX 8 16 1 1
BITMAP
18
00
7F
03
06
06
0C
0C
18
18
30
30
60
60
C0
FF
ENDCHAR
STARTCHAR 017C
ENCODING 380
SWIDTH 500 0
DWIDTH 10 0
BBX 8 13 1 1
BITMAP
18
00
00
7E
06
0C
08
18
30
30
60
E0
FF
ENDCHAR
STARTCHAR 017D
ENCODING 381
SWIDTH 500 0
DWIDTH 10 0
BBX 8 16 1 1
BITMAP
14
08
7F
03
06
06
0C
0C
18
18
38
30
70
60
E0
FF
ENDCHAR
STARTCHAR 017E
ENCODING 382
SWIDTH 500 0
DWIDTH 10 0
BBX 8 13 1 1
BITMAP
24
18
00
7E
06
0C
08
18
30
30
60
E0
FF
ENDCHAR
STARTCHAR 0193
ENCODING 403
SWIDTH 500 0
DWIDTH 10 0
BBX 9 16 1 1
BITMAP
0180
0200
3E00
6600
E200
C200
C000
C000
C000
CF00
C100
C100
C300
6300
6700
3D00
ENDCHAR
STARTCHAR 01C2
ENCODING 450
SWIDTH 500 0
DWIDTH 10 0
BBX 6 17 2 -2
BITMAP
20
20
20
20
FC
20
20
20
20
20
20
FC
20
20
20
20
20
ENDCHAR
STARTCHAR 01CD
ENCODING 461
SWIDTH 1000 0
DWIDTH 20 0
BBX 12 16 4 1
BITMAP
0F00
0000
0600
0F00
0F00
1980
1980
1080
30C0
30C0
3FC0
6060
6060
C030
C030
C030
ENDCHAR
STARTCHAR 01CE
ENCODING 462
SWIDTH 1000 0
DWIDTH 20 0
BBX 10 13 5 0
BITMAP
2300
1C00
0000
3E00
6300
C180
0180
3F80
7180
C180
C180
C780
7DC0
ENDCHAR
STARTCHAR 01D0
ENCODING 464
SWIDTH 1000 0
DWIDTH 20 0
BBX 6 13 7 1
BITMAP
CC
78
00
30
30
30
30
30
30
30
30
30
30
ENDCHAR
STARTCHAR 01D1
ENCODING 465
SWIDTH 1000 0
DWIDTH 20 0
BBX 13 16 4 1
BITMAP
0F00
0000
0F80
38E0
6030
6030
C018
C018
C018
C018
C018
C018
6030
6030
38E0
0F80
ENDCHAR
STARTCHAR 01D2
ENCODING 466
SWIDTH 1000 0
DWIDTH 20 0
BBX 10 13 5 1
BITMAP
3300
1E00
0000
1E00
7180
6180
C0C0
C0C0
C0C0
C0C0
E180
6180
3E00
ENDCHAR
STARTCHAR 01D4
ENCODING 468
SWIDTH 1000 0
DWIDTH 20 0
BBX 8 13 6 1
BITMAP
64
18
00
C3
C3
C3
C3
C3
C3
C3
C7
E7
7B
ENDCHAR
STARTCHAR 01D6
ENCODING 470
SWIDTH 1000 0
DWIDTH 20 0
BBX 8 14 6 1
BITMAP
7E
00
66
00
C3
C3
C3
C3
C3
C3
C3
C7
E7
7B
ENDCHAR
STARTCHAR 01D8
ENCODING 472
SWIDTH 1000 0
DWIDTH 20 0
BBX 8 14 6 1
BITMAP
0C
08
66
00
C3
C3
C3
C3
C3
C3
C3
C7
E7
7B
ENDCHAR
STARTCHAR 01DA
ENCODING 474
SWIDTH 1000 0
DWIDTH 20 0
BBX 8 14 6 1
BITMAP
24
18
66
00
C3
C3
C3
C3
C3
C3
C3
C7
E7
7B
ENDCHAR
STARTCHAR 01DC
ENCODING 476
SWIDTH 1000 0
DWIDTH 20 0
BBX 8 14 6 1
BITMAP
30
10
66
00
C3
C3
C3
C3
C3
C3
C3
C7
E7
7B
ENDCHAR
STARTCHAR 01F8
ENCODING 504
SWIDTH 500 0
DWIDTH 10 0
BBX 8 16 1 1
BITMAP
38
00
C1
C1
E1
E1
B1
B1
99
99
8D
8D
87
87
83
83
ENDCHAR
STARTCHAR 01F9
ENCODING 505
SWIDTH 500 0
DWIDTH 10 0
BBX 8 13 1 1
BITMAP
30
18
00
80
BE
E3
81
81
81
81
81
81
81
ENDCHAR
STARTCHAR 01FD
ENCODING 509
SWIDTH 500 0
DWIDTH 10 0
BBX 8 13 1 1
BITMAP
08
10
00
00
FE
9B
11
3F
70
D0
D9
DB
7E
ENDCHAR
STARTCHAR 0250
ENCODING 592
SWIDTH 500 0
DWIDTH 10 0
BBX 8 9 1 2
BITMAP
DE
63
43
47
7C
40
42
66
3C
ENDCHAR
STARTCHAR 0251
ENCODING 593
SWIDTH 500 0
DWIDTH 10 0
BBX 8 10 2 0
BITMAP
02
3E
66
C2
C2
C2
C2
C2
66
3F
ENDCHAR
STARTCHAR 0252
ENCODING 594
SWIDTH 500 0
DWIDTH 10 0
BBX 7 9 1 2
BITMAP
F8
CC
86
86
86
86
86
CC
F8
ENDCHAR
STARTCHAR 0253
ENCODING 595
SWIDTH 500 0
DWIDTH 10 0
BBX 7 14 1 1
BITMAP
38
44
86
80
80
B8
CC
86
86
86
86
86
CC
F8
ENDCHAR
STARTCHAR 0254
ENCODING 596
SWIDTH 500 0
DWIDTH 10 0
BBX 8 9 1 1
BITMAP
3C
46
03
03
03
03
C3
66
3C
ENDCHAR
STARTCHAR 0255
ENCODING 597
SWIDTH 500 0
DWIDTH 10 0
BBX 8 10 1 -1
BITMAP
3C
62
C0
C0
CE
D3
F3
66
7C
80
ENDCHAR
STARTCHAR 0256
ENCODING 598
SWIDTH 500 0
DWIDTH 10 0
BBX 9 17 1 -2
BITMAP
0200
0200
0200
0200
0200
3A00
6600
C200
C200
C200
C200
C200
6600
3A00
0200
0200
0380
ENDCHAR
STARTCHAR 0257
ENCODING 599
SWIDTH 500 0
DWIDTH 10 0
BBX 9 14 1 1
BITMAP
0380
0200
0200
0200
0200
3A00
6600
C200
C200
C200
C200
C200
6600
3A00
ENDCHAR
STARTCHAR 0258
ENCODING 600
SWIDTH 500 0
DWIDTH 10 0
BBX 8 9 1 1
BITMAP
3C
46
C3
FF
03
03
C3
66
3C
ENDCHAR
STARTCHAR 0259
ENCODING 601
SWIDTH 500 0
DWIDTH 10 0
BBX 8 9 1 1
BITMAP
3C
C6
03
03
FF
C3
43
66
3C
ENDCHAR
STARTCHAR 025A
ENCODING 602
SWIDTH 500 0
DWIDTH 10 0
BBX 9 9 1 1
BITMAP
7000
C800
8E00
0E00
3E80
E500
8C00
C800
7000
ENDCHAR
STARTCHAR 025C
ENCODING 604
SWIDTH 500 0
DWIDTH 10 0
BBX 7 9 2 1
BITMAP
7C
C6
06
38
06
06
06
C6
7C
ENDCHAR
STARTCHAR 025E
ENCODING 606
SWIDTH 500 0
DWIDTH 10 0
BBX 7 9 2 1
BITMAP
3C
66
C6
C6
DC
C6
C6
66
3C
ENDCHAR
STARTCHAR 025F
ENCODING 607
SWIDTH 500 0
DWIDTH 10 0
BBX 6 13 2 -2
BITMAP
20
20
20
20
20
20
20
FC
20
20
20
20
E0
ENDCHAR
STARTCHAR 0260
ENCODING 608
SWIDTH 500 0
DWIDTH 10 0
BBX 9 17 1 -2
BITMAP
0380
0200
0200
0200
0200
3E00
6600
C200
C200
C200
C200
6600
3A00
0200
4200
6600
3C00
ENDCHAR
STARTCHAR 0261
ENCODING 609
SWIDTH 500 0
DWIDTH 10 0
BBX 7 13 2 -2
BITMAP
02
3E
66
C2
C2
C2
C2
66
3A
02
C2
46
3C
ENDCHAR
STARTCHAR 0264
ENCODING 612
SWIDTH 500 0
DWIDTH 10 0
BBX 9 9 0 1
BITMAP
E180
1200
0C00
0C00
0C00
1E00
1E00
1E00
0C00
ENDCHAR
STARTCHAR 0265
ENCODING 613
SWIDTH 500 0
DWIDTH 10 0
BBX 8 13 1 -2
BITMAP
81
81
81
81
81
81
81
81
C7
7D
01
01
01
ENDCHAR
STARTCHAR 0266
ENCODING 614
SWIDTH 500 0
DWIDTH 10 0
BBX 8 14 1 1
BITMAP
3C
42
81
80
80
BE
E3
81
81
81
81
81
81
81
ENDCHAR
STARTCHAR 0267
ENCODING 615
SWIDTH 500 0
DWIDTH 10 0
BBX 8 17 1 -2
BITMAP
3C
42
81
80
80
BE
E3
81
81
81
81
81
81
81
01
01
0F
ENDCHAR
STARTCHAR 0268
ENCODING 616
SWIDTH 500 0
DWIDTH 10 0
BBX 6 14 2 1
BITMAP
30
30
00
00
20
20
20
20
FC
20
20
20
20
20
ENDCHAR
STARTCHAR 026C
ENCODING 620
SWIDTH 500 0
DWIDTH 10 0
BBX 7 14 1 1
BITMAP
10
10
10
10
10
F0
90
70
1E
10
10
10
10
10
ENDCHAR
STARTCHAR 026D
ENCODING 621
SWIDTH 500 0
DWIDTH 10 0
BBX 5 17 4 -2
BITMAP
80
80
80
80
80
80
80
80
80
80
80
80
80
80
80
80
78
ENDCHAR
STARTCHAR 026E
ENCODING 622
SWIDTH 500 0
DWIDTH 10 0
BBX 7 17 1 -2
BITMAP
80
80
80
80
FE
86
98
B0
FC
AC
86
86
86
86
06
44
38
ENDCHAR
STARTCHAR 026F
ENCODING 623
SWIDTH 500 0
DWIDTH 10 0
BBX 8 10 1 1
BITMAP
91
91
91
91
91
91
91
91
91
FF
ENDCHAR
STARTCHAR 0270
ENCODING 624
SWIDTH 500 0
DWIDTH 10 0
BBX 8 13 1 -2
BITMAP
91
91
91
91
91
91
91
91
91
FF
01
01
01
ENDCHAR
STARTCHAR 0271
ENCODING 625
SWIDTH 500 0
DWIDTH 10 0
BBX 8 13 1 -2
BITMAP
80
FF
91
91
91
91
91
91
91
91
01
01
0F
ENDCHAR
STARTCHAR 0272
ENCODING 626
SWIDTH 500 0
DWIDTH 10 0
BBX 9 13 0 -2
BITMAP
2000
2F00
3080
2080
2080
2080
2080
2080
2080
2080
2000
2000
E000
ENDCHAR
STARTCHAR 0273
ENCODING 627
SWIDTH 500 0
DWIDTH 10 0
BBX 9 13 1 -2
BITMAP
8000
BC00
C200
8200
8200
8200
8200
8200
8200
8200
0200
0200
0380
ENDCHAR
STARTCHAR 0275
ENCODING 629
SWIDTH 500 0
DWIDTH 10 0
BBX 8 9 1 1
BITMAP
3C
42
C3
FF
C3
C3
C3
66
3C
ENDCHAR
STARTCHAR 0279
ENCODING 633
SWIDTH 500 0
DWIDTH 10 0
BBX 5 10 2 0
BITMAP
08
08
08
08
08
08
08
38
E8
C8
ENDCHAR
STARTCHAR 027A
ENCODING 634
SWIDTH 500 0
DWIDTH 10 0
BBX 5 14 2 0
BITMAP
08
08
08
08
08
08
08
08
08
08
08
18
68
C8
ENDCHAR
STARTCHAR 027B
ENCODING 635
SWIDTH 500 0
DWIDTH 10 0
BBX 8 12 2 -2
BITMAP
08
08
08
08
08
08
18
38
E8
88
08
0F
ENDCHAR
STARTCHAR 027D
ENCODING 637
SWIDTH 500 0
DWIDTH 10 0
BBX 5 12 3 -1
BITMAP
98
B0
C0
80
80
80
80
80
80
80
80
F0
ENDCHAR
STARTCHAR 027E
ENCODING 638
SWIDTH 500 0
DWIDTH 10 0
BBX 4 9 4 1
BITMAP
F0
80
80
80
80
80
80
80
80
ENDCHAR
STARTCHAR 0281
ENCODING 641
SWIDTH 500 0
DWIDTH 10 0
BBX 7 10 2 1
BITMAP
82
86
84
8C
88
FC
86
86
86
FC
ENDCHAR
STARTCHAR 0282
ENCODING 642
SWIDTH 500 0
DWIDTH 10 0
BBX 7 12 1 -2
BITMAP
7C
C6
C0
F0
3C
0E
86
C6
FC
80
80
E0
ENDCHAR
STARTCHAR 0283
ENCODING 643
SWIDTH 500 0
DWIDTH 10 0
BBX 6 17 2 -2
BITMAP
1C
20
20
20
20
20
20
20
20
20
20
20
20
20
20
20
E0
ENDCHAR
STARTCHAR 0284
ENCODING 644
SWIDTH 500 0
DWIDTH 10 0
BBX 6 17 2 -2
BITMAP
1C
20
20
20
20
20
20
20
20
20
20
FC
20
20
20
20
E0
ENDCHAR
STARTCHAR 0288
ENCODING 648
SWIDTH 500 0
DWIDTH 10 0
BBX 6 14 2 -1
BITMAP
20
20
FC
20
20
20
20
20
20
20
20
20
20
3C
ENDCHAR
STARTCHAR 0289
ENCODING 649
SWIDTH 500 0
DWIDTH 10 0
BBX 9 10 1 1
BITMAP
8100
8100
8100
8100
FF80
8100
8100
8100
C300
7D00
ENDCHAR
STARTCHAR 028A
ENCODING 650
SWIDTH 500 0
DWIDTH 10 0
BBX 8 10 1 1
BITMAP
E7
66
66
C3
C3
C3
C3
C3
66
3C
ENDCHAR
STARTCHAR 028B
ENCODING 651
SWIDTH 500 0
DWIDTH 10 0
BBX 7 10 1 2
BITMAP
8C
86
86
86
86
86
86
8C
8C
78
ENDCHAR
STARTCHAR 028C
ENCODING 652
SWIDTH 500 0
DWIDTH 10 0
BBX 8 10 1 1
BITMAP
18
18
3C
3C
24
66
66
42
C2
C3
ENDCHAR
STARTCHAR 028D
ENCODING 653
SWIDTH 500 0
DWIDTH 10 0
BBX 8 10 1 1
BITMAP
66
66
66
66
E7
BD
99
99
99
99
ENDCHAR
STARTCHAR 028E
ENCODING 654
SWIDTH 500 0
DWIDTH 10 0
BBX 8 14 1 1
BITMAP
07
0C
0C
08
18
18
18
3C
34
24
66
62
43
C3
ENDCHAR
STARTCHAR 0290
ENCODING 656
SWIDTH 500 0
DWIDTH 10 0
BBX 9 13 1 -2
BITMAP
7E00
0600
0C00
0C00
1800
3000
3000
6000
E000
FE00
0200
0200
0380
ENDCHAR
STARTCHAR 0291
ENCODING 657
SWIDTH 500 0
DWIDTH 10 0
BBX 8 12 1 -1
BITMAP
7E
06
0C
08
18
30
37
6B
CB
FE
10
20
ENDCHAR
STARTCHAR 0292
ENCODING 658
SWIDTH 500 0
DWIDTH 10 0
BBX 8 13 1 -2
BITMAP
7E
06
0C
18
7C
66
03
03
03
03
C3
66
3C
ENDCHAR
STARTCHAR 0294
ENCODING 660
SWIDTH 500 0
DWIDTH 10 0
BBX 7 14 1 1
BITMAP
78
CC
86
06
06
06
06
0E
0C
38
20
20
20
20
ENDCHAR
STARTCHAR 0295
ENCODING 661
SWIDTH 500 0
DWIDTH 10 0
BBX 7 14 1 1
BITMAP
3C
66
C2
C0
C0
C0
C0
E0
60
38
08
08
08
08
ENDCHAR
STARTCHAR 0298
ENCODING 664
SWIDTH 500 0
DWIDTH 10 0
BBX 8 9 1 1
BITMAP
3C
62
C3
99
99
99
83
42
3C
ENDCHAR
STARTCHAR 029D
ENCODING 669
SWIDTH 500 0
DWIDTH 10 0
BBX 8 17 1 -2
BITMAP
0C
0C
00
00
08
08
08
08
08
08
08
08
78
D8
CE
CF
71
ENDCHAR
STARTCHAR 02A1
ENCODING 673
SWIDTH 500 0
DWIDTH 10 0
BBX 8 14 1 1
BITMAP
7C
C6
83
03
03
03
03
06
0E
38
20
FC
20
20
ENDCHAR
STARTCHAR 02A2
ENCODING 674
SWIDTH 500 0
DWIDTH 10 0
BBX 8 14 1 1
BITMAP
3E
63
C3
C0
C0
C0
C0
E0
60
38
08
3F
08
08
ENDCHAR
STARTCHAR 02C7
ENCODING 711
SWIDTH 500 0
DWIDTH 10 0
BBX 6 2 2 13
BITMAP
CC
78
ENDCHAR
STARTCHAR 02C8
ENCODING 712
SWIDTH 500 0
DWIDTH 10 0
BBX 1 2 4 15
BITMAP
80
80
ENDCHAR
STARTCHAR 02CC
ENCODING 716
SWIDTH 500 0
DWIDTH 10 0
BBX 1 2 4 -2
BITMAP
80
80
ENDCHAR
STARTCHAR 02D0
ENCODING 720
SWIDTH 500 0
DWIDTH 10 0
BBX 2 10 4 1
BITMAP
C0
C0
80
00
00
00
00
80
C0
C0
ENDCHAR
STARTCHAR 02D1
ENCODING 721
SWIDTH 500 0
DWIDTH 10 0
BBX 2 3 4 7
BITMAP
C0
C0
80
ENDCHAR
STARTCHAR 02D8
ENCODING 728
SWIDTH 500 0
DWIDTH 10 0
BBX 6 3 2 12
BITMAP
84
CC
78
ENDCHAR
STARTCHAR 02D9
ENCODING 729
SWIDTH 500 0
DWIDTH 10 0
BBX 2 2 4 13
BITMAP
C0
C0
ENDCHAR
STARTCHAR 02DB
ENCODING 731
SWIDTH 500 0
DWIDTH 10 0
BBX 5 4 2 -1
BITMAP
20
C0
C0
F8
ENDCHAR
STARTCHAR 02DC
ENCODING 732
SWIDTH 500 0
DWIDTH 10 0
BBX 6 2 2 13
BITMAP
E0
1C
ENDCHAR
STARTCHAR 02DD
ENCODING 733
SWIDTH 500 0
DWIDTH 10 0
BBX 6 2 2 13
BITMAP
6C
98
ENDCHAR
STARTCHAR 02DE
ENCODING 734
SWIDTH 500 0
DWIDTH 10 0
BBX 6 4 2 6
BITMAP
C0
C0
24
18
ENDCHAR
STARTCHAR 02E5
ENCODING 741
SWIDTH 500 0
DWIDTH 10 0
BBX 5 20 2 -2
BITMAP
F8
08
08
08
08
08
08
08
08
08
08
08
08
08
08
08
08
08
08
08
ENDCHAR
STARTCHAR 02E6
ENCODING 742
SWIDTH 500 0
DWIDTH 10 0
BBX 5 20 2 -2
BITMAP
08
08
08
08
08
F8
08
08
08
08
08
08
08
08
08
08
08
08
08
08
ENDCHAR
STARTCHAR 02E7
ENCODING 743
SWIDTH 500 0
DWIDTH 10 0
BBX 5 20 2 -2
BITMAP
08
08
08
08
08
08
08
08
08
08
F8
08
08
08
08
08
08
08
08
08
ENDCHAR
STARTCHAR 02E8
ENCODING 744
SWIDTH 500 0
DWIDTH 10 0
BBX 5 20 2 -2
BITMAP
08
08
08
08
08
08
08
08
08
08
08
08
08
08
08
F8
08
08
08
08
ENDCHAR
STARTCHAR 02E9
ENCODING 745
SWIDTH 500 0
DWIDTH 10 0
BBX 5 20 2 -2
BITMAP
08
08
08
08
08
08
08
08
08
08
08
08
08
08
08
08
08
08
08
F8
ENDCHAR
STARTCHAR 0300
ENCODING 768
SWIDTH 500 0
DWIDTH 10 0
BBX 2 1 4 16
BITMAP
C0
ENDCHAR
STARTCHAR 0301
ENCODING 769
SWIDTH 500 0
DWIDTH 10 0
BBX 2 1 4 16
BITMAP
C0
ENDCHAR
STARTCHAR 0302
ENCODING 770
SWIDTH 500 0
DWIDTH 10 0
BBX 4 1 3 16
BITMAP
F0
ENDCHAR
STARTCHAR 0303
ENCODING 771
SWIDTH 500 0
DWIDTH 10 0
BBX 4 1 3 17
BITMAP
F0
ENDCHAR
STARTCHAR 0304
ENCODING 772
SWIDTH 500 0
DWIDTH 10 0
BBX 6 1 2 16
BITMAP
FC
ENDCHAR
STARTCHAR 0306
ENCODING 774
SWIDTH 500 0
DWIDTH 10 0
BBX 6 2 2 15
BITMAP
CC
78
ENDCHAR
STARTCHAR 0308
ENCODING 776
SWIDTH 500 0
DWIDTH 10 0
BBX 6 1 2 16
BITMAP
CC
ENDCHAR
STARTCHAR 030B
ENCODING 779
SWIDTH 500 0
DWIDTH 10 0
BBX 4 1 3 16
BITMAP
D0
ENDCHAR
STARTCHAR 030C
ENCODING 780
SWIDTH 500 0
DWIDTH 10 0
BBX 4 1 3 16
BITMAP
F0
ENDCHAR
STARTCHAR 030F
ENCODING 783
SWIDTH 500 0
DWIDTH 10 0
BBX 4 1 3 16
BITMAP
B0
ENDCHAR
STARTCHAR 0318
ENCODING 792
SWIDTH 500 0
DWIDTH 10 0
BBX 3 2 3 -2
BITMAP
E0
20
ENDCHAR
STARTCHAR 0319
ENCODING 793
SWIDTH 500 0
DWIDTH 10 0
BBX 3 2 4 -2
BITMAP
E0
80
ENDCHAR
STARTCHAR 031A
ENCODING 794
SWIDTH 500 0
DWIDTH 10 0
BBX 4 2 6 15
BITMAP
F0
10
ENDCHAR
STARTCHAR 031C
ENCODING 796
SWIDTH 500 0
DWIDTH 10 0
BBX 2 3 4 -2
BITMAP
C0
80
40
ENDCHAR
STARTCHAR 031D
ENCODING 797
SWIDTH 500 0
DWIDTH 10 0
BBX 4 2 3 -2
BITMAP
40
F0
ENDCHAR
STARTCHAR 031E
ENCODING 798
SWIDTH 500 0
DWIDTH 10 0
BBX 4 2 3 -2
BITMAP
F0
40
ENDCHAR
STARTCHAR 031F
ENCODING 799
SWIDTH 500 0
DWIDTH 10 0
BBX 4 2 3 -2
BITMAP
F0
40
ENDCHAR
STARTCHAR 0320
ENCODING 800
SWIDTH 500 0
DWIDTH 10 0
BBX 4 1 3 -1
BITMAP
F0
ENDCHAR
STARTCHAR 0324
ENCODING 804
SWIDTH 500 0
DWIDTH 10 0
BBX 6 1 2 -2
BITMAP
CC
ENDCHAR
STARTCHAR 0325
ENCODING 805
SWIDTH 500 0
DWIDTH 10 0
BBX 2 3 4 -2
BITMAP
C0
C0
C0
ENDCHAR
STARTCHAR 0329
ENCODING 809
SWIDTH 500 0
DWIDTH 10 0
BBX 1 2 4 -2
BITMAP
80
80
ENDCHAR
STARTCHAR 032A
ENCODING 810
SWIDTH 500 0
DWIDTH 10 0
BBX 4 2 3 -2
BITMAP
F0
90
ENDCHAR
STARTCHAR 032C
ENCODING 812
SWIDTH 500 0
DWIDTH 10 0
BBX 4 2 3 -2
BITMAP
90
60
ENDCHAR
STARTCHAR 032F
ENCODING 815
SWIDTH 500 0
DWIDTH 10 0
BBX 6 2 2 -2
BITMAP
78
CC
ENDCHAR
STARTCHAR 0330
ENCODING 816
SWIDTH 500 0
DWIDTH 10 0
BBX 4 2 3 -2
BITMAP
C0
30
ENDCHAR
STARTCHAR 0334
ENCODING 820
SWIDTH 500 0
DWIDTH 10 0
BBX 4 1 3 8
BITMAP
F0
ENDCHAR
STARTCHAR 0339
ENCODING 825
SWIDTH 500 0
DWIDTH 10 0
BBX 2 3 4 -2
BITMAP
C0
40
80
ENDCHAR
STARTCHAR 033A
ENCODING 826
SWIDTH 500 0
DWIDTH 10 0
BBX 4 2 3 -2
BITMAP
90
F0
ENDCHAR
STARTCHAR 033B
ENCODING 827
SWIDTH 500 0
DWIDTH 10 0
BBX 4 2 3 -2
BITMAP
F0
F0
ENDCHAR
STARTCHAR 033C
ENCODING 828
SWIDTH 500 0
DWIDTH 10 0
BBX 6 2 2 -2
BITMAP
FC
20
ENDCHAR
STARTCHAR 033D
ENCODING 829
SWIDTH 500 0
DWIDTH 10 0
BBX 4 1 3 16
BITMAP
F0
ENDCHAR
STARTCHAR 0361
ENCODING 865
SWIDTH 500 0
DWIDTH 10 0
BBX 8 2 1 15
BITMAP
7E
81
ENDCHAR
STARTCHAR 0391
ENCODING 913
SWIDTH 1000 0
DWIDTH 20 0
BBX 12 14 4 1
BITMAP
0600
0F00
0F00
1980
1980
1080
30C0
30C0
3FC0
7FE0
6060
C030
C030
C030
ENDCHAR
STARTCHAR 0392
ENCODING 914
SWIDTH 1000 0
DWIDTH 20 0
BBX 12 14 5 1
BITMAP
FF80
FFC0
C0E0
C060
C060
C0C0
FF80
FFC0
C060
C030
C030
C070
FFE0
FF80
ENDCHAR
STARTCHAR 0393
ENCODING 915
SWIDTH 1000 0
DWIDTH 20 0
BBX 11 14 5 1
BITMAP
FFE0
FFE0
C000
C000
C000
C000
C000
C000
C000
C000
C000
C000
C000
C000
ENDCHAR
STARTCHAR 0394
ENCODING 916
SWIDTH 1000 0
DWIDTH 20 0
BBX 14 14 3 1
BITMAP
0300
0780
0780
0CC0
0CC0
0840
1860
1020
3030
3030
6018
6018
7FF8
FFFC
ENDCHAR
STARTCHAR 0395
ENCODING 917
SWIDTH 1000 0
DWIDTH 20 0
BBX 10 14 5 1
BITMAP
FFC0
FFC0
C000
C000
C000
C000
FF80
FF80
C000
C000
C000
C000
FFC0
FFC0
ENDCHAR
STARTCHAR 0396
ENCODING 918
SWIDTH 1000 0
DWIDTH 20 0
BBX 12 14 4 1
BITMAP
7FE0
7FE0
00C0
00C0
0180
0300
0600
0C00
1800
3800
7000
E000
FFF0
FFF0
ENDCHAR
STARTCHAR 0397
ENCODING 919
SWIDTH 1000 0
DWIDTH 20 0
BBX 12 14 4 1
BITMAP
C030
C030
C030
C030
C030
C030
FFF0
FFF0
C030
C030
C030
C030
C030
C030
ENDCHAR
STARTCHAR 0398
ENCODING 920
SWIDTH 1000 0
DWIDTH 20 0
BBX 13 14 4 1
BITMAP
0F80
38E0
6030
6030
C018
C018
DFD8
DFD8
C018
C018
6030
6030
38E0
0F80
ENDCHAR
STARTCHAR 0399
ENCODING 921
SWIDTH 1000 0
DWIDTH 20 0
BBX 2 14 9 1
BITMAP
C0
C0
C0
C0
C0
C0
C0
C0
C0
C0
C0
C0
C0
C0
ENDCHAR
STARTCHAR 039A
ENCODING 922
SWIDTH 1000 0
DWIDTH 20 0
BBX 12 14 5 1
BITMAP
C060
C0C0
C380
C700
CE00
DC00
FC00
E600
C300
C180
C1C0
C0E0
C060
C030
ENDCHAR
STARTCHAR 039B
ENCODING 923
SWIDTH 1000 0
DWIDTH 20 0
BBX 12 14 4 1
BITMAP
0600
0F00
0F00
0900
1980
1980
30C0
30C0
30C0
6060
6060
C030
C030
C030
ENDCHAR
STARTCHAR 039C
ENCODING 924
SWIDTH 1000 0
DWIDTH 20 0
BBX 14 14 3 1
BITMAP
E01C
E01C
F03C
D02C
D02C
D86C
C84C
C84C
CCCC
C48C
C48C
C78C
C30C
C30C
ENDCHAR
STARTCHAR 039D
ENCODING 925
SWIDTH 1000 0
DWIDTH 20 0
BBX 12 14 4 1
BITMAP
E030
F030
D030
D830
CC30
CC30
C630
C230
C330
C1B0
C0B0
C0F0
C070
C070
ENDCHAR
STARTCHAR 039E
ENCODING 926
SWIDTH 1000 0
DWIDTH 20 0
BBX 12 14 4 1
BITMAP
7FE0
7FE0
0000
0000
0000
0000
7FE0
7FE0
0000
0000
0000
0000
FFF0
FFF0
ENDCHAR
STARTCHAR 039F
ENCODING 927
SWIDTH 1000 0
DWIDTH 20 0
BBX 13 14 4 1
BITMAP
0F80
38E0
6030
6030
C018
C018
C018
C018
C018
C018
6030
6030
38E0
0F80
ENDCHAR
STARTCHAR 03A0
ENCODING 928
SWIDTH 1000 0
DWIDTH 20 0
BBX 12 14 4 1
BITMAP
FFF0
FFF0
C030
C030
C030
C030
C030
C030
C030
C030
C030
C030
C030
C030
ENDCHAR
STARTCHAR 03A1
ENCODING 929
SWIDTH 1000 0
DWIDTH 20 0
BBX 11 14 5 1
BITMAP
FF80
FFC0
C0E0
C060
C060
C0E0
FFC0
FF80
C000
C000
C000
C000
C000
C000
ENDCHAR
STARTCHAR 03A3
ENCODING 931
SWIDTH 1000 0
DWIDTH 20 0
BBX 12 14 4 1
BITMAP
FFF0
FFF0
6000
3000
1800
0E00
0300
0600
0C00
1800
3000
6000
FFF0
FFF0
ENDCHAR
STARTCHAR 03A4
ENCODING 932
SWIDTH 1000 0
DWIDTH 20 0
BBX 12 14 4 1
BITMAP
FFF0
FFF0
0600
0600
0600
0600
0600
0600
0600
0600
0600
0600
0600
0600
ENDCHAR
STARTCHAR 03A5
ENCODING 933
SWIDTH 1000 0
DWIDTH 20 0
BBX 12 14 4 1
BITMAP
C030
E070
6060
30C0
39C0
1980
0F00
0600
0600
0600
0600
0600
0600
0600
ENDCHAR
STARTCHAR 03A6
ENCODING 934
SWIDTH 1000 0
DWIDTH 20 0
BBX 14 14 3 1
BITMAP
0300
0300
1FE0
3B70
6318
C30C
C30C
C30C
C30C
6318
3B70
1FE0
0300
0300
ENDCHAR
STARTCHAR 03A7
ENCODING 935
SWIDTH 1000 0
DWIDTH 20 0
BBX 13 14 3 1
BITMAP
7038
3030
1860
0CC0
0CC0
0780
0300
0780
0F80
0CC0
1860
3030
7038
E018
ENDCHAR
STARTCHAR 03A8
ENCODING 936
SWIDTH 1000 0
DWIDTH 20 0
BBX 12 14 4 1
BITMAP
C630
C630
C630
C630
C630
C630
C630
C630
6660
3FC0
0F00
0600
0600
0600
ENDCHAR
STARTCHAR 03A9
ENCODING 937
SWIDTH 1000 0
DWIDTH 20 0
BBX 14 14 3 1
BITMAP
0FC0
3870
6018
6018
C00C
C00C
C00C
C00C
6018
7038
3870
0CC0
FCFC
FCFC
ENDCHAR
STARTCHAR 03B1
ENCODING 945
SWIDTH 1000 0
DWIDTH 20 0
BBX 12 10 4 2
BITMAP
0E30
3B60
3160
61C0
C1C0
C180
C100
C3B0
C5B0
78E0
ENDCHAR
STARTCHAR 03B2
ENCODING 946
SWIDTH 1000 0
DWIDTH 20 0
BBX 11 17 4 -2
BITMAP
0380
0CC0
0860
1060
1060
3060
2FC0
2700
6180
60C0
40C0
60C0
7180
CF00
C000
C000
C000
ENDCHAR
STARTCHAR 03B3
ENCODING 947
SWIDTH 1000 0
DWIDTH 20 0
BBX 12 13 4 -2
BITMAP
3800
6C30
C460
04C0
0580
0700
0600
0600
0400
0C00
0C00
0C00
0800
ENDCHAR
STARTCHAR 03B4
ENCODING 948
SWIDTH 1000 0
DWIDTH 20 0
BBX 10 14 5 1
BITMAP
1E00
3380
30C0
3840
1E00
0700
1F00
7180
6180
C180
C180
C300
6600
3C00
ENDCHAR
STARTCHAR 03B5
ENCODING 949
SWIDTH 1000 0
DWIDTH 20 0
BBX 9 10 5 1
BITMAP
1E00
6180
6080
6000
3E00
7E00
C000
C000
C380
7E00
ENDCHAR
STARTCHAR 03B6
ENCODING 950
SWIDTH 1000 0
DWIDTH 20 0
BBX 10 17 6 -2
BITMAP
21C0
63C0
4700
7E00
1800
3000
2000
6000
6000
C000
C000
E000
7C00
0600
0600
4600
3C00
ENDCHAR
STARTCHAR 03B7
ENCODING 951
SWIDTH 1000 0
DWIDTH 20 0
BBX 11 13 4 -2
BITMAP
31C0
4A60
CC60
0860
1860
1840
10C0
30C0
30C0
20C0
0080
0180
0180
ENDCHAR
STARTCHAR 03B8
ENCODING 952
SWIDTH 1000 0
DWIDTH 20 0
BBX 10 14 5 1
BITMAP
0F00
1180
30C0
60C0
60C0
40C0
FFC0
FFC0
C080
C080
C180
C100
6200
3C00
ENDCHAR
STARTCHAR 03B9
ENCODING 953
SWIDTH 1000 0
DWIDTH 20 0
BBX 7 10 6 1
BITMAP
18
30
30
60
60
60
C0
C6
CC
78
ENDCHAR
STARTCHAR 03BA
ENCODING 954
SWIDTH 1000 0
DWIDTH 20 0
BBX 10 10 5 2
BITMAP
30C0
33C0
3700
3C00
7800
6C00
6400
4440
C4C0
C700
ENDCHAR
STARTCHAR 03BB
ENCODING 955
SWIDTH 1000 0
DWIDTH 20 0
BBX 11 14 4 1
BITMAP
0E00
3300
2100
0100
0100
0300
0300
0780
0D80
1980
1880
30C0
60C0
C060
ENDCHAR
STARTCHAR 03BC
ENCODING 956
SWIDTH 1000 0
DWIDTH 20 0
BBX 13 13 4 -2
BITMAP
1060
3040
30C0
20C0
20C0
2080
6180
6188
5390
5E60
C000
C000
C000
ENDCHAR
STARTCHAR 03BD
ENCODING 957
SWIDTH 1000 0
DWIDTH 20 0
BBX 9 10 6 1
BITMAP
C180
C180
6180
6100
6300
6300
6600
4C00
F800
E000
ENDCHAR
STARTCHAR 03BE
ENCODING 958
SWIDTH 1000 0
DWIDTH 20 0
BBX 9 17 5 -2
BITMAP
1B80
0F80
1800
3000
3000
3000
1F80
3B80
6000
C000
C000
F000
7F00
0780
0180
6180
3F00
ENDCHAR
STARTCHAR 03BF
ENCODING 959
SWIDTH 1000 0
DWIDTH 20 0
BBX 10 10 5 1
BITMAP
0E00
3180
60C0
60C0
C0C0
C0C0
C1C0
C180
6300
3E00
ENDCHAR
STARTCHAR 03C0
ENCODING 960
SWIDTH 1000 0
DWIDTH 20 0
BBX 11 11 5 1
BITMAP
0020
7FE0
FFC0
9300
3300
2200
2600
6600
4620
C640
C380
ENDCHAR
STARTCHAR 03C1
ENCODING 961
SWIDTH 1000 0
DWIDTH 20 0
BBX 11 13 4 -1
BITMAP
0780
0CC0
1860
3060
2060
2060
6060
60C0
7180
4F00
4000
4000
C000
ENDCHAR
STARTCHAR 03C2
ENCODING 962
SWIDTH 500 0
DWIDTH 10 0
BBX 8 12 1 -2
BITMAP
1C
32
63
60
60
70
38
18
1C
0C
CC
78
ENDCHAR
STARTCHAR 03C3
ENCODING 963
SWIDTH 1000 0
DWIDTH 20 0
BBX 11 10 5 1
BITMAP
0FE0
3FE0
7180
60C0
C0C0
C0C0
C0C0
C180
6300
3E00
ENDCHAR
STARTCHAR 03C4
ENCODING 964
SWIDTH 1000 0
DWIDTH 20 0
BBX 10 10 5 2
BITMAP
7FC0
FE00
0C00
1800
1800
3000
3000
3100
3300
1E00
ENDCHAR
STARTCHAR 03C5
ENCODING 965
SWIDTH 1000 0
DWIDTH 20 0
BBX 11 10 4 1
BITMAP
3840
58C0
9860
3860
3060
7060
6040
60C0
6180
1E00
ENDCHAR
STARTCHAR 03C6
ENCODING 966
SWIDTH 1000 0
DWIDTH 20 0
BBX 12 16 4 -2
BITMAP
0180
0100
0100
0700
3FC0
6260
E230
C630
C630
C430
E460
7DC0
1F80
0800
1800
1800
ENDCHAR
STARTCHAR 03C7
ENCODING 967
SWIDTH 1000 0
DWIDTH 20 0
BBX 11 13 4 -1
BITMAP
3860
6CC0
0580
0580
0700
0600
0600
0E00
1A00
1200
3220
6360
C180
ENDCHAR
STARTCHAR 03C8
ENCODING 968
SWIDTH 1000 0
DWIDTH 20 0
BBX 12 16 4 -2
BITMAP
0180
0100
0100
1300
3B60
6260
C630
C630
C630
C430
EC60
7DC0
1F00
0800
1800
1800
ENDCHAR
STARTCHAR 03C9
ENCODING 969
SWIDTH 1000 0
DWIDTH 20 0
BBX 13 10 3 1
BITMAP
0810
1830
3018
6118
E318
C318
C218
C310
C530
79E0
ENDCHAR
STARTCHAR 0401
ENCODING 1025
SWIDTH 1000 0
DWIDTH 20 0
BBX 10 16 5 1
BITMAP
3300
3300
FFC0
FFC0
C000
C000
C000
C000
FF80
FF80
C000
C000
C000
C000
FFC0
FFC0
ENDCHAR
STARTCHAR 0410
ENCODING 1040
SWIDTH 1000 0
DWIDTH 20 0
BBX 12 14 4 1
BITMAP
0600
0F00
0F00
1980
1980
1080
30C0
30C0
3FC0
7FE0
6060
C030
C030
C030
ENDCHAR
STARTCHAR 0411
ENCODING 1041
SWIDTH 1000 0
DWIDTH 20 0
BBX 11 14 5 1
BITMAP
FFC0
FFC0
C000
C000
C000
C000
FF80
FFC0
C0E0
C060
C060
C0E0
FFC0
FF80
ENDCHAR
STARTCHAR 0412
ENCODING 1042
SWIDTH 1000 0
DWIDTH 20 0
BBX 12 14 5 1
BITMAP
FF80
FFC0
C0E0
C060
C060
C0C0
FF80
FFC0
C060
C030
C030
C070
FFE0
FF80
ENDCHAR
STARTCHAR 0413
ENCODING 1043
SWIDTH 1000 0
DWIDTH 20 0
BBX 11 14 5 1
BITMAP
FFE0
FFE0
C000
C000
C000
C000
C000
C000
C000
C000
C000
C000
C000
C000
ENDCHAR
STARTCHAR 0414
ENCODING 1044
SWIDTH 1000 0
DWIDTH 20 0
BBX 14 16 3 -1
BITMAP
0FF0
0FF0
0C30
0C30
0C30
0830
0830
1830
1830
1830
3030
3030
FFFC
FFFC
C00C
C00C
ENDCHAR
STARTCHAR 0415
ENCODING 1045
SWIDTH 1000 0
DWIDTH 20 0
BBX 10 14 5 1
BITMAP
FFC0
FFC0
C000
C000
C000
C000
FF80
FF80
C000
C000
C000
C000
FFC0
FFC0
ENDCHAR
STARTCHAR 0416
ENCODING 1046
SWIDTH 1000 0
DWIDTH 20 0
BBX 16 14 2 1
BITMAP
6186
6186
6186
2184
318C
1DB8
0FF0
0990
1998
318C
318C
6186
6186
C183
ENDCHAR
STARTCHAR 0417
ENCODING 1047
SWIDTH 1000 0
DWIDTH 20 0
BBX 11 14 5 1
BITMAP
1F00
6180
C0C0
00C0
00C0
01C0
0F80
0F80
00C0
0060
0060
C060
E0C0
3F00
ENDCHAR
STARTCHAR 0418
ENCODING 1048
SWIDTH 1000 0
DWIDTH 20 0
BBX 12 14 4 1
BITMAP
C030
C030
C070
C0F0
C1F0
C3B0
C730
CE30
DC30
F830
F030
E030
C030
C030
ENDCHAR
STARTCHAR 0419
ENCODING 1049
SWIDTH 1000 0
DWIDTH 20 0
BBX 12 16 4 1
BITMAP
1080
0F00
C030
C030
C030
C070
C0F0
C3B0
C730
CE30
DC30
F830
F030
E030
C030
C030
ENDCHAR
STARTCHAR 041A
ENCODING 1050
SWIDTH 1000 0
DWIDTH 20 0
BBX 12 14 5 1
BITMAP
C060
C060
C040
C0C0
C180
C700
FE00
C300
C300
C180
C0C0
C0E0
C060
C030
ENDCHAR
STARTCHAR 041B
ENCODING 1051
SWIDTH 1000 0
DWIDTH 20 0
BBX 12 14 3 1
BITMAP
07F0
07F0
0630
0630
0630
0630
0630
0630
0630
0630
0C30
8C30
C830
7030
ENDCHAR
STARTCHAR 041C
ENCODING 1052
SWIDTH 1000 0
DWIDTH 20 0
BBX 14 14 3 1
BITMAP
E01C
E01C
F03C
D02C
D02C
D86C
C84C
C84C
CCCC
C48C
C48C
C78C
C30C
C30C
ENDCHAR
STARTCHAR 041D
ENCODING 1053
SWIDTH 1000 0
DWIDTH 20 0
BBX 12 14 4 1
BITMAP
C030
C030
C030
C030
C030
C030
FFF0
FFF0
C030
C030
C030
C030
C030
C030
ENDCHAR
STARTCHAR 041E
ENCODING 1054
SWIDTH 1000 0
DWIDTH 20 0
BBX 13 14 4 1
BITMAP
0F80
38E0
6030
6030
C018
C018
C018
C018
C018
C018
6030
6030
38E0
0F80
ENDCHAR
STARTCHAR 041F
ENCODING 1055
SWIDTH 1000 0
DWIDTH 20 0
BBX 12 14 4 1
BITMAP
FFF0
FFF0
C030
C030
C030
C030
C030
C030
C030
C030
C030
C030
C030
C030
ENDCHAR
STARTCHAR 0420
ENCODING 1056
SWIDTH 1000 0
DWIDTH 20 0
BBX 11 14 5 1
BITMAP
FF80
FFC0
C0E0
C060
C060
C0E0
FFC0
FF80
C000
C000
C000
C000
C000
C000
ENDCHAR
STARTCHAR 0421
ENCODING 1057
SWIDTH 1000 0
DWIDTH 20 0
BBX 13 14 3 1
BITMAP
0FC0
3860
3030
6018
C000
C000
C000
C000
C000
C018
6018
6030
3860
0FC0
ENDCHAR
STARTCHAR 0422
ENCODING 1058
SWIDTH 1000 0
DWIDTH 20 0
BBX 12 14 4 1
BITMAP
FFF0
FFF0
0600
0600
0600
0600
0600
0600
0600
0600
0600
0600
0600
0600
ENDCHAR
STARTCHAR 0423
ENCODING 1059
SWIDTH 1000 0
DWIDTH 20 0
BBX 11 14 5 1
BITMAP
C060
C060
60C0
60C0
3080
1180
1980
0B00
0F00
0600
0600
0C00
FC00
F800
ENDCHAR
STARTCHAR 0424
ENCODING 1060
SWIDTH 1000 0
DWIDTH 20 0
BBX 14 14 3 1
BITMAP
0300
0300
1FE0
3B70
6318
C30C
C30C
C30C
C30C
6318
3FF0
1FE0
0300
0300
ENDCHAR
STARTCHAR 0425
ENCODING 1061
SWIDTH 1000 0
DWIDTH 20 0
BBX 13 14 3 1
BITMAP
7038
3030
1860
0CC0
0CC0
0780
0300
0780
0F80
0CC0
1860
3030
7038
E018
ENDCHAR
STARTCHAR 0426
ENCODING 1062
SWIDTH 1000 0
DWIDTH 20 0
BBX 13 16 4 -1
BITMAP
C060
C060
C060
C060
C060
C060
C060
C060
C060
C060
C060
C060
FFF8
FFF8
0018
0018
ENDCHAR
STARTCHAR 0427
ENCODING 1063
SWIDTH 1000 0
DWIDTH 20 0
BBX 10 14 5 1
BITMAP
C0C0
C0C0
C0C0
C0C0
C0C0
C0C0
C0C0
E3C0
3EC0
00C0
00C0
00C0
00C0
00C0
ENDCHAR
STARTCHAR 0428
ENCODING 1064
SWIDTH 1000 0
DWIDTH 20 0
BBX 14 14 3 1
BITMAP
C30C
C30C
C30C
C30C
C30C
C30C
C30C
C30C
C30C
C30C
C30C
C30C
FFFC
FFFC
ENDCHAR
STARTCHAR 0429
ENCODING 1065
SWIDTH 1000 0
DWIDTH 20 0
BBX 15 16 3 -1
BITMAP
C30C
C30C
C30C
C30C
C30C
C30C
C30C
C30C
C30C
C30C
C30C
C30C
FFFE
FFFE
0006
0006
ENDCHAR
STARTCHAR 042A
ENCODING 1066
SWIDTH 1000 0
DWIDTH 20 0
BBX 14 14 3 1
BITMAP
F800
F800
1800
1800
1800
1800
1FF0
1FF8
181C
180C
180C
181C
1FF8
1FE0
ENDCHAR
STARTCHAR 042B
ENCODING 1067
SWIDTH 1000 0
DWIDTH 20 0
BBX 14 14 3 1
BITMAP
C00C
C00C
C00C
C00C
C00C
C00C
FF0C
FF8C
C1CC
C0CC
C0CC
C1CC
FF8C
FF0C
ENDCHAR
STARTCHAR 042C
ENCODING 1068
SWIDTH 1000 0
DWIDTH 20 0
BBX 12 14 5 1
BITMAP
C000
C000
C000
C000
C000
C000
FF80
FFE0
C070
C030
C030
C070
FFE0
FF80
ENDCHAR
STARTCHAR 042D
ENCODING 1069
SWIDTH 1000 0
DWIDTH 20 0
BBX 12 14 4 1
BITMAP
1F00
30C0
6060
C060
0030
0030
3C30
27B0
0030
0030
C060
6060
30C0
1F00
ENDCHAR
STARTCHAR 042E
ENCODING 1070
SWIDTH 1000 0
DWIDTH 20 0
BBX 15 14 3 1
BITMAP
C1F0
C318
C60C
C60C
CC06
CC06
FC06
FC06
CC06
CC06
C604
C60C
C318
C1F0
ENDCHAR
STARTCHAR 042F
ENCODING 1071
SWIDTH 1000 0
DWIDTH 20 0
BBX 11 14 4 1
BITMAP
3FE0
7FE0
E060
C060
C060
E060
7FE0
1FE0
0C60
1860
3060
3060
6060
C060
ENDCHAR
STARTCHAR 0430
ENCODING 1072
SWIDTH 1000 0
DWIDTH 20 0
BBX 10 10 5 2
BITMAP
3E00
6300
C180
0180
3F80
6180
C180
C180
C780
79C0
ENDCHAR
STARTCHAR 0431
ENCODING 1073
SWIDTH 1000 0
DWIDTH 20 0
BBX 10 14 5 1
BITMAP
0180
0F00
3C00
7000
6000
DF00
E180
C0C0
C0C0
C0C0
C0C0
6180
6180
1E00
ENDCHAR
STARTCHAR 0432
ENCODING 1074
SWIDTH 1000 0
DWIDTH 20 0
BBX 8 10 6 1
BITMAP
FE
FF
C3
C3
FE
FE
C3
C3
FF
FE
ENDCHAR
STARTCHAR 0433
ENCODING 1075
SWIDTH 1000 0
DWIDTH 20 0
BBX 8 10 6 1
BITMAP
FF
FF
C0
C0
C0
C0
C0
C0
C0
C0
ENDCHAR
STARTCHAR 0434
ENCODING 1076
SWIDTH 1000 0
DWIDTH 20 0
BBX 11 12 4 -1
BITMAP
0FC0
0FC0
08C0
08C0
18C0
18C0
10C0
30C0
FFE0
FFE0
C060
C060
ENDCHAR
STARTCHAR 0435
ENCODING 1077
SWIDTH 1000 0
DWIDTH 20 0
BBX 10 9 5 2
BITMAP
3F00
4080
C080
FFC0
FFC0
C000
C0C0
6180
1F00
ENDCHAR
STARTCHAR 0436
ENCODING 1078
SWIDTH 1000 0
DWIDTH 20 0
BBX 12 10 4 1
BITMAP
C630
C630
6660
76E0
3FC0
36C0
6660
6660
C630
C630
ENDCHAR
STARTCHAR 0437
ENCODING 1079
SWIDTH 1000 0
DWIDTH 20 0
BBX 9 10 5 1
BITMAP
1C00
6200
C300
0300
1E00
1F00
0180
0180
E180
3E00
ENDCHAR
STARTCHAR 0438
ENCODING 1080
SWIDTH 1000 0
DWIDTH 20 0
BBX 8 10 6 1
BITMAP
C3
C3
C7
CF
DB
D3
F3
E3
C3
C3
ENDCHAR
STARTCHAR 0439
ENCODING 1081
SWIDTH 1000 0
DWIDTH 20 0
BBX 8 13 6 1
BITMAP
66
3C
00
C3
C3
C7
CF
DB
D3
F3
E3
C3
C3
ENDCHAR
STARTCHAR 043A
ENCODING 1082
SWIDTH 1000 0
DWIDTH 20 0
BBX 9 10 6 1
BITMAP
C100
C300
C300
C600
FC00
FC00
C600
C300
C180
C180
ENDCHAR
STARTCHAR 043B
ENCODING 1083
SWIDTH 1000 0
DWIDTH 20 0
BBX 10 10 4 1
BITMAP
0FC0
0FC0
08C0
08C0
08C0
08C0
08C0
88C0
D8C0
70C0
ENDCHAR
STARTCHAR 043C
ENCODING 1084
SWIDTH 1000 0
DWIDTH 20 0
BBX 10 10 5 1
BITMAP
E1C0
E1C0
F3C0
D2C0
D2C0
D2C0
DEC0
CCC0
CCC0
CCC0
ENDCHAR
STARTCHAR 043D
ENCODING 1085
SWIDTH 1000 0
DWIDTH 20 0
BBX 8 10 6 1
BITMAP
C3
C3
C3
C3
FF
FF
C3
C3
C3
C3
ENDCHAR
STARTCHAR 043E
ENCODING 1086
SWIDTH 1000 0
DWIDTH 20 0
BBX 10 10 5 1
BITMAP
1E00
3300
6180
C0C0
C0C0
C0C0
C0C0
E1C0
6180
3E00
ENDCHAR
STARTCHAR 043F
ENCODING 1087
SWIDTH 1000 0
DWIDTH 20 0
BBX 8 10 6 1
BITMAP
FF
FF
C3
C3
C3
C3
C3
C3
C3
C3
ENDCHAR
STARTCHAR 0440
ENCODING 1088
SWIDTH 1000 0
DWIDTH 20 0
BBX 10 13 6 -1
BITMAP
DF00
F180
E1C0
C0C0
C0C0
C0C0
C0C0
E180
E180
DF00
C000
C000
C000
ENDCHAR
STARTCHAR 0441
ENCODING 1089
SWIDTH 1000 0
DWIDTH 20 0
BBX 10 10 5 2
BITMAP
3F00
7180
6080
C000
C000
C000
C000
60C0
7180
1E00
ENDCHAR
STARTCHAR 0442
ENCODING 1090
SWIDTH 1000 0
DWIDTH 20 0
BBX 8 10 6 1
BITMAP
FF
FF
18
18
18
18
18
18
18
18
ENDCHAR
STARTCHAR 0443
ENCODING 1091
SWIDTH 1000 0
DWIDTH 20 0
BBX 10 13 5 -2
BITMAP
C0C0
C180
6180
6100
3300
3200
1600
1E00
0C00
0C00
1800
F800
F000
ENDCHAR
STARTCHAR 0444
ENCODING 1092
SWIDTH 1000 0
DWIDTH 20 0
BBX 14 17 3 -2
BITMAP
0300
0300
0300
0300
3B70
6798
C30C
C30C
C30C
C30C
C30C
C30C
6798
3B70
0300
0300
0300
ENDCHAR
STARTCHAR 0445
ENCODING 1093
SWIDTH 1000 0
DWIDTH 20 0
BBX 10 10 5 1
BITMAP
E1C0
6180
3300
1E00
0C00
1E00
3F00
7380
6180
C0C0
ENDCHAR
STARTCHAR 0446
ENCODING 1094
SWIDTH 1000 0
DWIDTH 20 0
BBX 10 12 6 -1
BITMAP
C300
C300
C300
C300
C300
C300
C300
C300
FFC0
FFC0
00C0
00C0
ENDCHAR
STARTCHAR 0447
ENCODING 1095
SWIDTH 1000 0
DWIDTH 20 0
BBX 9 10 5 1
BITMAP
C180
C180
C180
C180
C380
E780
7980
0180
0180
0180
ENDCHAR
STARTCHAR 0448
ENCODING 1096
SWIDTH 1000 0
DWIDTH 20 0
BBX 12 10 4 1
BITMAP
C630
C630
C630
C630
C630
C630
C630
C630
FFF0
FFF0
ENDCHAR
STARTCHAR 0449
ENCODING 1097
SWIDTH 1000 0
DWIDTH 20 0
BBX 14 12 4 -1
BITMAP
C630
C630
C630
C630
C630
C630
C630
C630
FFFC
FFFC
000C
000C
ENDCHAR
STARTCHAR 044A
ENCODING 1098
SWIDTH 1000 0
DWIDTH 20 0
BBX 12 10 4 1
BITMAP
F800
F800
1800
1FC0
1FE0
1830
1830
1830
1FE0
1FC0
ENDCHAR
STARTCHAR 044B
ENCODING 1099
SWIDTH 1000 0
DWIDTH 20 0
BBX 12 10 4 1
BITMAP
C030
C030
C030
FE30
FF30
C1B0
C1B0
C1B0
FF30
FE30
ENDCHAR
STARTCHAR 044C
ENCODING 1100
SWIDTH 1000 0
DWIDTH 20 0
BBX 9 10 6 1
BITMAP
C000
C000
C000
FE00
FF00
C180
C180
C180
FF00
FE00
ENDCHAR
STARTCHAR 044D
ENCODING 1101
SWIDTH 1000 0
DWIDTH 20 0
BBX 10 10 5 2
BITMAP
3E00
6380
C180
00C0
30C0
0EC0
00C0
C180
6380
3E00
ENDCHAR
STARTCHAR 044E
ENCODING 1102
SWIDTH 1000 0
DWIDTH 20 0
BBX 14 10 4 2
BITMAP
C1E0
C738
C618
CC0C
FC0C
FC0C
CC0C
CE18
C618
C1E0
ENDCHAR
STARTCHAR 044F
ENCODING 1103
SWIDTH 1000 0
DWIDTH 20 0
BBX 9 10 5 1
BITMAP
3F80
7F80
6180
6180
7F80
3F80
3180
3180
6180
C180
ENDCHAR
STARTCHAR 0451
ENCODING 1105
SWIDTH 1000 0
DWIDTH 20 0
BBX 10 13 5 1
BITMAP
3300
3300
0000
0000
3E00
6100
C080
FF80
FFC0
C000
C080
6180
3E00
ENDCHAR
STARTCHAR 1E3E
ENCODING 7742
SWIDTH 500 0
DWIDTH 10 0
BBX 8 16 1 1
BITMAP
18
00
C3
C3
C3
C3
E7
E7
A5
A5
A5
BD
BD
99
99
99
ENDCHAR
STARTCHAR 1E3F
ENCODING 7743
SWIDTH 500 0
DWIDTH 10 0
BBX 8 13 1 1
BITMAP
18
10
00
80
FF
91
91
91
91
91
91
91
91
ENDCHAR
STARTCHAR 1F70
ENCODING 8048
SWIDTH 500 0
DWIDTH 10 0
BBX 8 13 2 0
BITMAP
30
18
00
02
3E
66
C2
C2
C2
C2
C2
66
3F
ENDCHAR
STARTCHAR 1F71
ENCODING 8049
SWIDTH 500 0
DWIDTH 10 0
BBX 8 13 2 0
BITMAP
0C
18
00
02
3E
66
C2
C2
C2
C2
C2
66
3F
ENDCHAR
STARTCHAR 1F72
ENCODING 8050
SWIDTH 500 0
DWIDTH 10 0
BBX 7 13 1 1
BITMAP
30
18
00
00
7C
C6
C0
38
C0
C0
C0
C6
7C
ENDCHAR
STARTCHAR 1F73
ENCODING 8051
SWIDTH 500 0
DWIDTH 10 0
BBX 7 13 1 1
BITMAP
0C
10
00
00
7C
C6
C0
38
C0
C0
C0
C6
7C
ENDCHAR
STARTCHAR 2010
ENCODING 8208
SWIDTH 1000 0
DWIDTH 20 0
BBX 6 1 7 7
BITMAP
FC
ENDCHAR
STARTCHAR 2013
ENCODING 8211
SWIDTH 500 0
DWIDTH 10 0
BBX 4 1 3 7
BITMAP
F0
ENDCHAR
STARTCHAR 2014
ENCODING 8212
SWIDTH 1000 0
DWIDTH 20 0
BBX 16 1 2 7
BITMAP
FFFF
ENDCHAR
STARTCHAR 2015
ENCODING 8213
SWIDTH 1000 0
DWIDTH 20 0
BBX 16 1 2 7
BITMAP
FFFF
ENDCHAR
STARTCHAR 2016
ENCODING 8214
SWIDTH 1000 0
DWIDTH 20 0
BBX 6 20 7 -2
BITMAP
CC
CC
CC
CC
CC
CC
CC
CC
CC
CC
CC
CC
CC
CC
CC
CC
CC
CC
CC
CC
ENDCHAR
STARTCHAR 2018
ENCODING 8216
SWIDTH 1000 0
DWIDTH 20 0
BBX 3 5 16 12
BITMAP
20
40
C0
E0
E0
ENDCHAR
STARTCHAR 2019
ENCODING 8217
SWIDTH 1000 0
DWIDTH 20 0
BBX 3 6 2 11
BITMAP
E0
E0
60
60
40
80
ENDCHAR
STARTCHAR 201C
ENCODING 8220
SWIDTH 1000 0
DWIDTH 20 0
BBX 6 5 12 12
BITMAP
24
48
D8
FC
FC
ENDCHAR
STARTCHAR 201D
ENCODING 8221
SWIDTH 1000 0
DWIDTH 20 0
BBX 6 6 2 11
BITMAP
FC
FC
6C
6C
48
90
ENDCHAR
STARTCHAR 2020
ENCODING 8224
SWIDTH 1000 0
DWIDTH 20 0
BBX 9 18 5 -1
BITMAP
1C00
1C00
1C00
0800
FF80
EB80
0800
1C00
1C00
0800
0800
0800
0800
0800
0800
0800
0800
0800
ENDCHAR
STARTCHAR 2021
ENCODING 8225
SWIDTH 1000 0
DWIDTH 20 0
BBX 8 19 6 -2
BITMAP
18
18
18
F7
FF
18
18
18
10
10
10
18
18
18
FF
F7
18
18
18
ENDCHAR
STARTCHAR 2022
ENCODING 8226
SWIDTH 500 0
DWIDTH 10 0
BBX 4 4 3 5
BITMAP
60
F0
F0
60
ENDCHAR
STARTCHAR 2025
ENCODING 8229
SWIDTH 1000 0
DWIDTH 20 0
BBX 12 2 4 7
BITMAP
C030
C030
ENDCHAR
STARTCHAR 2026
ENCODING 8230
SWIDTH 1000 0
DWIDTH 20 0
BBX 16 2 2 7
BITMAP
C183
C183
ENDCHAR
STARTCHAR 2030
ENCODING 8240
SWIDTH 1000 0
DWIDTH 20 0
BBX 18 18 1 -1
BITMAP
003000
702000
D86000
884000
888000
898000
890000
DB0000
720000
04E380
0DB6C0
091440
191440
111440
211440
61B6C0
40E380
800000
ENDCHAR
STARTCHAR 2032
ENCODING 8242
SWIDTH 1000 0
DWIDTH 20 0
BBX 3 6 1 11
BITMAP
60
40
40
40
40
80
ENDCHAR
STARTCHAR 2033
ENCODING 8243
SWIDTH 1000 0
DWIDTH 20 0
BBX 6 6 1 11
BITMAP
6C
4C
48
48
48
88
ENDCHAR
STARTCHAR 203B
ENCODING 8251
SWIDTH 1000 0
DWIDTH 20 0
BBX 16 16 2 -1
BITMAP
81C1
C1C3
61C6
300C
1818
0C30
0660
E3C7
E187
E3C7
0660
0C30
1818
31CC
61C6
C1C3
ENDCHAR
STARTCHAR 203C
ENCODING 8252
SWIDTH 500 0
DWIDTH 10 0
BBX 6 16 2 0
BITMAP
CC
CC
CC
CC
CC
CC
CC
CC
CC
CC
CC
CC
00
00
CC
CC
ENDCHAR
STARTCHAR 203E
ENCODING 8254
SWIDTH 1000 0
DWIDTH 20 0
BBX 20 1 0 17
BITMAP
FFFFF0
ENDCHAR
STARTCHAR 203F
ENCODING 8255
SWIDTH 500 0
DWIDTH 10 0
BBX 8 2 1 -1
BITMAP
81
7E
ENDCHAR
STARTCHAR 2042
ENCODING 8258
SWIDTH 500 0
DWIDTH 10 0
BBX 10 13 0 1
BITMAP
0400
1600
0C00
0C00
1600
0400
0000
2100
AD40
7380
7380
AD40
2100
ENDCHAR
STARTCHAR 2047
ENCODING 8263
SWIDTH 500 0
DWIDTH 10 0
BBX 10 16 0 0
BITMAP
7380
5AC0
9EC0
9EC0
18C0
30C0
3180
2180
6100
4100
4100
4100
0000
0000
6300
6300
ENDCHAR
STARTCHAR 2048
ENCODING 8264
SWIDTH 500 0
DWIDTH 10 0
BBX 8 16 1 0
BITMAP
73
DB
9B
9B
1B
1B
33
33
63
63
63
63
00
00
63
63
ENDCHAR
STARTCHAR 2049
ENCODING 8265
SWIDTH 500 0
DWIDTH 10 0
BBX 8 16 1 0
BITMAP
CE
DB
D3
D3
C3
C3
C6
C6
CC
CC
CC
CC
00
00
CC
CC
ENDCHAR
STARTCHAR 2051
ENCODING 8273
SWIDTH 1000 0
DWIDTH 20 0
BBX 6 15 7 0
BITMAP
30
B4
78
78
B4
30
00
00
30
30
FC
30
68
B4
30
ENDCHAR
STARTCHAR 20AC
ENCODING 8364
SWIDTH 500 0
DWIDTH 10 0
BBX 8 14 1 1
BITMAP
1C
22
63
63
40
FC
40
40
FC
40
63
63
22
1C
ENDCHAR
STARTCHAR 2103
ENCODING 8451
SWIDTH 1000 0
DWIDTH 20 0
BBX 17 16 1 1
BITMAP
700000
88F800
898E00
8B0200
760300
060300
0C0000
0C0000
0C0000
0C0000
0C0000
0C0180
060300
060300
030600
00F800
ENDCHAR
STARTCHAR 210F
ENCODING 8463
SWIDTH 500 0
DWIDTH 10 0
BBX 9 14 0 1
BITMAP
1800
1800
1E00
7800
3000
3700
3980
3180
2180
6180
6180
6100
4300
C300
ENDCHAR
STARTCHAR 2113
ENCODING 8467
SWIDTH 500 0
DWIDTH 10 0
BBX 8 14 1 1
BITMAP
0E
1B
33
33
23
63
66
66
66
6C
79
31
F3
9E
ENDCHAR
STARTCHAR 2116
ENCODING 8470
SWIDTH 1000 0
DWIDTH 20 0
BBX 18 14 1 1
BITMAP
E18000
E18000
F18000
F18000
D99C00
D99200
C9A100
CDA100
C5A100
C7A100
C7A100
C3A100
C392C0
C18CC0
ENDCHAR
STARTCHAR 2121
ENCODING 8481
SWIDTH 1000 0
DWIDTH 20 0
BBX 18 14 1 1
BITMAP
FE0000
180000
180000
19E400
190400
190400
190400
190400
19E400
190400
190400
190400
190400
19F7C0
ENDCHAR
STARTCHAR 2127
ENCODING 8487
SWIDTH 500 0
DWIDTH 10 0
BBX 8 14 1 1
BITMAP
E7
24
66
42
C3
C3
C3
C3
C3
C3
C3
62
66
3C
ENDCHAR
STARTCHAR 212B
ENCODING 8491
SWIDTH 1000 0
DWIDTH 20 0
BBX 12 16 4 1
BITMAP
0600
0900
0900
0600
0600
0F00
0F00
1980
1980
30C0
30C0
3FC0
6060
4020
C030
8010
ENDCHAR
STARTCHAR 2135
ENCODING 8501
SWIDTH 500 0
DWIDTH 10 0
BBX 8 15 1 1
BITMAP
46
C6
C3
C7
E7
78
78
DC
CE
C7
63
63
63
C2
02
ENDCHAR
STARTCHAR 2153
ENCODING 8531
SWIDTH 500 0
DWIDTH 10 0
BBX 8 18 1 -1
BITMAP
42
C2
42
44
44
48
48
50
1E
19
29
21
46
41
41
99
89
0E
ENDCHAR
STARTCHAR 2154
ENCODING 8532
SWIDTH 500 0
DWIDTH 10 0
BBX 9 19 0 -2
BITMAP
7080
4900
C900
0A00
1200
2600
4400
4400
F800
0B00
1480
1480
1080
2300
2080
4080
4480
4480
0700
ENDCHAR
STARTCHAR 2155
ENCODING 8533
SWIDTH 500 0
DWIDTH 10 0
BBX 8 17 1 -1
BITMAP
43
C2
42
44
44
48
48
48
1F
18
28
2E
49
41
81
89
8E
ENDCHAR
STARTCHAR 2160
ENCODING 8544
SWIDTH 1000 0
DWIDTH 20 0
BBX 2 14 9 1
BITMAP
C0
C0
C0
C0
C0
C0
C0
C0
C0
C0
C0
C0
C0
C0
ENDCHAR
STARTCHAR 2161
ENCODING 8545
SWIDTH 1000 0
DWIDTH 20 0
BBX 8 14 6 1
BITMAP
C3
C3
C3
C3
C3
C3
C3
C3
C3
C3
C3
C3
C3
C3
ENDCHAR
STARTCHAR 2162
ENCODING 8546
SWIDTH 1000 0
DWIDTH 20 0
BBX 12 14 4 1
BITMAP
C630
C630
C630
C630
C630
C630
C630
C630
C630
C630
C630
C630
C630
C630
ENDCHAR
STARTCHAR 2163
ENCODING 8547
SWIDTH 1000 0
DWIDTH 20 0
BBX 15 14 3 1
BITMAP
D806
CC06
CC0C
CC0C
C60C
C618
C218
C318
C330
C130
C1A0
C1E0
C0E0
C0C0
ENDCHAR
STARTCHAR 2164
ENCODING 8548
SWIDTH 1000 0
DWIDTH 20 0
BBX 12 14 4 1
BITMAP
C030
C030
C030
6060
6060
30C0
30C0
30C0
1980
1980
0900
0F00
0F00
0600
ENDCHAR
STARTCHAR 2165
ENCODING 8549
SWIDTH 1000 0
DWIDTH 20 0
BBX 15 14 2 1
BITMAP
C036
C066
6066
6066
60C6
30C6
3086
3186
1986
1906
0B06
0F06
0E06
0606
ENDCHAR
STARTCHAR 2166
ENCODING 8550
SWIDTH 1000 0
DWIDTH 20 0
BBX 17 14 1 1
BITMAP
C0D980
C19980
C19980
419980
611980
631980
231980
331980
321980
361980
161980
1C1980
1C1980
0C1980
ENDCHAR
STARTCHAR 2167
ENCODING 8551
SWIDTH 1000 0
DWIDTH 20 0
BBX 17 14 1 1
BITMAP
C1BD80
C1BD80
413D80
633D80
633D80
633D80
223D80
363D80
363D80
363D80
143D80
143D80
1C3D80
1C3D80
ENDCHAR
STARTCHAR 2168
ENCODING 8552
SWIDTH 1000 0
DWIDTH 20 0
BBX 15 14 3 1
BITMAP
C60C
C60C
C318
C198
C1B0
C0E0
C0E0
C0E0
C1B0
C1B8
C318
C60C
C60C
CC06
ENDCHAR
STARTCHAR 2169
ENCODING 8553
SWIDTH 1000 0
DWIDTH 20 0
BBX 13 14 3 1
BITMAP
7038
3030
1860
0CC0
0CC0
0780
0300
0780
0F80
0CC0
1860
3030
7038
E018
ENDCHAR
STARTCHAR 216A
ENCODING 8554
SWIDTH 1000 0
DWIDTH 20 0
BBX 15 14 2 1
BITMAP
60C6
60C6
3186
3306
1B06
0E06
0E06
0E06
1B06
3B06
3186
60C6
60C6
C066
ENDCHAR
STARTCHAR 216B
ENCODING 8555
SWIDTH 1000 0
DWIDTH 20 0
BBX 17 14 1 1
BITMAP
619980
611980
331980
321980
1E1980
1C1980
0C1980
1C1980
1E1980
321980
331980
619980
619980
C0D980
ENDCHAR
STARTCHAR 2170
ENCODING 8560
SWIDTH 1000 0
DWIDTH 20 0
BBX 2 14 9 1
BITMAP
C0
C0
00
00
C0
C0
C0
C0
C0
C0
C0
C0
C0
C0
ENDCHAR
STARTCHAR 2171
ENCODING 8561
SWIDTH 1000 0
DWIDTH 20 0
BBX 8 14 6 1
BITMAP
C3
C3
00
00
C3
C3
C3
C3
C3
C3
C3
C3
C3
C3
ENDCHAR
STARTCHAR 2172
ENCODING 8562
SWIDTH 1000 0
DWIDTH 20 0
BBX 10 14 5 1
BITMAP
CCC0
CCC0
0000
0000
CCC0
CCC0
CCC0
CCC0
CCC0
CCC0
CCC0
CCC0
CCC0
CCC0
ENDCHAR
STARTCHAR 2173
ENCODING 8563
SWIDTH 1000 0
DWIDTH 20 0
BBX 13 14 4 1
BITMAP
C000
C000
0000
0000
C818
CC10
CC30
C630
C660
C260
C340
C3C0
C1C0
C180
ENDCHAR
STARTCHAR 2174
ENCODING 8564
SWIDTH 1000 0
DWIDTH 20 0
BBX 10 10 5 1
BITMAP
C0C0
C0C0
6180
6180
2100
3300
3300
1E00
1E00
0C00
ENDCHAR
STARTCHAR 2175
ENCODING 8565
SWIDTH 1000 0
DWIDTH 20 0
BBX 13 14 3 1
BITMAP
0018
0018
0000
0000
C098
4198
6198
6318
3318
3218
1618
1E18
1C18
0C18
ENDCHAR
STARTCHAR 2176
ENCODING 8566
SWIDTH 1000 0
DWIDTH 20 0
BBX 15 14 2 1
BITMAP
0066
0066
0000
0000
8366
C266
C666
4666
6466
6C66
2C66
3866
3866
1866
ENDCHAR
STARTCHAR 2177
ENCODING 8567
SWIDTH 1000 0
DWIDTH 20 0
BBX 16 14 2 1
BITMAP
007B
007B
0000
0000
837B
C37B
C27B
467B
667B
247B
2C7B
387B
187B
187B
ENDCHAR
STARTCHAR 2178
ENCODING 8568
SWIDTH 1000 0
DWIDTH 20 0
BBX 13 14 4 1
BITMAP
C000
C000
0000
0000
CC18
C630
C360
C3E0
C1C0
C1C0
C360
C630
CC38
CC18
ENDCHAR
STARTCHAR 2179
ENCODING 8569
SWIDTH 1000 0
DWIDTH 20 0
BBX 10 10 5 1
BITMAP
E1C0
6180
3300
1E00
0C00
1E00
3F00
7380
6180
C0C0
ENDCHAR
STARTCHAR 217A
ENCODING 8570
SWIDTH 1000 0
DWIDTH 20 0
BBX 13 14 3 1
BITMAP
0018
0018
0000
0000
C198
6318
3618
3E18
1C18
1C18
3618
6318
E198
C198
ENDCHAR
STARTCHAR 217B
ENCODING 8571
SWIDTH 1000 0
DWIDTH 20 0
BBX 15 14 2 1
BITMAP
0036
0036
0000
0000
6336
6236
3636
1C36
1836
1C36
3436
6636
6336
C136
ENDCHAR
STARTCHAR 2190
ENCODING 8592
SWIDTH 1000 0
DWIDTH 20 0
BBX 18 7 1 4
BITMAP
0C0000
180000
300000
FFFFC0
300000
180000
0C0000
ENDCHAR
STARTCHAR 2191
ENCODING 8593
SWIDTH 1000 0
DWIDTH 20 0
BBX 8 18 6 -1
BITMAP
10
18
3C
7E
D7
93
91
10
10
10
10
10
10
10
10
10
10
10
ENDCHAR
STARTCHAR 2192
ENCODING 8594
SWIDTH 1000 0
DWIDTH 20 0
BBX 18 7 1 4
BITMAP
000C00
000600
000300
FFFFC0
000300
000600
000C00
ENDCHAR
STARTCHAR 2193
ENCODING 8595
SWIDTH 1000 0
DWIDTH 20 0
BBX 8 18 6 -2
BITMAP
10
10
10
10
10
10
10
10
10
10
10
91
93
D7
7E
3C
18
10
ENDCHAR
STARTCHAR 2194
ENCODING 8596
SWIDTH 500 0
DWIDTH 10 0
BBX 10 7 0 4
BITMAP
3300
2100
6180
FFC0
6180
2100
3300
ENDCHAR
STARTCHAR 2196
ENCODING 8598
SWIDTH 500 0
DWIDTH 10 0
BBX 8 15 1 1
BITMAP
20
78
7C
52
D1
98
08
0C
0C
04
06
02
02
03
01
ENDCHAR
STARTCHAR 2197
ENCODING 8599
SWIDTH 500 0
DWIDTH 10 0
BBX 8 15 1 1
BITMAP
04
1E
3E
4A
8B
19
10
30
30
20
60
40
40
C0
80
ENDCHAR
STARTCHAR 2198
ENCODING 8600
SWIDTH 500 0
DWIDTH 10 0
BBX 8 15 1 1
BITMAP
80
C0
40
60
60
20
30
30
12
19
0A
6A
3E
0C
04
ENDCHAR
STARTCHAR 2199
ENCODING 8601
SWIDTH 500 0
DWIDTH 10 0
BBX 8 15 1 1
BITMAP
01
03
02
06
06
04
0C
0C
88
98
50
56
7C
30
20
ENDCHAR
STARTCHAR 21C4
ENCODING 8644
SWIDTH 500 0
DWIDTH 10 0
BBX 8 15 1 0
BITMAP
0C
06
03
FF
03
06
0C
00
30
60
C0
FF
C0
60
30
ENDCHAR
STARTCHAR 21D2
ENCODING 8658
SWIDTH 1000 0
DWIDTH 20 0
BBX 17 10 1 3
BITMAP
001800
000C00
FFFE00
000100
000180
000180
000100
FFFE00
000C00
001800
ENDCHAR
STARTCHAR 21D4
ENCODING 8660
SWIDTH 1000 0
DWIDTH 20 0
BBX 18 12 1 2
BITMAP
040800
0C0C00
180600
3FFF00
600180
C000C0
C000C0
600180
3FFF00
180600
0C0C00
040800
ENDCHAR
STARTCHAR 21E6
ENCODING 8678
SWIDTH 500 0
DWIDTH 10 0
BBX 8 7 1 4
BITMAP
10
30
5F
81
5F
30
10
ENDCHAR
STARTCHAR 21E7
ENCODING 8679
SWIDTH 500 0
DWIDTH 10 0
BBX 6 16 2 0
BITMAP
30
50
48
84
FC
30
30
30
30
30
30
30
30
30
30
30
ENDCHAR
STARTCHAR 21E8
ENCODING 8680
SWIDTH 500 0
DWIDTH 10 0
BBX 8 7 1 4
BITMAP
08
0C
FA
81
FA
0C
08
ENDCHAR
STARTCHAR 21E9
ENCODING 8681
SWIDTH 500 0
DWIDTH 10 0
BBX 6 16 2 -1
BITMAP
30
30
30
30
30
30
30
30
30
30
30
FC
84
48
50
30
ENDCHAR
STARTCHAR 2200
ENCODING 8704
SWIDTH 1000 0
DWIDTH 20 0
BBX 16 17 2 -2
BITMAP
8001
C003
4002
6006
2004
300C
1FF8
1818
0810
0C30
0420
0660
0240
03C0
0180
0180
0100
ENDCHAR
STARTCHAR 2202
ENCODING 8706
SWIDTH 1000 0
DWIDTH 20 0
BBX 9 16 5 0
BITMAP
1E00
3300
2100
0080
0080
0080
1C80
6280
4180
8180
8180
8100
8100
8200
4600
3C00
ENDCHAR
STARTCHAR 2203
ENCODING 8707
SWIDTH 1000 0
DWIDTH 20 0
BBX 14 15 3 0
BITMAP
FFFC
0004
0004
0004
0004
0004
0004
FFFC
0004
0004
0004
0004
0004
0004
FFFC
ENDCHAR
STARTCHAR 2205
ENCODING 8709
SWIDTH 500 0
DWIDTH 10 0
BBX 8 11 1 2
BITMAP
03
3E
66
CF
CB
DB
D3
F3
66
7C
C0
ENDCHAR
STARTCHAR 2207
ENCODING 8711
SWIDTH 1000 0
DWIDTH 20 0
BBX 16 14 2 0
BITMAP
FFFF
6002
6006
3004
300C
1808
0810
0C30
0420
0660
0240
03C0
0180
0180
ENDCHAR
STARTCHAR 2208
ENCODING 8712
SWIDTH 1000 0
DWIDTH 20 0
BBX 16 15 2 0
BITMAP
07FF
1800
2000
6000
C000
C000
8000
FFFF
8000
C000
4000
6000
2000
1800
07FF
ENDCHAR
STARTCHAR 2209
ENCODING 8713
SWIDTH 500 0
DWIDTH 10 0
BBX 8 14 1 1
BITMAP
04
1F
74
4C
CC
88
88
FF
98
90
D0
50
30
3F
ENDCHAR
STARTCHAR 220B
ENCODING 8715
SWIDTH 1000 0
DWIDTH 20 0
BBX 16 15 2 0
BITMAP
FFE0
0018
0004
0006
0002
0003
0001
FFFF
0001
0003
0003
0006
0004
0018
FFE0
ENDCHAR
STARTCHAR 2212
ENCODING 8722
SWIDTH 500 0
DWIDTH 10 0
BBX 8 1 1 7
BITMAP
FF
ENDCHAR
STARTCHAR 2213
ENCODING 8723
SWIDTH 500 0
DWIDTH 10 0
BBX 8 14 1 0
BITMAP
FF
00
00
10
10
10
10
10
FF
10
10
10
10
10
ENDCHAR
STARTCHAR 221A
ENCODING 8730
SWIDTH 1000 0
DWIDTH 20 0
BBX 19 19 1 -2
BITMAP
003FE0
002000
002000
006000
004000
004000
00C000
008000
018000
018000
210000
230000
730000
520000
DE0000
8C0000
8C0000
0C0000
080000
ENDCHAR
STARTCHAR 221D
ENCODING 8733
SWIDTH 1000 0
DWIDTH 20 0
BBX 17 8 1 4
BITMAP
3C0E00
423100
812080
80C000
80C000
C1E000
633180
3C0F00
ENDCHAR
STARTCHAR 221E
ENCODING 8734
SWIDTH 1000 0
DWIDTH 20 0
BBX 18 8 1 4
BITMAP
3C0F00
461180
8121C0
80C040
80C040
81E040
433080
3C0F00
ENDCHAR
STARTCHAR 221F
ENCODING 8735
SWIDTH 1000 0
DWIDTH 20 0
BBX 17 16 2 0
BITMAP
800000
800000
800000
800000
800000
800000
800000
800000
800000
800000
800000
800000
800000
800000
800000
FFFF80
ENDCHAR
STARTCHAR 2220
ENCODING 8736
SWIDTH 1000 0
DWIDTH 20 0
BBX 16 15 2 1
BITMAP
0003
0006
000C
0018
0030
0060
00C0
0180
0300
0600
0C00
1800
3000
6000
FFFF
ENDCHAR
STARTCHAR 2225
ENCODING 8741
SWIDTH 1000 0
DWIDTH 20 0
BBX 10 17 5 -1
BITMAP
0640
0440
04C0
0C80
0880
1980
1900
1300
3300
2200
2600
6400
4400
4C00
C800
8800
9800
ENDCHAR
STARTCHAR 2226
ENCODING 8742
SWIDTH 500 0
DWIDTH 10 0
BBX 8 18 1 -2
BITMAP
19
19
13
13
12
B2
62
26
3C
2C
66
47
4D
48
C8
88
98
80
ENDCHAR
STARTCHAR 2227
ENCODING 8743
SWIDTH 1000 0
DWIDTH 20 0
BBX 16 17 2 0
BITMAP
0100
0180
0180
03C0
0240
0660
0420
0C30
0810
1818
1008
300C
2004
6006
4002
C003
8001
ENDCHAR
STARTCHAR 2228
ENCODING 8744
SWIDTH 1000 0
DWIDTH 20 0
BBX 16 17 2 -2
BITMAP
8001
C003
4002
6006
2004
300C
1008
1818
0810
0C30
0420
0660
0240
03C0
0180
0180
0100
ENDCHAR
STARTCHAR 2229
ENCODING 8745
SWIDTH 1000 0
DWIDTH 20 0
BBX 16 16 2 0
BITMAP
07E0
1818
2004
4002
4002
8001
8001
8001
8001
8001
8001
8001
8001
8001
8001
8001
ENDCHAR
STARTCHAR 222A
ENCODING 8746
SWIDTH 1000 0
DWIDTH 20 0
BBX 16 16 2 0
BITMAP
8001
8001
8001
8001
8001
8001
8001
8001
8001
8001
8001
4002
4002
2004
1818
07E0
ENDCHAR
STARTCHAR 222B
ENCODING 8747
SWIDTH 1000 0
DWIDTH 20 0
BBX 10 17 5 -1
BITMAP
0380
06C0
0440
0400
0400
0400
0400
0C00
0C00
0C00
0C00
0800
0800
0800
8800
D800
7000
ENDCHAR
STARTCHAR 222C
ENCODING 8748
SWIDTH 1000 0
DWIDTH 20 0
BBX 16 17 2 -1
BITMAP
038E
0489
04D9
0C18
0C10
0C10
0810
0810
0810
0810
0810
0830
0830
1830
9B20
9120
71C0
ENDCHAR
STARTCHAR 222E
ENCODING 8750
SWIDTH 1000 0
DWIDTH 20 0
BBX 10 17 5 -1
BITMAP
0380
06C0
0440
0400
0400
0400
1E00
2D00
2D00
2D00
1E00
0800
0800
0800
8800
D800
7000
ENDCHAR
STARTCHAR 2234
ENCODING 8756
SWIDTH 1000 0
DWIDTH 20 0
BBX 13 13 4 1
BITMAP
0700
0700
0700
0000
0000
0000
0000
0000
0000
0000
E038
E038
E038
ENDCHAR
STARTCHAR 2235
ENCODING 8757
SWIDTH 1000 0
DWIDTH 20 0
BBX 13 13 4 1
BITMAP
E038
E038
E038
0000
0000
0000
0000
0000
0000
0000
0700
0700
0700
ENDCHAR
STARTCHAR 223D
ENCODING 8765
SWIDTH 1000 0
DWIDTH 20 0
BBX 18 8 1 4
BITMAP
3C0F00
423080
826040
80C040
80C040
818040
431080
3C1F00
ENDCHAR
STARTCHAR 2243
ENCODING 8771
SWIDTH 500 0
DWIDTH 10 0
BBX 8 6 1 5
BITMAP
F0
8F
00
00
00
FF
ENDCHAR
STARTCHAR 2245
ENCODING 8773
SWIDTH 500 0
DWIDTH 10 0
BBX 8 10 1 3
BITMAP
60
99
0F
00
00
FF
00
00
00
FF
ENDCHAR
STARTCHAR 2248
ENCODING 8776
SWIDTH 500 0
DWIDTH 10 0
BBX 8 7 1 4
BITMAP
E0
99
0E
00
60
99
0F
ENDCHAR
STARTCHAR 2252
ENCODING 8786
SWIDTH 1000 0
DWIDTH 20 0
BBX 14 13 3 1
BITMAP
1800
1800
0000
0000
FFFC
0000
0000
0000
FFFC
0000
0000
0060
0060
ENDCHAR
STARTCHAR 2260
ENCODING 8800
SWIDTH 1000 0
DWIDTH 20 0
BBX 14 14 3 1
BITMAP
0060
0040
00C0
00C0
0080
FFFC
0100
0300
0200
FFFC
0400
0C00
0800
1800
ENDCHAR
STARTCHAR 2261
ENCODING 8801
SWIDTH 1000 0
DWIDTH 20 0
BBX 14 10 3 3
BITMAP
FFFC
0000
0000
0000
0000
FFFC
0000
0000
0000
FFFC
ENDCHAR
STARTCHAR 2262
ENCODING 8802
SWIDTH 500 0
DWIDTH 10 0
BBX 8 15 1 0
BITMAP
06
04
04
FF
08
08
08
FF
10
10
10
FF
20
20
60
ENDCHAR
STARTCHAR 2266
ENCODING 8806
SWIDTH 1000 0
DWIDTH 20 0
BBX 14 15 3 1
BITMAP
001C
0070
0380
1E00
F000
3800
0700
01E0
003C
0004
0000
FFFC
0000
0000
FFFC
ENDCHAR
STARTCHAR 2267
ENCODING 8807
SWIDTH 1000 0
DWIDTH 20 0
BBX 14 15 3 1
BITMAP
E000
3800
0700
01E0
003C
0070
0380
1E00
F000
8000
0000
FFFC
0000
0000
FFFC
ENDCHAR
STARTCHAR 226A
ENCODING 8810
SWIDTH 1000 0
DWIDTH 20 0
BBX 15 18 2 -1
BITMAP
0062
00C4
0198
0330
0660
08C0
1180
6300
C600
C600
6300
1180
08C0
0460
0330
0198
00C4
0062
ENDCHAR
STARTCHAR 226B
ENCODING 8811
SWIDTH 1000 0
DWIDTH 20 0
BBX 15 18 3 -1
BITMAP
8C00
4600
3300
1980
0C40
0620
0310
018C
00C6
00C6
018C
0310
0620
0CC0
1980
3300
4600
8C00
ENDCHAR
STARTCHAR 2276
ENCODING 8822
SWIDTH 500 0
DWIDTH 10 0
BBX 8 15 1 0
BITMAP
03
0E
38
60
E0
38
0E
C3
70
1C
07
0E
38
E0
80
ENDCHAR
STARTCHAR 2277
ENCODING 8823
SWIDTH 500 0
DWIDTH 10 0
BBX 8 15 1 0
BITMAP
C0
70
1C
06
07
1C
70
C3
0E
38
E0
70
1C
07
01
ENDCHAR
STARTCHAR 2282
ENCODING 8834
SWIDTH 1000 0
DWIDTH 20 0
BBX 16 15 2 0
BITMAP
07FF
1800
2000
4000
C000
8000
8000
8000
8000
8000
4000
4000
2000
1800
07FF
ENDCHAR
STARTCHAR 2283
ENCODING 8835
SWIDTH 1000 0
DWIDTH 20 0
BBX 16 15 2 0
BITMAP
FFE0
0018
0004
0002
0003
0001
0001
0001
0001
0001
0002
0002
0004
0018
FFE0
ENDCHAR
STARTCHAR 2284
ENCODING 8836
SWIDTH 500 0
DWIDTH 10 0
BBX 8 14 1 1
BITMAP
04
1F
74
6C
CC
C8
C8
C8
D8
D8
D0
70
70
3F
ENDCHAR
STARTCHAR 2285
ENCODING 8837
SWIDTH 500 0
DWIDTH 10 0
BBX 8 15 1 0
BITMAP
04
FC
0E
0E
0B
0B
1B
13
13
13
32
36
2C
F8
20
ENDCHAR
STARTCHAR 2286
ENCODING 8838
SWIDTH 1000 0
DWIDTH 20 0
BBX 16 15 2 0
BITMAP
1FFF
2000
4000
8000
8000
8000
8000
8000
4000
2000
1FFF
0000
0000
0000
FFFF
ENDCHAR
STARTCHAR 2287
ENCODING 8839
SWIDTH 1000 0
DWIDTH 20 0
BBX 16 15 2 0
BITMAP
FFF8
0004
0002
0001
0001
0001
0001
0001
0002
0004
FFF8
0000
0000
0000
FFFF
ENDCHAR
STARTCHAR 228A
ENCODING 8842
SWIDTH 500 0
DWIDTH 10 0
BBX 8 14 1 0
BITMAP
3F
40
C0
C0
C0
C0
C0
40
3F
00
08
08
FF
10
ENDCHAR
STARTCHAR 228B
ENCODING 8843
SWIDTH 500 0
DWIDTH 10 0
BBX 8 14 1 0
BITMAP
FC
02
03
03
03
03
03
02
FC
00
08
08
FF
10
ENDCHAR
STARTCHAR 2295
ENCODING 8853
SWIDTH 500 0
DWIDTH 10 0
BBX 10 9 0 3
BITMAP
1E00
6180
44C0
8440
BF40
8440
C480
6100
1E00
ENDCHAR
STARTCHAR 2296
ENCODING 8854
SWIDTH 500 0
DWIDTH 10 0
BBX 10 9 0 3
BITMAP
1E00
6180
40C0
8040
BF40
8040
C080
6180
1E00
ENDCHAR
STARTCHAR 2297
ENCODING 8855
SWIDTH 500 0
DWIDTH 10 0
BBX 9 9 1 3
BITMAP
3C00
4300
8100
A480
9880
9880
E500
6300
3C00
ENDCHAR
STARTCHAR 22A5
ENCODING 8869
SWIDTH 1000 0
DWIDTH 20 0
BBX 18 16 1 0
BITMAP
008000
008000
008000
008000
008000
008000
008000
008000
008000
008000
008000
008000
008000
008000
008000
FFFFC0
ENDCHAR
STARTCHAR 22BF
ENCODING 8895
SWIDTH 1000 0
DWIDTH 20 0
BBX 16 16 2 1
BITMAP
0001
0003
0007
000F
001D
0039
0071
00E1
01C1
0381
0701
0E01
1C01
3801
7001
FFFF
ENDCHAR
STARTCHAR 22DA
ENCODING 8922
SWIDTH 500 0
DWIDTH 10 0
BBX 8 17 1 -1
BITMAP
01
07
1C
E0
70
0E
03
00
FF
00
C0
70
0E
07
38
E0
80
ENDCHAR
STARTCHAR 22DB
ENCODING 8923
SWIDTH 500 0
DWIDTH 10 0
BBX 8 17 1 -1
BITMAP
80
E0
38
07
0E
70
C0
00
FF
00
03
0E
70
E0
1C
07
01
ENDCHAR
STARTCHAR 2305
ENCODING 8965
SWIDTH 500 0
DWIDTH 10 0
BBX 8 10 1 2
BITMAP
FF
00
18
18
3C
24
24
66
42
C3
ENDCHAR
STARTCHAR 2306
ENCODING 8966
SWIDTH 500 0
DWIDTH 10 0
BBX 8 13 1 1
BITMAP
FF
00
00
FF
00
18
18
3C
24
24
66
42
C3
ENDCHAR
STARTCHAR 2312
ENCODING 8978
SWIDTH 1000 0
DWIDTH 20 0
BBX 18 4 1 12
BITMAP
07F800
1C0E00
600180
800040
ENDCHAR
STARTCHAR 2318
ENCODING 8984
SWIDTH 1000 0
DWIDTH 20 0
BBX 18 19 1 -2
BITMAP
780780
CC0CC0
840840
840840
C408C0
7FFF80
040800
040800
040800
040800
040800
040800
040800
7FFF80
C408C0
840840
840840
CC0C80
780700
ENDCHAR
STARTCHAR 23BE
ENCODING 9150
SWIDTH 1000 0
DWIDTH 20 0
BBX 10 20 10 -2
BITMAP
FFC0
8000
8000
8000
8000
8000
8000
8000
8000
8000
8000
8000
8000
8000
8000
8000
8000
8000
8000
8000
ENDCHAR
STARTCHAR 23BF
ENCODING 9151
SWIDTH 1000 0
DWIDTH 20 0
BBX 10 20 10 -2
BITMAP
8000
8000
8000
8000
8000
8000
8000
8000
8000
8000
8000
8000
8000
8000
8000
8000
8000
8000
8000
FFC0
ENDCHAR
STARTCHAR 23C0
ENCODING 9152
SWIDTH 1000 0
DWIDTH 20 0
BBX 15 20 3 -2
BITMAP
0100
0100
0380
1D60
3118
6104
4104
8102
8102
8102
8102
8102
8102
4104
4104
2108
1930
07C0
0100
0100
ENDCHAR
STARTCHAR 23C1
ENCODING 9153
SWIDTH 1000 0
DWIDTH 20 0
BBX 20 20 0 -2
BITMAP
FFFFF0
002000
002000
01FC00
062300
0C2100
082080
1020C0
102040
102040
102040
102040
102040
082080
082180
042300
032600
00F800
002000
002000
ENDCHAR
STARTCHAR 23C2
ENCODING 9154
SWIDTH 1000 0
DWIDTH 20 0
BBX 20 20 0 -2
BITMAP
002000
002000
007000
03AC00
062300
0C2180
082080
102040
102040
102040
102040
102040
102040
082080
042100
062300
01AC00
007000
002000
FFFFF0
ENDCHAR
STARTCHAR 23C3
ENCODING 9155
SWIDTH 1000 0
DWIDTH 20 0
BBX 17 20 2 -2
BITMAP
008000
008000
008000
008000
01C000
02A000
02A000
049000
049000
088800
108800
108400
208200
208200
408100
808100
FFFF80
008000
008000
008000
ENDCHAR
STARTCHAR 23C4
ENCODING 9156
SWIDTH 1000 0
DWIDTH 20 0
BBX 20 20 0 -2
BITMAP
FFFFF0
002000
002000
002000
007000
00B000
00A800
012800
012400
022200
042200
042100
082100
102080
102080
202040
3FFFC0
002000
002000
002000
ENDCHAR
STARTCHAR 23C5
ENCODING 9157
SWIDTH 1000 0
DWIDTH 20 0
BBX 20 20 0 -2
BITMAP
002000
002000
002000
002000
007000
00B000
00A800
012400
012400
022200
042200
042100
082100
102080
102080
202040
3FFFC0
002000
002000
FFFFF0
ENDCHAR
STARTCHAR 23C6
ENCODING 9158
SWIDTH 1000 0
DWIDTH 20 0
BBX 17 20 2 -2
BITMAP
008000
008000
008000
008000
008000
008000
008000
008000
7C8000
838000
00E080
009F00
008000
008000
008000
008000
008000
008000
008000
008000
ENDCHAR
STARTCHAR 23C7
ENCODING 9159
SWIDTH 1000 0
DWIDTH 20 0
BBX 20 20 0 -2
BITMAP
FFFFF0
002000
002000
002000
002000
002000
002000
002000
1F2000
60E000
003820
0027C0
002000
002000
002000
002000
002000
002000
002000
002000
ENDCHAR
STARTCHAR 23C8
ENCODING 9160
SWIDTH 1000 0
DWIDTH 20 0
BBX 20 20 0 -2
BITMAP
002000
002000
002000
002000
002000
002000
002000
002000
1F2000
60E000
003820
0027C0
002000
002000
002000
002000
002000
002000
002000
FFFFF0
ENDCHAR
STARTCHAR 23C9
ENCODING 9161
SWIDTH 1000 0
DWIDTH 20 0
BBX 20 20 0 -2
BITMAP
FFFFF0
002000
002000
002000
002000
002000
002000
002000
002000
002000
002000
002000
002000
002000
002000
002000
002000
002000
002000
002000
ENDCHAR
STARTCHAR 23CA
ENCODING 9162
SWIDTH 1000 0
DWIDTH 20 0
BBX 20 20 0 -2
BITMAP
002000
002000
002000
002000
002000
002000
002000
002000
002000
002000
002000
002000
002000
002000
002000
002000
002000
002000
002000
FFFFF0
ENDCHAR
STARTCHAR 23CB
ENCODING 9163
SWIDTH 1000 0
DWIDTH 20 0
BBX 10 20 0 -2
BITMAP
FFC0
0040
0040
0040
0040
0040
0040
0040
0040
0040
0040
0040
0040
0040
0040
0040
0040
0040
0040
0040
ENDCHAR
STARTCHAR 23CC
ENCODING 9164
SWIDTH 1000 0
DWIDTH 20 0
BBX 10 20 0 -2
BITMAP
0040
0040
0040
0040
0040
0040
0040
0040
0040
0040
0040
0040
0040
0040
0040
0040
0040
0040
0040
FFC0
ENDCHAR
STARTCHAR 23CE
ENCODING 9166
SWIDTH 1000 0
DWIDTH 20 0
BBX 17 17 1 -2
BITMAP
001F80
001080
001080
001080
001080
021080
061080
0A1080
13F080
200080
C00080
C00180
200100
13FE00
0A0000
060000
020000
ENDCHAR
STARTCHAR 2423
ENCODING 9251
SWIDTH 1000 0
DWIDTH 20 0
BBX 16 4 2 0
BITMAP
8001
8001
8001
FFFF
ENDCHAR
STARTCHAR 2460
ENCODING 9312
SWIDTH 1000 0
DWIDTH 20 0
BBX 19 19 0 -2
BITMAP
01F800
060E00
180300
306180
21E0C0
416040
C06060
806020
806020
806020
806020
806020
406040
406040
6060C0
306180
180300
0E0E00
03F800
ENDCHAR
STARTCHAR 2461
ENCODING 9313
SWIDTH 1000 0
DWIDTH 20 0
BBX 19 18 1 -1
BITMAP
03F800
0E0E00
180300
20F080
630840
420440
860420
800420
801820
802020
80C020
810020
420040
63FCC0
27FC80
180300
0E0E00
03F800
ENDCHAR
STARTCHAR 2462
ENCODING 9314
SWIDTH 1000 0
DWIDTH 20 0
BBX 19 19 0 -2
BITMAP
03F800
0E0E00
180300
30F180
630CC0
420440
C00460
800820
80F020
800820
800420
800420
460440
420440
2308C0
31F180
180300
0E0E00
01F800
ENDCHAR
STARTCHAR 2463
ENCODING 9315
SWIDTH 1000 0
DWIDTH 20 0
BBX 19 19 1 -2
BITMAP
03F000
0E0E00
180300
302180
6060C0
40E040
C0A040
81A020
832020
822020
862020
8C2020
4FFC40
402040
6020C0
302180
180300
0E0E00
03F800
ENDCHAR
STARTCHAR 2464
ENCODING 9316
SWIDTH 1000 0
DWIDTH 20 0
BBX 19 19 1 -2
BITMAP
03F000
0E0C00
180300
33F980
6200C0
420040
C20040
82F020
830820
860420
800420
800420
400440
460C40
2308C0
31F180
180300
0E0E00
01F800
ENDCHAR
STARTCHAR 2465
ENCODING 9317
SWIDTH 1000 0
DWIDTH 20 0
BBX 18 19 1 -2
BITMAP
03F000
0C0C00
180600
20E100
611980
421880
C60040
840040
85E040
871040
860840
860840
C608C0
420880
631180
21E100
180600
0C0C00
03F000
ENDCHAR
STARTCHAR 2466
ENCODING 9318
SWIDTH 1000 0
DWIDTH 20 0
BBX 19 19 0 -2
BITMAP
01F800
060E00
080300
100180
23FCC0
43FC40
400C60
801820
801820
801020
803020
802020
C06040
406040
6040C0
30C180
180300
0E0E00
03F800
ENDCHAR
STARTCHAR 2467
ENCODING 9319
SWIDTH 1000 0
DWIDTH 20 0
BBX 18 19 1 -2
BITMAP
03F000
0C0C00
180600
21E100
621180
440880
C40840
861840
83F040
821040
8C0840
880440
C804C0
4C0480
670980
23F100
180600
0C0C00
03F000
ENDCHAR
STARTCHAR 2468
ENCODING 9320
SWIDTH 1000 0
DWIDTH 20 0
BBX 18 18 1 -1
BITMAP
03F000
1C0C00
31E200
221100
441880
440880
840C40
840C40
860C40
831C40
81EC40
800C40
460C80
421880
233100
11E200
0C0C00
03F000
ENDCHAR
STARTCHAR 2469
ENCODING 9321
SWIDTH 1000 0
DWIDTH 20 0
BBX 18 19 1 -2
BITMAP
03F000
0C0C00
380600
287100
788980
588880
C90440
890440
890440
890440
890440
890440
4904C0
488880
688980
287100
180600
0C0C00
03F000
ENDCHAR
STARTCHAR 246A
ENCODING 9322
SWIDTH 1000 0
DWIDTH 20 0
BBX 18 19 1 -2
BITMAP
03F000
0C0C00
180600
240900
6C3980
4C2880
C40840
840840
840840
840840
840840
840840
4408C0
440880
640980
240900
180600
0C0C00
03F000
ENDCHAR
STARTCHAR 246B
ENCODING 9323
SWIDTH 1000 0
DWIDTH 20 0
BBX 19 19 1 -2
BITMAP
03F000
0E0C00
380300
387980
78C480
488240
C98240
880220
880620
880C20
883820
887020
486040
48C040
2980C0
39FF80
180300
0E0E00
01F800
ENDCHAR
STARTCHAR 246C
ENCODING 9324
SWIDTH 1000 0
DWIDTH 20 0
BBX 19 19 1 -2
BITMAP
03F000
0E0C00
380300
387D80
78C680
488240
C80240
880420
883820
880420
880220
880220
498240
498240
28C4C0
387980
180300
0E0E00
01F800
ENDCHAR
STARTCHAR 246D
ENCODING 9325
SWIDTH 1000 0
DWIDTH 20 0
BBX 18 19 1 -2
BITMAP
03F000
0C0C00
380600
280D00
780D80
481C80
C83440
883440
886440
88C440
898440
89FE40
4804C0
480480
680580
280500
180600
0C0C00
03F000
ENDCHAR
STARTCHAR 246E
ENCODING 9326
SWIDTH 1000 0
DWIDTH 20 0
BBX 19 19 1 -2
BITMAP
03F000
0E0C00
380300
38FD80
788080
488040
C98040
89F820
898420
880220
880220
880220
498240
498640
28CCC0
387980
180300
0E0E00
01F800
ENDCHAR
STARTCHAR 246F
ENCODING 9327
SWIDTH 1000 0
DWIDTH 20 0
BBX 18 19 1 -2
BITMAP
03F000
0C0C00
380600
287100
788980
488C80
C98040
890040
897040
898840
890440
890440
4904C0
490480
688980
287100
180600
0C0C00
03F000
ENDCHAR
STARTCHAR 2470
ENCODING 9328
SWIDTH 1000 0
DWIDTH 20 0
BBX 19 19 0 -2
BITMAP
01F800
060E00
180300
347F80
6C06C0
440440
C40460
840C20
840820
840820
840820
841820
441840
441040
2410C0
343180
180300
0E0E00
01F800
ENDCHAR
STARTCHAR 2471
ENCODING 9329
SWIDTH 1000 0
DWIDTH 20 0
BBX 18 19 1 -2
BITMAP
03F000
0C0C00
380600
28F100
798980
590480
C90440
898C40
88F840
891840
8A0C40
8A0440
4A04C0
4A0480
690980
28F100
180600
0C0C00
03F000
ENDCHAR
STARTCHAR 2472
ENCODING 9330
SWIDTH 1000 0
DWIDTH 20 0
BBX 18 19 1 -2
BITMAP
03F000
0C0C00
380600
287100
789980
598C80
C90440
890440
890440
888C40
887C40
880C40
480CC0
498880
699980
28F100
180600
0C0C00
03F000
ENDCHAR
STARTCHAR 2473
ENCODING 9331
SWIDTH 1000 0
DWIDTH 20 0
BBX 18 18 1 -1
BITMAP
03F000
0C0C00
300200
271D00
489480
58A280
98A240
81A240
812240
832240
862240
8C2240
482280
581480
3F9D00
100200
0C0C00
03F000
ENDCHAR
STARTCHAR 24D0
ENCODING 9424
SWIDTH 1000 0
DWIDTH 20 0
BBX 18 19 1 -2
BITMAP
03F000
0C0C00
180600
200100
600180
41E080
C33040
821040
801040
83F040
861040
841040
C430C0
43D880
600180
200100
180600
0C0C00
03F000
ENDCHAR
STARTCHAR 24D1
ENCODING 9425
SWIDTH 1000 0
DWIDTH 20 0
BBX 18 19 1 -2
BITMAP
03F000
0C0C00
180600
220100
620180
420080
C2F040
838840
830440
820440
820440
820440
C20CC0
431880
62F180
200100
180600
0C0C00
03F000
ENDCHAR
STARTCHAR 24D2
ENCODING 9426
SWIDTH 1000 0
DWIDTH 20 0
BBX 18 19 1 -2
BITMAP
03F000
0C0C00
180600
200100
600180
41E080
C23040
841840
840040
840040
840040
841840
C230C0
41E080
600180
200100
180600
0C0C00
03F000
ENDCHAR
STARTCHAR 24D3
ENCODING 9427
SWIDTH 1000 0
DWIDTH 20 0
BBX 18 19 1 -2
BITMAP
03F000
0C0C00
180600
201100
601180
401080
C3D040
863040
8E1040
881040
881040
881040
C830C0
447080
63D180
200100
180600
0C0C00
03F000
ENDCHAR
STARTCHAR 24D4
ENCODING 9428
SWIDTH 1000 0
DWIDTH 20 0
BBX 18 19 1 -2
BITMAP
03F000
0C0C00
180600
200100
600180
400080
C1E040
821040
861840
87F840
860040
861840
C310C0
41E080
600180
200100
180600
0C0C00
03F000
ENDCHAR
STARTCHAR 24D5
ENCODING 9429
SWIDTH 1000 0
DWIDTH 20 0
BBX 20 18 0 -1
BITMAP
01F800
060600
180180
3000C0
607860
404020
804010
804010
83F810
804010
804010
804010
404020
604060
3040C0
180180
060600
01F800
ENDCHAR
STARTCHAR 24D6
ENCODING 9430
SWIDTH 1000 0
DWIDTH 20 0
BBX 19 19 1 -2
BITMAP
03F800
0E0E00
180300
300180
60E8C0
411840
C20860
820820
820820
811820
80F820
800820
430840
411840
20F0C0
300180
180300
060E00
01F800
ENDCHAR
STARTCHAR 24D7
ENCODING 9431
SWIDTH 1000 0
DWIDTH 20 0
BBX 19 19 1 -2
BITMAP
03F000
0E0C00
380300
320180
620080
420040
C2F040
839820
830820
820820
820820
820820
420840
420840
2208C0
300180
180300
060E00
01F800
ENDCHAR
STARTCHAR 24D8
ENCODING 9432
SWIDTH 1000 0
DWIDTH 20 0
BBX 20 19 0 -2
BITMAP
01F800
060600
080180
1000C0
206040
406020
400020
804010
804010
804010
804010
804010
C04020
404020
604040
3000C0
180180
060600
01F800
ENDCHAR
STARTCHAR 24D9
ENCODING 9433
SWIDTH 1000 0
DWIDTH 20 0
BBX 20 19 0 -2
BITMAP
01F800
0E0600
183180
3030C0
600040
400020
C02020
802010
802010
802010
802010
802010
402020
402020
202040
31E0C0
180180
060600
01F800
ENDCHAR
STARTCHAR 24DA
ENCODING 9434
SWIDTH 1000 0
DWIDTH 20 0
BBX 18 19 1 -2
BITMAP
03F000
0C0C00
180600
220100
620180
420080
C20040
823040
826040
82C040
83C040
836040
4230C0
421080
621980
200100
180600
0C0C00
03F000
ENDCHAR
STARTCHAR 24DB
ENCODING 9435
SWIDTH 1000 0
DWIDTH 20 0
BBX 19 19 0 -2
BITMAP
01F800
060E00
080300
100180
2040C0
404040
404060
804020
804020
804020
804020
804020
C04040
404040
6040C0
300180
180300
0E0E00
03F800
ENDCHAR
STARTCHAR 24DC
ENCODING 9436
SWIDTH 1000 0
DWIDTH 20 0
BBX 18 18 1 -1
BITMAP
03F000
1C0C00
300200
200100
400080
4B3880
8CC440
888440
888440
888440
888440
888440
488480
400080
200100
100200
0C0C00
03F000
ENDCHAR
STARTCHAR 24DD
ENCODING 9437
SWIDTH 1000 0
DWIDTH 20 0
BBX 20 18 0 -1
BITMAP
03F800
0E0600
180180
3000C0
600060
42F820
838C10
820410
820410
820410
820410
820410
420420
600060
3000C0
180180
060600
01F800
ENDCHAR
STARTCHAR 24DE
ENCODING 9438
SWIDTH 1000 0
DWIDTH 20 0
BBX 18 19 1 -2
BITMAP
03F000
0C0C00
180600
200100
600180
41E080
C33040
861840
840840
840840
840840
840840
C210C0
41E080
600180
200100
180600
0C0C00
03F000
ENDCHAR
STARTCHAR 24DF
ENCODING 9439
SWIDTH 1000 0
DWIDTH 20 0
BBX 18 19 1 -2
BITMAP
03F000
0C0C00
180600
200100
600180
42F080
C30840
820440
820440
820440
820440
830840
C2F0C0
420080
620180
200100
180600
0C0C00
03F000
ENDCHAR
STARTCHAR 24E0
ENCODING 9440
SWIDTH 1000 0
DWIDTH 20 0
BBX 18 19 1 -2
BITMAP
03F000
0C0C00
180600
200100
600180
43D080
C43040
881040
881040
881040
881040
843040
C3D0C0
401080
601180
200100
180600
0C0C00
03F000
ENDCHAR
STARTCHAR 24E1
ENCODING 9441
SWIDTH 1000 0
DWIDTH 20 0
BBX 20 19 0 -2
BITMAP
01F800
060600
180180
3000C0
200040
400020
409C20
80B810
80C010
808010
808010
808010
C08020
408020
200040
3000C0
180180
060600
01F800
ENDCHAR
STARTCHAR 24E2
ENCODING 9442
SWIDTH 1000 0
DWIDTH 20 0
BBX 18 19 1 -2
BITMAP
03F000
0C0C00
180600
200100
600180
400080
C1E040
823040
820040
81C040
807040
861040
C210C0
41E080
600180
200100
180600
0C0C00
03F000
ENDCHAR
STARTCHAR 24E3
ENCODING 9443
SWIDTH 1000 0
DWIDTH 20 0
BBX 19 20 1 -2
BITMAP
01F000
060C00
080300
300180
200080
408040
408040
808020
83E020
808020
808020
808020
808020
408040
408040
20F080
300180
180300
060C00
01F000
ENDCHAR
STARTCHAR 24E4
ENCODING 9444
SWIDTH 1000 0
DWIDTH 20 0
BBX 20 18 0 -1
BITMAP
03F800
0E0600
180180
3000C0
600060
420420
820410
820410
820410
820410
820410
831C10
41F420
600060
3000C0
180180
060600
01F800
ENDCHAR
STARTCHAR 24E5
ENCODING 9445
SWIDTH 1000 0
DWIDTH 20 0
BBX 18 19 1 -2
BITMAP
03F000
0C0C00
180600
200100
600180
400080
C40840
861840
821040
833040
812040
81E040
C0C0C0
40C080
600180
200100
180600
0C0C00
03F000
ENDCHAR
STARTCHAR 24E6
ENCODING 9446
SWIDTH 1000 0
DWIDTH 20 0
BBX 18 19 1 -2
BITMAP
03F000
0C0C00
180600
200100
600180
400080
D8C640
98C640
89E440
892440
8D2C40
852840
C738C0
421080
600180
200100
180600
0C0C00
03F000
ENDCHAR
STARTCHAR 24E7
ENCODING 9447
SWIDTH 1000 0
DWIDTH 20 0
BBX 18 18 1 -1
BITMAP
03F000
1C0C00
300200
200100
400080
461880
833040
81E040
80C040
81E040
812040
833040
461880
400080
200100
100200
0C0C00
03F000
ENDCHAR
STARTCHAR 24E8
ENCODING 9448
SWIDTH 1000 0
DWIDTH 20 0
BBX 19 19 0 -2
BITMAP
01F800
060E00
080300
300180
2000C0
420440
430C60
810820
819820
809020
80F020
806020
C06040
404040
6380C0
300180
180300
0E0E00
03F800
ENDCHAR
STARTCHAR 24E9
ENCODING 9449
SWIDTH 1000 0
DWIDTH 20 0
BBX 20 18 0 -1
BITMAP
01F800
0E0600
180180
3000C0
600060
41F820
801810
803010
806010
80C010
818010
838010
43FC20
600060
3000C0
180180
060600
01F800
ENDCHAR
STARTCHAR 24EB
ENCODING 9451
SWIDTH 1000 0
DWIDTH 20 0
BBX 20 19 0 -2
BITMAP
01F800
07FE00
1FFF80
3DF9C0
71F1C0
75F1E0
FDF9E0
FDF9F0
FDF9F0
FDF9F0
FDF9F0
FDF9F0
7DF9E0
7DF9E0
3DF9C0
3DF9C0
1FFF80
07FE00
01F800
ENDCHAR
STARTCHAR 24EC
ENCODING 9452
SWIDTH 1000 0
DWIDTH 20 0
BBX 19 19 1 -2
BITMAP
03F000
0FFC00
1FFF00
33C380
639980
73BDC0
F33DC0
F3FDE0
F3FBE0
F3F3E0
F3E7E0
F3CFE0
739FC0
73BFC0
3301C0
330180
1FFF00
0FFE00
01F800
ENDCHAR
STARTCHAR 24ED
ENCODING 9453
SWIDTH 1000 0
DWIDTH 20 0
BBX 18 19 1 -2
BITMAP
03F000
0FFC00
1FFE00
33C700
63B980
733980
F3F9C0
F3F1C0
F3C3C0
F3C7C0
F3F1C0
F3F9C0
7379C0
733980
73B380
338700
1FFE00
0FFC00
03F000
ENDCHAR
STARTCHAR 24EE
ENCODING 9454
SWIDTH 1000 0
DWIDTH 20 0
BBX 19 19 1 -2
BITMAP
03F000
0FFC00
1FFF00
33F380
63E380
73C3C0
F3D3C0
F393E0
F3B3E0
F333E0
F273E0
F200E0
7200C0
73F3C0
33F3C0
33F380
1FFF00
0FFE00
01F800
ENDCHAR
STARTCHAR 24EF
ENCODING 9455
SWIDTH 1000 0
DWIDTH 20 0
BBX 18 19 1 -2
BITMAP
03F000
0FFC00
1FFE00
338300
638380
63BF80
F33FC0
F347C0
F303C0
F3B1C0
F3F9C0
F3F9C0
7339C0
733180
738380
33C700
1FFE00
0FFC00
03F000
ENDCHAR
STARTCHAR 24F0
ENCODING 9456
SWIDTH 1000 0
DWIDTH 20 0
BBX 19 19 1 -2
BITMAP
03F000
0FFC00
1FFF00
33C380
639980
73B9C0
F33FC0
F33FE0
F343E0
F31BE0
F33DE0
F33DE0
733DE0
733DC0
339BC0
33C780
1FFF00
0FFE00
01F800
ENDCHAR
STARTCHAR 24F1
ENCODING 9457
SWIDTH 1000 0
DWIDTH 20 0
BBX 19 19 1 -2
BITMAP
03F000
0FFC00
1FFF00
330180
630180
63F9C0
F3FBC0
F3F3E0
F3F7E0
F3F7E0
F3E7E0
F3EFE0
73EFE0
73CFC0
33CFC0
33DF80
1FFF00
0FFE00
01F800
ENDCHAR
STARTCHAR 24F2
ENCODING 9458
SWIDTH 1000 0
DWIDTH 20 0
BBX 19 19 1 -2
BITMAP
03F000
0FFC00
1FFF00
33C780
639B80
633DC0
F33DC0
F319E0
F383E0
F383E0
F339E0
F37DE0
737DE0
737DC0
33BBC0
33C780
1FFF00
0FFE00
01F800
ENDCHAR
STARTCHAR 24F3
ENCODING 9459
SWIDTH 1000 0
DWIDTH 20 0
BBX 19 19 1 -2
BITMAP
03F000
0FFC00
1FFF00
33C780
639B80
633DC0
F33DC0
F33DE0
F33DE0
F399E0
F3C5E0
F3FDE0
73FDC0
733BC0
33BBC0
33C780
1FFF00
0FFE00
01F800
ENDCHAR
STARTCHAR 24F4
ENCODING 9460
SWIDTH 1000 0
DWIDTH 20 0
BBX 19 18 1 -1
BITMAP
03F800
0FFE00
1FFF00
38F180
7765C0
674EC0
E74EE0
FE4EE0
FECEE0
FCCEE0
F9CEE0
F3CEE0
77CEC0
77E4C0
207180
1FFF00
0FFE00
03F800
ENDCHAR
STARTCHAR 24F5
ENCODING 9461
SWIDTH 1000 0
DWIDTH 20 0
BBX 20 19 0 -2
BITMAP
01F800
060600
19F900
360680
6C6340
59E1A0
D160A0
A06050
A06050
A06050
A06050
A06050
D060A0
5861A0
6C6340
260680
19F900
060600
01F800
ENDCHAR
STARTCHAR 24F6
ENCODING 9462
SWIDTH 1000 0
DWIDTH 20 0
BBX 19 19 1 -2
BITMAP
03F000
0FFE00
1C0F00
39E780
7313C0
620940
C608E0
C018A0
C030A0
C0E0A0
C180A0
C300A0
A20140
77FB40
580680
2C0D00
13F200
0C0C00
03F000
ENDCHAR
STARTCHAR 24F7
ENCODING 9463
SWIDTH 1000 0
DWIDTH 20 0
BBX 19 19 0 -2
BITMAP
03F800
0E0C00
19F300
360D80
68F280
530940
D20940
A018A0
A0E0A0
A018A0
A004A0
A004A0
920520
530940
69F240
260C80
19F300
0E0E00
03F800
ENDCHAR
STARTCHAR 24F8
ENCODING 9464
SWIDTH 1000 0
DWIDTH 20 0
BBX 19 19 0 -2
BITMAP
01F800
0E0E00
19F300
360C80
6832C0
503140
D07120
A0D0A0
A190A0
A310A0
A610A0
A7FCA0
D01120
501140
681240
360C80
19F300
0E0600
03F800
ENDCHAR
STARTCHAR 24F9
ENCODING 9465
SWIDTH 1000 0
DWIDTH 20 0
BBX 19 19 0 -2
BITMAP
01F800
07FE00
1E0700
3C0380
79F9C0
5100C0
E10060
A17060
A18860
A10460
A00460
A00460
D304C0
5989C0
6CF340
360680
19FB00
0E0600
03F800
ENDCHAR
STARTCHAR 24FA
ENCODING 9466
SWIDTH 1000 0
DWIDTH 20 0
BBX 18 20 1 -2
BITMAP
03F000
0C0C00
1BF600
3C0F00
38E780
713380
621180
C600C0
C6E0C0
C710C0
C408C0
C408C0
C408C0
A20940
731380
59E680
2C0D00
13F200
0C0C00
03F000
ENDCHAR
STARTCHAR 24FB
ENCODING 9467
SWIDTH 1000 0
DWIDTH 20 0
BBX 19 19 1 -2
BITMAP
03F000
0E0C00
19F200
360D00
680280
53F940
901940
A010A0
A030A0
A020A0
A060A0
A040A0
D04140
50C140
688280
260D00
19F200
0E0C00
03F000
ENDCHAR
STARTCHAR 24FC
ENCODING 9468
SWIDTH 1000 0
DWIDTH 20 0
BBX 18 19 1 -2
BITMAP
03F000
0C0C00
1BF600
2C0D00
79E780
761B80
A40940
C408C0
C230C0
C3E0C0
C618C0
C408C0
A40940
721380
59E680
2C0D00
13F200
0C0C00
03F000
ENDCHAR
STARTCHAR 24FD
ENCODING 9469
SWIDTH 1000 0
DWIDTH 20 0
BBX 18 19 1 -2
BITMAP
03F000
0C0C00
1BF600
2C0D00
78E780
711380
E20940
C208C0
C208C0
C318C0
C1E8C0
C018C0
A21140
733380
59E680
2C0D00
13F200
0C0C00
03F000
ENDCHAR
STARTCHAR 24FE
ENCODING 9470
SWIDTH 1000 0
DWIDTH 20 0
BBX 19 19 0 -2
BITMAP
03F800
0FFE00
1E0F00
2C0680
7A7BC0
564940
A284A0
A284A0
A284A0
A284A0
A284A0
A284A0
D24940
5A7B40
6C0680
360D00
19F200
0E0C00
03F000
ENDCHAR
STARTCHAR 2500
ENCODING 9472
SWIDTH 1000 0
DWIDTH 20 0
BBX 20 1 0 7
BITMAP
FFFFF0
ENDCHAR
STARTCHAR 2501
ENCODING 9473
SWIDTH 1000 0
DWIDTH 20 0
BBX 20 2 0 7
BITMAP
FFFFF0
FFFFF0
ENDCHAR
STARTCHAR 2502
ENCODING 9474
SWIDTH 1000 0
DWIDTH 20 0
BBX 1 20 10 -2
BITMAP
80
80
80
80
80
80
80
80
80
80
80
80
80
80
80
80
80
80
80
80
ENDCHAR
STARTCHAR 2503
ENCODING 9475
SWIDTH 1000 0
DWIDTH 20 0
BBX 2 20 9 -2
BITMAP
C0
C0
C0
C0
C0
C0
C0
C0
C0
C0
C0
C0
C0
C0
C0
C0
C0
C0
C0
C0
ENDCHAR
STARTCHAR 250C
ENCODING 9484
SWIDTH 1000 0
DWIDTH 20 0
BBX 10 10 10 -2
BITMAP
FFC0
8000
8000
8000
8000
8000
8000
8000
8000
8000
ENDCHAR
STARTCHAR 250F
ENCODING 9487
SWIDTH 1000 0
DWIDTH 20 0
BBX 11 11 9 -2
BITMAP
FFE0
FFE0
C000
C000
C000
C000
C000
C000
C000
C000
C000
ENDCHAR
STARTCHAR 2510
ENCODING 9488
SWIDTH 1000 0
DWIDTH 20 0
BBX 10 10 0 -2
BITMAP
FFC0
0040
0040
0040
0040
0040
0040
0040
0040
0040
ENDCHAR
STARTCHAR 2513
ENCODING 9491
SWIDTH 1000 0
DWIDTH 20 0
BBX 11 11 0 -2
BITMAP
FFE0
FFE0
0060
0060
0060
0060
0060
0060
0060
0060
0060
ENDCHAR
STARTCHAR 2514
ENCODING 9492
SWIDTH 1000 0
DWIDTH 20 0
BBX 10 11 10 7
BITMAP
8000
8000
8000
8000
8000
8000
8000
8000
8000
8000
FFC0
ENDCHAR
STARTCHAR 2517
ENCODING 9495
SWIDTH 1000 0
DWIDTH 20 0
BBX 11 11 9 7
BITMAP
C000
C000
C000
C000
C000
C000
C000
C000
C000
FFE0
FFE0
ENDCHAR
STARTCHAR 2518
ENCODING 9496
SWIDTH 1000 0
DWIDTH 20 0
BBX 10 11 0 7
BITMAP
0040
0040
0040
0040
0040
0040
0040
0040
0040
0040
FFC0
ENDCHAR
STARTCHAR 251B
ENCODING 9499
SWIDTH 1000 0
DWIDTH 20 0
BBX 11 11 0 7
BITMAP
0060
0060
0060
0060
0060
0060
0060
0060
0060
FFE0
FFE0
ENDCHAR
STARTCHAR 251C
ENCODING 9500
SWIDTH 1000 0
DWIDTH 20 0
BBX 10 20 10 -2
BITMAP
8000
8000
8000
8000
8000
8000
8000
8000
8000
8000
FFC0
8000
8000
8000
8000
8000
8000
8000
8000
8000
ENDCHAR
STARTCHAR 251D
ENCODING 9501
SWIDTH 1000 0
DWIDTH 20 0
BBX 10 20 10 -2
BITMAP
8000
8000
8000
8000
8000
8000
8000
8000
8000
FFC0
FFC0
8000
8000
8000
8000
8000
8000
8000
8000
8000
ENDCHAR
STARTCHAR 2520
ENCODING 9504
SWIDTH 1000 0
DWIDTH 20 0
BBX 11 20 9 -2
BITMAP
C000
C000
C000
C000
C000
C000
C000
C000
C000
C000
FFE0
C000
C000
C000
C000
C000
C000
C000
C000
C000
ENDCHAR
STARTCHAR 2523
ENCODING 9507
SWIDTH 1000 0
DWIDTH 20 0
BBX 11 20 9 -2
BITMAP
C000
C000
C000
C000
C000
C000
C000
C000
C000
FFE0
FFE0
C000
C000
C000
C000
C000
C000
C000
C000
C000
ENDCHAR
STARTCHAR 2524
ENCODING 9508
SWIDTH 1000 0
DWIDTH 20 0
BBX 10 20 0 -2
BITMAP
0040
0040
0040
0040
0040
0040
0040
0040
0040
0040
FFC0
0040
0040
0040
0040
0040
0040
0040
0040
0040
ENDCHAR
STARTCHAR 2525
ENCODING 9509
SWIDTH 1000 0
DWIDTH 20 0
BBX 10 20 0 -2
BITMAP
0040
0040
0040
0040
0040
0040
0040
0040
0040
FFC0
FFC0
0040
0040
0040
0040
0040
0040
0040
0040
0040
ENDCHAR
STARTCHAR 2528
ENCODING 9512
SWIDTH 1000 0
DWIDTH 20 0
BBX 11 20 0 -2
BITMAP
0060
0060
0060
0060
0060
0060
0060
0060
0060
0060
FFE0
0060
0060
0060
0060
0060
0060
0060
0060
0060
ENDCHAR
STARTCHAR 252B
ENCODING 9515
SWIDTH 1000 0
DWIDTH 20 0
BBX 11 20 0 -2
BITMAP
0060
0060
0060
0060
0060
0060
0060
0060
0060
FFE0
FFE0
0060
0060
0060
0060
0060
0060
0060
0060
0060
ENDCHAR
STARTCHAR 252C
ENCODING 9516
SWIDTH 1000 0
DWIDTH 20 0
BBX 20 10 0 -2
BITMAP
FFFFF0
002000
002000
002000
002000
002000
002000
002000
002000
002000
ENDCHAR
STARTCHAR 252F
ENCODING 9519
SWIDTH 1000 0
DWIDTH 20 0
BBX 20 11 0 -2
BITMAP
FFFFF0
FFFFF0
002000
002000
002000
002000
002000
002000
002000
002000
002000
ENDCHAR
STARTCHAR 2530
ENCODING 9520
SWIDTH 1000 0
DWIDTH 20 0
BBX 20 10 0 -2
BITMAP
FFFFF0
006000
006000
006000
006000
006000
006000
006000
006000
006000
ENDCHAR
STARTCHAR 2533
ENCODING 9523
SWIDTH 1000 0
DWIDTH 20 0
BBX 20 11 0 -2
BITMAP
FFFFF0
FFFFF0
006000
006000
006000
006000
006000
006000
006000
006000
006000
ENDCHAR
STARTCHAR 2534
ENCODING 9524
SWIDTH 1000 0
DWIDTH 20 0
BBX 20 11 0 7
BITMAP
002000
002000
002000
002000
002000
002000
002000
002000
002000
002000
FFFFF0
ENDCHAR
STARTCHAR 2537
ENCODING 9527
SWIDTH 1000 0
DWIDTH 20 0
BBX 20 11 0 7
BITMAP
002000
002000
002000
002000
002000
002000
002000
002000
002000
FFFFF0
FFFFF0
ENDCHAR
STARTCHAR 2538
ENCODING 9528
SWIDTH 1000 0
DWIDTH 20 0
BBX 20 11 0 7
BITMAP
006000
006000
006000
006000
006000
006000
006000
006000
006000
006000
FFFFF0
ENDCHAR
STARTCHAR 253B
ENCODING 9531
SWIDTH 1000 0
DWIDTH 20 0
BBX 20 11 0 7
BITMAP
006000
006000
006000
006000
006000
006000
006000
006000
006000
FFFFF0
FFFFF0
ENDCHAR
STARTCHAR 253C
ENCODING 9532
SWIDTH 1000 0
DWIDTH 20 0
BBX 20 20 0 -2
BITMAP
002000
002000
002000
002000
002000
002000
002000
002000
002000
002000
FFFFF0
002000
002000
002000
002000
002000
002000
002000
002000
002000
ENDCHAR
STARTCHAR 253F
ENCODING 9535
SWIDTH 1000 0
DWIDTH 20 0
BBX 20 20 0 -2
BITMAP
002000
002000
002000
002000
002000
002000
002000
002000
002000
FFFFF0
FFFFF0
002000
002000
002000
002000
002000
002000
002000
002000
002000
ENDCHAR
STARTCHAR 2542
ENCODING 9538
SWIDTH 1000 0
DWIDTH 20 0
BBX 20 20 0 -2
BITMAP
006000
006000
006000
006000
006000
006000
006000
006000
006000
006000
FFFFF0
006000
006000
006000
006000
006000
006000
006000
006000
006000
ENDCHAR
STARTCHAR 254B
ENCODING 9547
SWIDTH 1000 0
DWIDTH 20 0
BBX 20 20 0 -2
BITMAP
006000
006000
006000
006000
006000
006000
006000
006000
006000
FFFFF0
FFFFF0
006000
006000
006000
006000
006000
006000
006000
006000
006000
ENDCHAR
STARTCHAR 25A0
ENCODING 9632
SWIDTH 1000 0
DWIDTH 20 0
BBX 14 15 3 0
BITMAP
FFFC
FFFC
FFFC
FFFC
FFFC
FFFC
FFFC
FFFC
FFFC
FFFC
FFFC
FFFC
FFFC
FFFC
FFFC
ENDCHAR
STARTCHAR 25A1
ENCODING 9633
SWIDTH 1000 0
DWIDTH 20 0
BBX 14 15 3 0
BITMAP
FFFC
8004
8004
8004
8004
8004
8004
8004
8004
8004
8004
8004
8004
8004
FFFC
ENDCHAR
STARTCHAR 25B1
ENCODING 9649
SWIDTH 500 0
DWIDTH 10 0
BBX 8 5 1 5
BITMAP
3F
41
42
82
FC
ENDCHAR
STARTCHAR 25B2
ENCODING 9650
SWIDTH 1000 0
DWIDTH 20 0
BBX 16 15 2 1
BITMAP
0100
0180
03C0
03C0
07E0
07E0
0FF0
0FF0
1FF8
1FF8
3FFC
3FFC
7FFE
7FFE
FFFF
ENDCHAR
STARTCHAR 25B3
ENCODING 9651
SWIDTH 1000 0
DWIDTH 20 0
BBX 16 15 2 1
BITMAP
0100
0180
0180
03C0
0240
0660
0C30
0C30
1818
1818
300C
300C
6006
6006
FFFF
ENDCHAR
STARTCHAR 25B6
ENCODING 9654
SWIDTH 500 0
DWIDTH 10 0
BBX 8 11 1 2
BITMAP
80
E0
F0
F8
FE
FF
FE
F8
F0
C0
80
ENDCHAR
STARTCHAR 25B7
ENCODING 9655
SWIDTH 500 0
DWIDTH 10 0
BBX 8 11 1 2
BITMAP
80
E0
B0
88
86
81
86
88
B0
C0
80
ENDCHAR
STARTCHAR 25BC
ENCODING 9660
SWIDTH 1000 0
DWIDTH 20 0
BBX 16 15 2 -1
BITMAP
FFFF
7FFE
7FFE
3FFC
3FFC
1FF8
1FF8
0FF0
0FF0
07E0
07E0
03C0
03C0
0180
0100
ENDCHAR
STARTCHAR 25BD
ENCODING 9661
SWIDTH 1000 0
DWIDTH 20 0
BBX 16 15 2 -1
BITMAP
FFFF
6006
6006
300C
300C
1818
1818
0C30
0C30
0660
0240
03C0
0180
0180
0100
ENDCHAR
STARTCHAR 25C0
ENCODING 9664
SWIDTH 500 0
DWIDTH 10 0
BBX 8 11 1 2
BITMAP
01
07
0F
1F
7F
FF
7F
1F
0F
03
01
ENDCHAR
STARTCHAR 25C1
ENCODING 9665
SWIDTH 500 0
DWIDTH 10 0
BBX 8 11 1 2
BITMAP
01
07
0D
11
61
81
61
11
0D
03
01
ENDCHAR
STARTCHAR 25C6
ENCODING 9670
SWIDTH 1000 0
DWIDTH 20 0
BBX 18 17 1 -1
BITMAP
00C000
01E000
03F000
07F800
0FFC00
1FFE00
3FFF00
7FFF80
FFFFC0
7FFF80
3FFF00
1FFE00
0FFC00
07F800
03F000
01E000
00C000
ENDCHAR
STARTCHAR 25C7
ENCODING 9671
SWIDTH 1000 0
DWIDTH 20 0
BBX 18 17 1 -1
BITMAP
00C000
01E000
033000
061800
0C0C00
180600
300300
600180
C000C0
600180
300300
180600
0C0C00
061800
033000
01E000
00C000
ENDCHAR
STARTCHAR 25C9
ENCODING 9673
SWIDTH 500 0
DWIDTH 10 0
BBX 9 9 1 3
BITMAP
3E00
4300
9D80
BE80
BE80
BE80
DD00
6200
3C00
ENDCHAR
STARTCHAR 25CB
ENCODING 9675
SWIDTH 1000 0
DWIDTH 20 0
BBX 16 17 2 -1
BITMAP
07E0
0C30
300C
2004
4002
C003
8001
8001
8001
8001
8001
C002
4002
2004
300C
1C38
07E0
ENDCHAR
STARTCHAR 25CE
ENCODING 9678
SWIDTH 1000 0
DWIDTH 20 0
BBX 16 17 2 -1
BITMAP
07E0
0C30
300C
23C4
4E32
C812
9009
9009
9009
9009
8811
4C32
43C2
2004
300C
0830
07E0
ENDCHAR
STARTCHAR 25CF
ENCODING 9679
SWIDTH 1000 0
DWIDTH 20 0
BBX 17 17 2 -1
BITMAP
03E000
0FF800
1FFE00
3FFE00
7FFF00
7FFF00
FFFF80
FFFF80
FFFF80
FFFF80
FFFF80
7FFF00
7FFF00
3FFE00
3FFE00
0FF800
03E000
ENDCHAR
STARTCHAR 25D0
ENCODING 9680
SWIDTH 500 0
DWIDTH 10 0
BBX 10 9 0 3
BITMAP
1E00
7980
F880
F840
F840
F840
7880
7980
1E00
ENDCHAR
STARTCHAR 25D1
ENCODING 9681
SWIDTH 500 0
DWIDTH 10 0
BBX 10 9 0 3
BITMAP
1E00
6780
4780
87C0
87C0
87C0
47C0
6780
1E00
ENDCHAR
STARTCHAR 25D2
ENCODING 9682
SWIDTH 500 0
DWIDTH 10 0
BBX 10 10 0 3
BITMAP
1E00
6180
4080
C0C0
8040
FFC0
FFC0
7F80
7F80
1E00
ENDCHAR
STARTCHAR 25D3
ENCODING 9683
SWIDTH 500 0
DWIDTH 10 0
BBX 10 10 0 3
BITMAP
1E00
7F80
7F80
FFC0
FFC0
8040
C0C0
4080
6180
1E00
ENDCHAR
STARTCHAR 25E6
ENCODING 9702
SWIDTH 500 0
DWIDTH 10 0
BBX 5 5 3 5
BITMAP
60
90
88
88
70
ENDCHAR
STARTCHAR 25EF
ENCODING 9711
SWIDTH 1000 0
DWIDTH 20 0
BBX 18 19 1 -2
BITMAP
03F000
0C0C00
180600
200100
600180
400080
C00040
800040
800040
800040
800040
800040
C000C0
400080
600180
200100
180600
0C0C00
03F000
ENDCHAR
STARTCHAR 2600
ENCODING 9728
SWIDTH 1000 0
DWIDTH 20 0
BBX 18 19 1 -2
BITMAP
004000
004000
004000
204100
11E200
0FF400
07F800
0FFC00
0FFC00
EFFDC0
0FFC00
07FC00
03F800
09F400
100200
204100
004000
004000
004000
ENDCHAR
STARTCHAR 2601
ENCODING 9729
SWIDTH 1000 0
DWIDTH 20 0
BBX 18 14 1 -1
BITMAP
03C000
07E000
0FF000
0FF380
0FFFC0
0FFFC0
3FFFC0
7FFF80
FFFF00
FFFFC0
FF7FC0
7E7FC0
3C3F80
001F00
ENDCHAR
STARTCHAR 2602
ENCODING 9730
SWIDTH 1000 0
DWIDTH 20 0
BBX 19 19 1 -2
BITMAP
004000
004000
03F800
0FFE00
3FFF80
7FFF80
7FFFC0
CCE620
884220
804000
004000
004000
004000
004000
004000
004000
024000
024000
018000
ENDCHAR
STARTCHAR 2603
ENCODING 9731
SWIDTH 1000 0
DWIDTH 20 0
BBX 18 18 1 -1
BITMAP
818040
083840
184400
004300
C18200
064380
183C00
112200
D12200
500400
09E8C0
900600
A08100
408100
400100
408100
208200
100400
ENDCHAR
STARTCHAR 2605
ENCODING 9733
SWIDTH 1000 0
DWIDTH 20 0
BBX 16 17 2 -1
BITMAP
0100
0180
0180
0180
03C0
03C0
FFFF
7FFE
3FFC
0FF0
0FF0
0FF0
0FF0
1E78
1C18
1008
2004
ENDCHAR
STARTCHAR 2606
ENCODING 9734
SWIDTH 1000 0
DWIDTH 20 0
BBX 16 17 2 -1
BITMAP
0100
0180
0180
0180
0240
0240
FE7F
6006
100C
0C30
0810
0810
0BD0
1668
1818
1008
2004
ENDCHAR
STARTCHAR 260E
ENCODING 9742
SWIDTH 1000 0
DWIDTH 20 0
BBX 19 15 1 0
BITMAP
1FFF00
3FFF80
7B1BC0
7319C0
F3F9E0
07FC00
0F1E00
0E0E00
0C0600
1C0700
3C0780
3E0F80
7F1FC0
7FFFC0
7FFFC0
ENDCHAR
STARTCHAR 2616
ENCODING 9750
SWIDTH 1000 0
DWIDTH 20 0
BBX 16 15 2 1
BITMAP
03C0
0E70
1818
600E
6006
6006
4002
4002
4002
4002
4002
C003
C003
C003
FFFF
ENDCHAR
STARTCHAR 2617
ENCODING 9751
SWIDTH 1000 0
DWIDTH 20 0
BBX 16 16 2 1
BITMAP
0180
07E0
0FF0
3FFC
7FFE
7FFE
7FFE
7FFE
7FFE
7FFE
7FFE
7FFE
FFFF
FFFF
FFFF
FFFF
ENDCHAR
STARTCHAR 261E
ENCODING 9758
SWIDTH 1000 0
DWIDTH 20 0
BBX 18 8 1 4
BITMAP
71CF80
963040
881080
91FF00
9E5200
906C00
9CD400
937800
ENDCHAR
STARTCHAR 2640
ENCODING 9792
SWIDTH 1000 0
DWIDTH 20 0
BBX 12 17 4 -1
BITMAP
1F00
3180
60C0
4040
4040
4040
60C0
3180
0E00
0400
0400
FFF0
0400
0400
0400
0400
0400
ENDCHAR
STARTCHAR 2642
ENCODING 9794
SWIDTH 1000 0
DWIDTH 20 0
BBX 16 16 2 0
BITMAP
007F
0007
000F
001D
0039
0071
0061
3CC0
6380
C100
8080
8080
8080
C180
6300
3E00
ENDCHAR
STARTCHAR 2660
ENCODING 9824
SWIDTH 500 0
DWIDTH 10 0
BBX 8 11 1 3
BITMAP
18
3C
3C
7E
7E
FF
FF
FF
7E
18
3C
ENDCHAR
STARTCHAR 2661
ENCODING 9825
SWIDTH 500 0
DWIDTH 10 0
BBX 8 11 1 1
BITMAP
66
99
99
81
81
81
42
42
24
18
18
ENDCHAR
STARTCHAR 2662
ENCODING 9826
SWIDTH 500 0
DWIDTH 10 0
BBX 8 12 1 2
BITMAP
10
18
24
24
42
C3
81
42
42
24
3C
18
ENDCHAR
STARTCHAR 2663
ENCODING 9827
SWIDTH 500 0
DWIDTH 10 0
BBX 10 11 0 2
BITMAP
0C00
1E00
1E00
1E00
7F80
FFC0
FFC0
FFC0
7F80
0C00
1E00
ENDCHAR
STARTCHAR 2664
ENCODING 9828
SWIDTH 500 0
DWIDTH 10 0
BBX 8 11 1 3
BITMAP
18
24
24
42
82
81
81
99
7E
28
3C
ENDCHAR
STARTCHAR 2665
ENCODING 9829
SWIDTH 500 0
DWIDTH 10 0
BBX 8 11 1 1
BITMAP
66
FF
FF
FF
FF
FE
7E
7E
3C
18
10
ENDCHAR
STARTCHAR 2666
ENCODING 9830
SWIDTH 500 0
DWIDTH 10 0
BBX 8 12 1 2
BITMAP
10
18
3C
3C
7E
FF
FF
7E
7E
3C
3C
18
ENDCHAR
STARTCHAR 2667
ENCODING 9831
SWIDTH 500 0
DWIDTH 10 0
BBX 10 11 0 2
BITMAP
0C00
1200
1200
1200
7380
8040
8040
9240
7580
1400
1E00
ENDCHAR
STARTCHAR 2668
ENCODING 9832
SWIDTH 1000 0
DWIDTH 20 0
BBX 18 16 1 0
BITMAP
008000
090000
091000
111000
111000
119800
088800
0CCC00
044400
244500
C44480
884840
808040
400080
380700
0FFC00
ENDCHAR
STARTCHAR 2669
ENCODING 9833
SWIDTH 500 0
DWIDTH 10 0
BBX 4 11 2 2
BITMAP
10
10
10
10
10
10
10
10
F0
F0
E0
ENDCHAR
STARTCHAR 266A
ENCODING 9834
SWIDTH 1000 0
DWIDTH 20 0
BBX 13 17 4 -1
BITMAP
0400
0600
0700
05C0
04E0
0430
0418
0408
0408
0408
0410
0420
0440
7C00
FC00
F800
7000
ENDCHAR
STARTCHAR 266B
ENCODING 9835
SWIDTH 500 0
DWIDTH 10 0
BBX 8 11 1 3
BITMAP
07
3F
31
21
21
21
21
21
27
E7
E0
ENDCHAR
STARTCHAR 266C
ENCODING 9836
SWIDTH 500 0
DWIDTH 10 0
BBX 8 11 1 3
BITMAP
07
3F
23
3F
31
21
21
21
27
E7
E0
ENDCHAR
STARTCHAR 266D
ENCODING 9837
SWIDTH 1000 0
DWIDTH 20 0
BBX 8 17 7 -1
BITMAP
80
80
80
80
80
80
9E
E3
C3
83
83
86
86
9C
B8
E0
80
ENDCHAR
STARTCHAR 266E
ENCODING 9838
SWIDTH 500 0
DWIDTH 10 0
BBX 4 11 3 2
BITMAP
80
80
B0
F0
90
90
90
F0
90
10
10
ENDCHAR
STARTCHAR 266F
ENCODING 9839
SWIDTH 1000 0
DWIDTH 20 0
BBX 12 17 4 -1
BITMAP
1080
1080
1080
10B0
1FF0
FE80
1080
1080
1080
1090
17F0
FF80
9080
1080
1080
1080
1000
ENDCHAR
STARTCHAR 2713
ENCODING 10003
SWIDTH 1000 0
DWIDTH 20 0
BBX 12 13 5 2
BITMAP
0010
0020
0020
0040
0080
0180
0300
8600
C400
CC00
5800
7000
2000
ENDCHAR
STARTCHAR 2756
ENCODING 10070
SWIDTH 1000 0
DWIDTH 20 0
BBX 18 17 1 -1
BITMAP
00C000
01E000
03F000
07F800
03F000
19E600
3CCF00
7E1F80
FF3FC0
7E1F80
3CCF00
19E600
03F000
07F800
03F000
01E000
00C000
ENDCHAR
STARTCHAR 2776
ENCODING 10102
SWIDTH 1000 0
DWIDTH 20 0
BBX 19 19 0 -2
BITMAP
01F800
07FE00
1FFF00
3F9F80
3E1FC0
7E9FC0
FF9FE0
FF9FE0
FF9FE0
FF9FE0
FF9FE0
FF9FE0
7F9FC0
7F9FC0
7F9FC0
3F9F80
1FFF00
0FFE00
03F800
ENDCHAR
STARTCHAR 2777
ENCODING 10103
SWIDTH 1000 0
DWIDTH 20 0
BBX 19 18 1 -1
BITMAP
03F800
0FFE00
1FFF00
3E0F80
7CE7C0
7DF3C0
F9F3E0
FFF3E0
FFE7E0
FF8FE0
FF1FE0
FE7FE0
7CFFC0
79FFC0
380380
1FFF00
0FFE00
03F800
ENDCHAR
STARTCHAR 2778
ENCODING 10104
SWIDTH 1000 0
DWIDTH 20 0
BBX 19 19 0 -2
BITMAP
03F800
0FFE00
1FFF00
3F0F80
7CE7C0
7DF3C0
FFF3E0
FFE3E0
FF07E0
FF0FE0
FFF3E0
FFFBE0
79FBC0
7CF3C0
3C07C0
3E0F80
1FFF00
0FFE00
01F800
ENDCHAR
STARTCHAR 2779
ENCODING 10105
SWIDTH 1000 0
DWIDTH 20 0
BBX 19 19 1 -2
BITMAP
03F000
0FFE00
1FFF00
3FDF80
7F9FC0
7F1FC0
FE5FC0
FEDFE0
FCDFE0
F9DFE0
F3DFE0
F003E0
7003C0
7FDFC0
7FDFC0
3FDF80
1FFF00
0FFE00
03F800
ENDCHAR
STARTCHAR 277A
ENCODING 10106
SWIDTH 1000 0
DWIDTH 20 0
BBX 19 19 1 -2
BITMAP
03F000
0FFC00
1FFF00
3C0780
7C07C0
7DFFC0
FDFFC0
FD0FE0
FC07E0
F8E3E0
FFF3E0
FFF3E0
7FF3E0
79F3C0
3CE7C0
3E0F80
1FFF00
0FFE00
01F800
ENDCHAR
STARTCHAR 277B
ENCODING 10107
SWIDTH 1000 0
DWIDTH 20 0
BBX 18 19 1 -2
BITMAP
03F000
0FFC00
1FFE00
3F1F00
7EE780
7DE780
F9FFC0
FBFFC0
FA1FC0
F9EFC0
FBF7C0
FBF7C0
FBF7C0
7FF780
7DEF80
3E1F00
1FFE00
0FFC00
03F000
ENDCHAR
STARTCHAR 277C
ENCODING 10108
SWIDTH 1000 0
DWIDTH 20 0
BBX 19 19 0 -2
BITMAP
01F800
07FE00
0FFF00
1FFF80
3C03C0
7FF3C0
7FF7E0
FFE7E0
FFEFE0
FFCFE0
FFCFE0
FFDFE0
FF9FC0
7F9FC0
7F3FC0
3F3F80
1FFF00
0FFE00
03F800
ENDCHAR
STARTCHAR 277D
ENCODING 10109
SWIDTH 1000 0
DWIDTH 20 0
BBX 18 19 1 -2
BITMAP
03F000
0FFC00
1FFE00
3E1F00
7DEF80
7BF780
FBF7C0
F9E7C0
FC0FC0
FC0FC0
F9E7C0
F3F3C0
F3F3C0
73F380
79E780
3C0F00
1FFE00
0FFC00
03F000
ENDCHAR
STARTCHAR 277E
ENCODING 10110
SWIDTH 1000 0
DWIDTH 20 0
BBX 18 18 1 -1
BITMAP
03F000
1FFC00
3F1E00
3C0700
7CE780
79F380
F9F3C0
F9F3C0
F8E3C0
FC03C0
FE13C0
FFF3C0
79E780
7CC780
3C0F00
1E1E00
0FFC00
03F000
ENDCHAR
STARTCHAR 277F
ENCODING 10111
SWIDTH 1000 0
DWIDTH 20 0
BBX 19 19 1 -2
BITMAP
03F000
0FFC00
1FFF00
33C380
639980
63BDC0
F33CC0
F33CE0
F33CE0
F33CE0
F33CE0
F33CE0
733CE0
73BDC0
3399C0
33C380
1FFF00
0FFE00
01F800
ENDCHAR
STARTCHAR 2934
ENCODING 10548
SWIDTH 500 0
DWIDTH 10 0
BBX 8 15 1 1
BITMAP
08
1C
1E
2B
08
08
08
08
08
08
08
08
08
10
F0
ENDCHAR
STARTCHAR 2935
ENCODING 10549
SWIDTH 500 0
DWIDTH 10 0
BBX 8 15 1 -1
BITMAP
F0
10
08
08
08
08
08
08
08
08
08
2B
1E
1C
08
ENDCHAR
STARTCHAR 29BF
ENCODING 10687
SWIDTH 1000 0
DWIDTH 20 0
BBX 16 17 2 -1
BITMAP
07E0
0C30
300C
2004
4002
C3C2
87E1
87E1
87E1
87E1
83C1
4002
4002
2004
300C
0C30
07E0
ENDCHAR
STARTCHAR 29FA
ENCODING 10746
SWIDTH 500 0
DWIDTH 10 0
BBX 8 12 1 2
BITMAP
24
24
24
24
24
24
FF
24
24
24
24
24
ENDCHAR
STARTCHAR 29FB
ENCODING 10747
SWIDTH 500 0
DWIDTH 10 0
BBX 8 12 1 2
BITMAP
52
52
52
52
52
52
FF
52
52
52
52
52
ENDCHAR
STARTCHAR 3000
ENCODING 12288
SWIDTH 1000 0
DWIDTH 20 0
BBX 0 0 0 0
BITMAP
ENDCHAR
STARTCHAR 3001
ENCODING 12289
SWIDTH 1000 0
DWIDTH 20 0
BBX 4 4 1 -1
BITMAP
C0
60
30
10
ENDCHAR
STARTCHAR 3002
ENCODING 12290
SWIDTH 1000 0
DWIDTH 20 0
BBX 5 5 1 -1
BITMAP
70
C8
88
88
70
ENDCHAR
STARTCHAR 3003
ENCODING 12291
SWIDTH 1000 0
DWIDTH 20 0
BBX 9 9 5 3
BITMAP
1980
1980
3100
3300
2300
6200
6600
4400
CC00
ENDCHAR
STARTCHAR 3005
ENCODING 12293
SWIDTH 1000 0
DWIDTH 20 0
BBX 13 13 3 1
BITMAP
0600
0400
0C00
0FF8
1818
1030
2020
6460
C6C0
0380
00C0
0060
0040
ENDCHAR
STARTCHAR 3006
ENCODING 12294
SWIDTH 1000 0
DWIDTH 20 0
BBX 14 15 3 1
BITMAP
0004
000C
0018
0030
1C60
13C0
2180
23C0
6760
4620
4C00
D800
B000
E000
C000
ENDCHAR
STARTCHAR 3007
ENCODING 12295
SWIDTH 1000 0
DWIDTH 20 0
BBX 16 17 2 -1
BITMAP
07E0
0818
300C
2006
4002
C003
8001
8001
8001
8001
8001
C002
4002
6004
3008
1810
07E0
ENDCHAR
STARTCHAR 3008
ENCODING 12296
SWIDTH 1000 0
DWIDTH 20 0
BBX 8 18 11 -1
BITMAP
03
06
0C
08
18
30
60
40
C0
C0
40
60
30
18
08
0C
06
03
ENDCHAR
STARTCHAR 3009
ENCODING 12297
SWIDTH 1000 0
DWIDTH 20 0
BBX 8 18 1 -1
BITMAP
C0
60
30
10
18
0C
06
02
03
03
02
06
0C
18
10
30
60
C0
ENDCHAR
STARTCHAR 300A
ENCODING 12298
SWIDTH 1000 0
DWIDTH 20 0
BBX 8 18 11 -1
BITMAP
09
0B
12
34
24
68
48
D0
B0
B0
D0
48
68
24
34
12
0B
09
ENDCHAR
STARTCHAR 300B
ENCODING 12299
SWIDTH 1000 0
DWIDTH 20 0
BBX 8 18 1 -1
BITMAP
90
D0
48
2C
24
16
12
0B
0D
0D
0B
12
16
24
2C
48
D0
90
ENDCHAR
STARTCHAR 300C
ENCODING 12300
SWIDTH 1000 0
DWIDTH 20 0
BBX 5 15 13 2
BITMAP
F8
80
80
80
80
80
80
80
80
80
80
80
80
80
80
ENDCHAR
STARTCHAR 300D
ENCODING 12301
SWIDTH 1000 0
DWIDTH 20 0
BBX 5 14 2 -1
BITMAP
08
08
08
08
08
08
08
08
08
08
08
08
08
F8
ENDCHAR
STARTCHAR 300E
ENCODING 12302
SWIDTH 1000 0
DWIDTH 20 0
BBX 7 15 12 2
BITMAP
FE
82
82
BE
A0
A0
A0
A0
A0
A0
A0
A0
A0
A0
E0
ENDCHAR
STARTCHAR 300F
ENCODING 12303
SWIDTH 1000 0
DWIDTH 20 0
BBX 7 14 1 -1
BITMAP
0E
0A
0A
0A
0A
0A
0A
0A
0A
0A
0A
FA
82
FE
ENDCHAR
STARTCHAR 3010
ENCODING 12304
SWIDTH 1000 0
DWIDTH 20 0
BBX 4 18 14 -1
BITMAP
F0
E0
E0
C0
C0
80
80
80
80
80
80
80
80
C0
C0
E0
E0
F0
ENDCHAR
STARTCHAR 3011
ENCODING 12305
SWIDTH 1000 0
DWIDTH 20 0
BBX 4 18 2 -1
BITMAP
F0
70
70
30
30
10
10
10
10
10
10
10
10
30
30
70
70
F0
ENDCHAR
STARTCHAR 3012
ENCODING 12306
SWIDTH 1000 0
DWIDTH 20 0
BBX 14 16 3 -1
BITMAP
FFFC
FFFC
0000
0000
0000
FFFC
FFFC
0300
0300
0300
0300
0300
0300
0300
0300
0300
ENDCHAR
STARTCHAR 3013
ENCODING 12307
SWIDTH 1000 0
DWIDTH 20 0
BBX 14 9 3 3
BITMAP
FFFC
FFFC
FFFC
0000
0000
0000
FFFC
FFFC
FFFC
ENDCHAR
STARTCHAR 3014
ENCODING 12308
SWIDTH 1000 0
DWIDTH 20 0
BBX 4 17 14 -1
BITMAP
30
E0
80
80
80
80
80
80
80
80
80
80
80
80
80
E0
30
ENDCHAR
STARTCHAR 3015
ENCODING 12309
SWIDTH 1000 0
DWIDTH 20 0
BBX 4 17 2 -1
BITMAP
C0
70
10
10
10
10
10
10
10
10
10
10
10
10
10
70
C0
ENDCHAR
STARTCHAR 3016
ENCODING 12310
SWIDTH 1000 0
DWIDTH 20 0
BBX 6 18 12 -1
BITMAP
FC
88
98
90
90
A0
A0
A0
A0
A0
A0
A0
A0
90
90
98
88
FC
ENDCHAR
STARTCHAR 3017
ENCODING 12311
SWIDTH 1000 0
DWIDTH 20 0
BBX 6 18 2 -1
BITMAP
FC
44
64
24
24
14
14
14
14
14
14
14
14
24
24
64
44
FC
ENDCHAR
STARTCHAR 3018
ENCODING 12312
SWIDTH 1000 0
DWIDTH 20 0
BBX 7 18 12 -2
BITMAP
02
0E
72
82
8E
90
90
90
90
90
90
90
90
90
8E
C2
32
0E
ENDCHAR
STARTCHAR 3019
ENCODING 12313
SWIDTH 1000 0
DWIDTH 20 0
BBX 7 18 1 -2
BITMAP
80
E0
9C
82
E2
12
12
12
12
12
12
12
12
12
E2
86
98
E0
ENDCHAR
STARTCHAR 301C
ENCODING 12316
SWIDTH 1000 0
DWIDTH 20 0
BBX 16 5 2 5
BITMAP
3C00
C300
8181
00C6
003C
ENDCHAR
STARTCHAR 301D
ENCODING 12317
SWIDTH 1000 0
DWIDTH 20 0
BBX 6 8 13 8
BITMAP
40
E0
30
18
44
E0
30
0C
ENDCHAR
STARTCHAR 301F
ENCODING 12319
SWIDTH 1000 0
DWIDTH 20 0
BBX 6 9 1 -2
BITMAP
80
60
30
1C
88
60
38
18
08
ENDCHAR
STARTCHAR 3020
ENCODING 12320
SWIDTH 1000 0
DWIDTH 20 0
BBX 18 14 1 0
BITMAP
3FFF00
3FFF00
000000
3FFF00
3FFF00
00C000
8CCC40
94CA40
DCCEC0
44C900
241100
122200
0DCC00
03F000
ENDCHAR
STARTCHAR 3033
ENCODING 12339
SWIDTH 1000 0
DWIDTH 20 0
BBX 9 17 4 -1
BITMAP
0180
0180
0180
0300
0300
0600
0600
0400
0C00
0C00
1800
1800
3000
3000
6000
6000
C000
ENDCHAR
STARTCHAR 3034
ENCODING 12340
SWIDTH 1000 0
DWIDTH 20 0
BBX 13 17 4 -1
BITMAP
0180
0180
0180
0300
0300
0600
0600
0430
0CD8
0C40
1860
1800
3000
3000
6000
6000
C000
ENDCHAR
STARTCHAR 3035
ENCODING 12341
SWIDTH 1000 0
DWIDTH 20 0
BBX 10 18 4 -1
BITMAP
C000
6000
6000
3000
3000
1800
1800
0C00
0C00
0600
0600
0300
0300
0180
0180
01C0
00C0
00C0
ENDCHAR
STARTCHAR 303B
ENCODING 12347
SWIDTH 1000 0
DWIDTH 20 0
BBX 7 13 7 1
BITMAP
C0
60
30
1C
78
80
80
C0
60
18
3E
E0
80
ENDCHAR
STARTCHAR 303C
ENCODING 12348
SWIDTH 1000 0
DWIDTH 20 0
BBX 16 17 2 -1
BITMAP
FFFF
8003
8007
800D
8019
8031
8061
80C1
8181
8301
8601
8C01
9801
B001
E001
C001
FFFF
ENDCHAR
STARTCHAR 303D
ENCODING 12349
SWIDTH 1000 0
DWIDTH 20 0
BBX 15 17 3 -2
BITMAP
E000
B300
1480
1880
08C0
0040
0040
0060
0060
0020
0030
0030
0010
0018
0008
000C
0006
ENDCHAR
STARTCHAR 3041
ENCODING 12353
SWIDTH 1000 0
DWIDTH 20 0
BBX 12 13 4 -1
BITMAP
0800
0800
1F80
FE00
1900
1FC0
1B60
3210
5610
9410
9810
9860
E3C0
ENDCHAR
STARTCHAR 3042
ENCODING 12354
SWIDTH 1000 0
DWIDTH 20 0
BBX 16 17 2 -1
BITMAP
0600
0600
0470
7FE0
0400
0460
05F0
075C
1CC2
3481
6581
4701
C601
CC02
DC0E
F478
0040
ENDCHAR
STARTCHAR 3043
ENCODING 12355
SWIDTH 1000 0
DWIDTH 20 0
BBX 12 11 4 0
BITMAP
8000
80C0
8040
8060
C020
C030
C410
4400
6C00
3800
3800
ENDCHAR
STARTCHAR 3044
ENCODING 12356
SWIDTH 1000 0
DWIDTH 20 0
BBX 16 13 2 0
BITMAP
C000
C030
4018
400C
400C
4006
6006
6003
6103
2300
3200
1E00
1C00
ENDCHAR
STARTCHAR 3045
ENCODING 12357
SWIDTH 1000 0
DWIDTH 20 0
BBX 9 14 5 -1
BITMAP
1800
1E00
0200
0000
3F00
E180
8080
0080
0080
0180
0100
0300
0E00
1800
ENDCHAR
STARTCHAR 3046
ENCODING 12358
SWIDTH 1000 0
DWIDTH 20 0
BBX 11 17 4 -1
BITMAP
1800
0F00
0380
0000
0000
1F80
F840
C020
0020
0020
0020
0060
0040
00C0
0180
0F00
0C00
ENDCHAR
STARTCHAR 3047
ENCODING 12359
SWIDTH 1000 0
DWIDTH 20 0
BBX 12 13 4 -1
BITMAP
0800
0E00
0300
0000
1F00
3900
0200
0400
0F00
1900
3100
6100
C1F0
ENDCHAR
STARTCHAR 3048
ENCODING 12360
SWIDTH 1000 0
DWIDTH 20 0
BBX 15 17 2 -1
BITMAP
0600
0780
01C0
0040
0000
3FE0
1E60
00C0
0180
0300
07C0
0E40
1840
3040
6040
C03E
4000
ENDCHAR
STARTCHAR 3049
ENCODING 12361
SWIDTH 1000 0
DWIDTH 20 0
BBX 14 12 3 -1
BITMAP
0C00
0C20
0FB8
7F0C
0C00
0DE0
0E10
3C08
CC08
8C08
CC30
3DE0
ENDCHAR
STARTCHAR 304A
ENCODING 12362
SWIDTH 1000 0
DWIDTH 20 0
BBX 17 15 2 -1
BITMAP
060000
060800
060E00
7FE700
7E0180
060000
060000
07FC00
0F0200
3E0100
460100
860100
860300
460E00
3E7800
ENDCHAR
STARTCHAR 304B
ENCODING 12363
SWIDTH 1000 0
DWIDTH 20 0
BBX 17 16 2 -1
BITMAP
040000
060000
060000
040800
040C00
FFC600
CC6600
082300
182180
182180
102000
302000
206000
604000
44C000
478000
ENDCHAR
STARTCHAR 304C
ENCODING 12364
SWIDTH 1000 0
DWIDTH 20 0
BBX 17 16 2 0
BITMAP
040180
060480
060600
041A00
041800
FFCC00
CC6600
082200
182300
182100
102000
302000
206000
604000
44C000
478000
ENDCHAR
STARTCHAR 304D
ENCODING 12365
SWIDTH 1000 0
DWIDTH 20 0
BBX 13 17 4 0
BITMAP
1800
0C40
0DE0
FF00
E610
03F8
0FC0
FD80
0080
00C0
03E0
40E0
4000
4000
2000
3040
0FC0
ENDCHAR
STARTCHAR 304E
ENCODING 12366
SWIDTH 1000 0
DWIDTH 20 0
BBX 15 17 4 0
BITMAP
1816
0C5A
0DEC
FF00
E610
03F8
0FC0
FD80
0080
00C0
03E0
40E0
4000
4000
2000
3040
0FC0
ENDCHAR
STARTCHAR 304F
ENCODING 12367
SWIDTH 1000 0
DWIDTH 20 0
BBX 9 16 5 0
BITMAP
0300
0600
0C00
1C00
3800
7000
C000
C000
6000
3000
1800
0C00
0600
0300
0380
0100
ENDCHAR
STARTCHAR 3050
ENCODING 12368
SWIDTH 1000 0
DWIDTH 20 0
BBX 13 16 5 0
BITMAP
0300
0610
0CD8
1C68
3820
7000
C000
C000
6000
3000
1800
0C00
0600
0300
0380
0100
ENDCHAR
STARTCHAR 3051
ENCODING 12369
SWIDTH 1000 0
DWIDTH 20 0
BBX 15 16 3 -1
BITMAP
6030
4030
4030
C030
803E
87F0
8010
8010
8010
B010
A010
E030
E020
4060
41C0
0100
ENDCHAR
STARTCHAR 3052
ENCODING 12370
SWIDTH 1000 0
DWIDTH 20 0
BBX 16 17 3 0
BITMAP
000D
6035
4034
4030
C030
803E
87F0
8010
8010
8010
B010
A010
E020
E020
4040
41C0
0300
ENDCHAR
STARTCHAR 3053
ENCODING 12371
SWIDTH 1000 0
DWIDTH 20 0
BBX 12 14 4 0
BITMAP
4060
7FE0
0300
0600
0000
0000
0000
4000
C000
8000
8000
8000
6030
1FF0
ENDCHAR
STARTCHAR 3054
ENCODING 12372
SWIDTH 1000 0
DWIDTH 20 0
BBX 15 16 4 0
BITMAP
0004
0016
405A
7FE8
0300
0600
0000
0000
0000
4000
C000
8000
8000
8000
6030
1FF0
ENDCHAR
STARTCHAR 3055
ENCODING 12373
SWIDTH 1000 0
DWIDTH 20 0
BBX 13 16 3 -1
BITMAP
0600
0600
0218
0378
FFC0
FD80
00C0
0040
0060
01F0
0078
6010
6000
2000
3800
0FE0
ENDCHAR
STARTCHAR 3056
ENCODING 12374
SWIDTH 1000 0
DWIDTH 20 0
BBX 16 17 3 0
BITMAP
0002
060B
0605
0216
0378
FFC0
FD80
00C0
0040
0060
01F0
0078
6010
6000
2000
3800
0FE0
ENDCHAR
STARTCHAR 3057
ENCODING 12375
SWIDTH 1000 0
DWIDTH 20 0
BBX 12 16 5 -1
BITMAP
C000
C000
C000
C000
C000
C000
C000
C000
C000
C000
C030
C030
C060
C0C0
6180
3E00
ENDCHAR
STARTCHAR 3058
ENCODING 12376
SWIDTH 1000 0
DWIDTH 20 0
BBX 12 16 5 0
BITMAP
C060
C020
C190
C0C0
C000
C000
C000
C000
C000
C000
C030
C030
C060
C0C0
6180
3E00
ENDCHAR
STARTCHAR 3059
ENCODING 12377
SWIDTH 1000 0
DWIDTH 20 0
BBX 16 18 2 -2
BITMAP
00C0
00C0
00C0
00CF
FFFF
00C0
00C0
07C0
0CC0
08C0
08C0
0CC0
0740
00C0
0180
0300
0E00
0400
ENDCHAR
STARTCHAR 305A
ENCODING 12378
SWIDTH 1000 0
DWIDTH 20 0
BBX 17 19 2 -1
BITMAP
000300
00C900
00CD80
00C400
00CF00
FFFF00
00C000
00C000
07C000
0CC000
08C000
08C000
0CC000
074000
00C000
018000
030000
0E0000
040000
ENDCHAR
STARTCHAR 305B
ENCODING 12379
SWIDTH 1000 0
DWIDTH 20 0
BBX 17 15 1 0
BITMAP
001800
0C1800
0C1800
0C1800
0C1F80
FFFF80
0C1800
0C1800
0C1800
0C5800
0C7800
0C0000
0C0000
0E0200
07FE00
ENDCHAR
STARTCHAR 305C
ENCODING 12380
SWIDTH 1000 0
DWIDTH 20 0
BBX 18 15 1 1
BITMAP
0018C0
0C1B40
0C1900
0C1800
0C1F80
FFFF80
0C1800
0C1800
0C1800
0C5800
0C7800
0C0000
0C0000
0E0200
07FE00
ENDCHAR
STARTCHAR 305D
ENCODING 12381
SWIDTH 1000 0
DWIDTH 20 0
BBX 15 16 2 0
BITMAP
03F0
1FB0
0060
00C0
0100
067E
7FF0
F080
0100
0200
0200
0200
0200
0180
00F8
0038
ENDCHAR
STARTCHAR 305E
ENCODING 12382
SWIDTH 1000 0
DWIDTH 20 0
BBX 17 16 2 0
BITMAP
03F100
1FB580
006680
00C200
010000
067E00
7FF000
F08000
010000
020000
020000
020000
020000
018000
00F800
003800
ENDCHAR
STARTCHAR 305F
ENCODING 12383
SWIDTH 1000 0
DWIDTH 20 0
BBX 16 16 2 -1
BITMAP
0600
0600
0600
07C0
FF80
0C00
081E
08FE
1800
1000
1000
3000
2100
6180
60C1
C07F
ENDCHAR
STARTCHAR 3060
ENCODING 12384
SWIDTH 1000 0
DWIDTH 20 0
BBX 17 16 2 -1
BITMAP
060200
060B00
060D80
07C400
FF8400
0C0000
081E00
08FE00
180000
100000
100000
300000
210000
618000
60C100
C07F00
ENDCHAR
STARTCHAR 3061
ENCODING 12385
SWIDTH 1000 0
DWIDTH 20 0
BBX 15 16 2 -1
BITMAP
0600
0600
0400
FFF0
FF80
0C00
0800
0800
19F8
1704
3C02
1002
0002
0004
003C
07F0
ENDCHAR
STARTCHAR 3062
ENCODING 12386
SWIDTH 1000 0
DWIDTH 20 0
BBX 17 16 2 0
BITMAP
060100
060580
040680
FFF200
FF8000
0C0000
080000
080000
19F800
170400
3C0200
100200
000200
000400
003C00
07F000
ENDCHAR
STARTCHAR 3063
ENCODING 12387
SWIDTH 1000 0
DWIDTH 20 0
BBX 12 9 4 0
BITMAP
1FC0
F020
8010
0010
0010
0030
0060
01C0
1F00
ENDCHAR
STARTCHAR 3064
ENCODING 12388
SWIDTH 1000 0
DWIDTH 20 0
BBX 15 12 2 0
BITMAP
07F0
7C0C
E004
8002
0002
0002
0002
0006
000C
0038
07F0
0780
ENDCHAR
STARTCHAR 3065
ENCODING 12389
SWIDTH 1000 0
DWIDTH 20 0
BBX 17 16 2 0
BITMAP
000200
000300
000D80
000600
07F000
7C0C00
E00400
800200
000200
000200
000200
000600
000C00
003800
07F000
078000
ENDCHAR
STARTCHAR 3066
ENCODING 12390
SWIDTH 1000 0
DWIDTH 20 0
BBX 15 14 2 0
BITMAP
01FE
FFF8
E0C0
0100
0200
0200
0400
0400
0400
0400
0600
0300
01E0
0078
ENDCHAR
STARTCHAR 3067
ENCODING 12391
SWIDTH 1000 0
DWIDTH 20 0
BBX 16 14 2 0
BITMAP
01FE
FFF8
E0C0
0106
021B
020D
0404
0400
0400
0400
0600
0300
01E0
0078
ENDCHAR
STARTCHAR 3068
ENCODING 12392
SWIDTH 1000 0
DWIDTH 20 0
BBX 12 16 4 0
BITMAP
1000
3000
1000
1800
1800
0860
0FE0
0E00
3800
6000
4000
8000
8000
8000
6010
3FF0
ENDCHAR
STARTCHAR 3069
ENCODING 12393
SWIDTH 1000 0
DWIDTH 20 0
BBX 14 16 4 1
BITMAP
1008
302C
1034
1818
1800
0860
0FE0
0E00
3800
6000
4000
8000
8000
8000
6010
3FF0
ENDCHAR
STARTCHAR 306A
ENCODING 12394
SWIDTH 1000 0
DWIDTH 20 0
BBX 16 17 2 0
BITMAP
0600
0400
0400
0F88
7F0E
0803
1831
1030
3030
2030
6030
41F0
C63C
043F
0633
0730
01E0
ENDCHAR
STARTCHAR 306B
ENCODING 12395
SWIDTH 1000 0
DWIDTH 20 0
BBX 15 15 3 -1
BITMAP
6000
4000
43FC
C380
C000
8000
8000
8000
8000
B200
A200
E200
C100
C0FE
C000
ENDCHAR
STARTCHAR 306C
ENCODING 12396
SWIDTH 1000 0
DWIDTH 20 0
BBX 17 16 2 0
BITMAP
008000
00C000
408000
41E000
67F800
398600
318200
710100
530100
DA0100
8E0100
8C7B00
8E8E00
988700
708D80
007800
ENDCHAR
STARTCHAR 306D
ENCODING 12397
SWIDTH 1000 0
DWIDTH 20 0
BBX 17 16 1 0
BITMAP
080000
0C0000
0C0000
083C00
FCC600
ED0200
0A0100
0C0100
0C0100
180100
380100
687B00
C88700
088380
0CC680
0C7800
ENDCHAR
STARTCHAR 306E
ENCODING 12398
SWIDTH 1000 0
DWIDTH 20 0
BBX 16 14 2 0
BITMAP
07F0
1D98
3186
6182
4181
C101
8101
8301
8201
8602
8406
4C0C
38F8
00E0
ENDCHAR
STARTCHAR 306F
ENCODING 12399
SWIDTH 1000 0
DWIDTH 20 0
BBX 15 15 3 0
BITMAP
4020
4020
4020
C03E
87FC
8020
8020
8020
8020
B020
A3E0
E43C
C42E
C622
C3E0
ENDCHAR
STARTCHAR 3070
ENCODING 12400
SWIDTH 1000 0
DWIDTH 20 0
BBX 17 16 3 0
BITMAP
000B00
602580
402600
402000
C03E00
C7FC00
802000
802000
802000
802000
B02000
A3E000
E43C00
C42E00
C62200
C3E000
ENDCHAR
STARTCHAR 3071
ENCODING 12401
SWIDTH 1000 0
DWIDTH 20 0
BBX 17 17 3 -1
BITMAP
000700
000880
602880
402700
402000
C03E00
C7FC00
802000
802000
802000
802000
B02000
A3E000
E43C00
C42E00
C62200
C3E000
ENDCHAR
STARTCHAR 3072
ENCODING 12402
SWIDTH 1000 0
DWIDTH 20 0
BBX 17 15 1 0
BITMAP
030800
0F0C00
FA0C00
440600
080700
180700
100580
200480
200400
200400
200C00
200800
101800
083000
07C000
ENDCHAR
STARTCHAR 3073
ENCODING 12403
SWIDTH 1000 0
DWIDTH 20 0
BBX 18 17 1 -1
BITMAP
000080
0002C0
030B40
0F0D00
FA0C00
440600
080700
180700
100580
200480
200400
200400
200C00
200800
101800
083000
07C000
ENDCHAR
STARTCHAR 3074
ENCODING 12404
SWIDTH 1000 0
DWIDTH 20 0
BBX 19 17 1 -1
BITMAP
0001C0
000220
030A20
0F0E20
FA0DC0
440600
080700
180700
100580
200480
200400
200400
200C00
200800
101800
083000
07C000
ENDCHAR
STARTCHAR 3075
ENCODING 12405
SWIDTH 1000 0
DWIDTH 20 0
BBX 17 16 1 0
BITMAP
030000
03C000
00E000
002000
000000
018000
018000
008400
18C600
304300
302300
603180
601080
C41080
061000
03E000
ENDCHAR
STARTCHAR 3076
ENCODING 12406
SWIDTH 1000 0
DWIDTH 20 0
BBX 17 16 1 1
BITMAP
030180
03C680
00E280
002200
000000
018000
018000
008400
18C600
304300
302300
603180
601080
C41080
061000
03E000
ENDCHAR
STARTCHAR 3077
ENCODING 12407
SWIDTH 1000 0
DWIDTH 20 0
BBX 17 16 1 0
BITMAP
030300
03C480
00E480
002480
000300
018000
018000
008400
18C600
304300
302300
603180
601080
C41080
061000
03E000
ENDCHAR
STARTCHAR 3078
ENCODING 12408
SWIDTH 1000 0
DWIDTH 20 0
BBX 17 9 2 2
BITMAP
060000
0F0000
198000
30C000
607000
C03800
800E00
000780
000100
ENDCHAR
STARTCHAR 3079
ENCODING 12409
SWIDTH 1000 0
DWIDTH 20 0
BBX 17 11 2 3
BITMAP
000C00
003600
061A00
0F0800
198000
30C000
607000
C03800
800E00
000780
000100
ENDCHAR
STARTCHAR 307A
ENCODING 12410
SWIDTH 1000 0
DWIDTH 20 0
BBX 17 11 2 2
BITMAP
000E00
001200
061200
0F0C00
198000
30C000
607000
C03800
800E00
000780
000100
ENDCHAR
STARTCHAR 307B
ENCODING 12411
SWIDTH 1000 0
DWIDTH 20 0
BBX 16 15 2 0
BITMAP
6006
63FE
4010
4010
4011
87FF
8010
8010
8010
9010
B3F0
F41C
E417
6611
63F0
ENDCHAR
STARTCHAR 307C
ENCODING 12412
SWIDTH 1000 0
DWIDTH 20 0
BBX 17 16 3 0
BITMAP
000500
400F80
47FA00
C02000
C02000
802200
8FFE00
802000
802000
802000
A02000
A7E000
E83800
C82E00
CC2200
C7E000
ENDCHAR
STARTCHAR 307D
ENCODING 12413
SWIDTH 1000 0
DWIDTH 20 0
BBX 17 17 3 -1
BITMAP
000700
000880
400880
47F700
C02000
C02000
802200
8FFE00
802000
802000
802000
A02000
A7E000
E83800
C82E00
CC2200
C7E000
ENDCHAR
STARTCHAR 307E
ENCODING 12414
SWIDTH 1000 0
DWIDTH 20 0
BBX 13 16 3 0
BITMAP
0100
0100
0108
FFF8
0100
0100
0118
7FF8
0100
0100
0100
3F00
C1E0
8170
C118
3E00
ENDCHAR
STARTCHAR 307F
ENCODING 12415
SWIDTH 1000 0
DWIDTH 20 0
BBX 17 14 2 0
BITMAP
3F8000
308000
018000
018400
010400
030400
1FFC00
663C00
C40F00
8C0B80
881800
983000
706000
00C000
ENDCHAR
STARTCHAR 3080
ENCODING 12416
SWIDTH 1000 0
DWIDTH 20 0
BBX 17 16 2 0
BITMAP
080000
080000
088000
FF8C00
080600
080300
080180
380000
440000
C40C00
840C00
C80400
700400
100400
100C00
0FF000
ENDCHAR
STARTCHAR 3081
ENCODING 12417
SWIDTH 1000 0
DWIDTH 20 0
BBX 16 15 2 0
BITMAP
0040
2040
20C0
37F8
3C86
3082
7981
5901
CF01
8E01
8603
8E02
9A06
7038
00F0
ENDCHAR
STARTCHAR 3082
ENCODING 12418
SWIDTH 1000 0
DWIDTH 20 0
BBX 14 17 2 -1
BITMAP
0600
0600
0400
0400
FFE0
0C00
0C00
0C00
7DC0
7FCC
0804
0804
0804
0804
0804
0618
03F0
ENDCHAR
STARTCHAR 3083
ENCODING 12419
SWIDTH 1000 0
DWIDTH 20 0
BBX 13 14 3 -1
BITMAP
0200
0300
3180
10F0
1F08
3C08
E808
0C38
04E0
0600
0600
0200
0300
0300
ENDCHAR
STARTCHAR 3084
ENCODING 12420
SWIDTH 1000 0
DWIDTH 20 0
BBX 16 17 2 0
BITMAP
0100
01C0
30E0
1040
187E
1F83
3C01
FC01
8403
060E
067C
0200
0300
0300
0100
0180
0180
ENDCHAR
STARTCHAR 3085
ENCODING 12421
SWIDTH 1000 0
DWIDTH 20 0
BBX 12 13 4 -2
BITMAP
0300
C100
C7C0
9D60
B130
A110
C110
8910
8D20
87C0
8200
0600
0C00
ENDCHAR
STARTCHAR 3086
ENCODING 12422
SWIDTH 1000 0
DWIDTH 20 0
BBX 16 16 2 -1
BITMAP
0040
6040
4040
C1F8
8766
8C22
9821
9021
E021
E421
C662
C3FC
40F8
40C0
0180
0380
ENDCHAR
STARTCHAR 3087
ENCODING 12423
SWIDTH 1000 0
DWIDTH 20 0
BBX 11 12 4 0
BITMAP
0600
0600
0600
07E0
0600
0600
0600
0600
7F00
87E0
8660
7C00
ENDCHAR
STARTCHAR 3088
ENCODING 12424
SWIDTH 1000 0
DWIDTH 20 0
BBX 14 16 3 -1
BITMAP
0300
0300
0300
0300
03F8
03C0
0300
0300
0300
0300
3F00
43C0
8370
831C
4708
3E00
ENDCHAR
STARTCHAR 3089
ENCODING 12425
SWIDTH 1000 0
DWIDTH 20 0
BBX 13 17 4 0
BITMAP
1800
0E00
0300
4100
6000
6000
4000
4000
47E0
DC10
F008
E008
0008
0010
00F0
0FC0
0E00
ENDCHAR
STARTCHAR 308A
ENCODING 12426
SWIDTH 1000 0
DWIDTH 20 0
BBX 11 16 4 -2
BITMAP
4060
4060
C020
8020
8020
8020
8820
9820
B820
F020
6060
0040
00C0
0180
0700
0E00
ENDCHAR
STARTCHAR 308B
ENCODING 12427
SWIDTH 1000 0
DWIDTH 20 0
BBX 14 16 3 -1
BITMAP
03C0
3FC0
01C0
0180
0300
0600
0FE0
1C18
3008
E004
C004
0F04
118C
10B8
18F0
0FC0
ENDCHAR
STARTCHAR 308C
ENCODING 12428
SWIDTH 1000 0
DWIDTH 20 0
BBX 17 17 1 -1
BITMAP
0C0000
0C0000
0C0000
0C3800
FEC400
4D8400
0F0400
0E0400
0C0800
180800
380800
680800
C80880
480980
080F00
080600
080000
ENDCHAR
STARTCHAR 308D
ENCODING 12429
SWIDTH 1000 0
DWIDTH 20 0
BBX 13 16 4 -1
BITMAP
0380
7FC0
0180
0300
0600
0C00
1BE0
3C10
7008
E008
8008
0008
0010
00F0
1FC0
1C00
ENDCHAR
STARTCHAR 308E
ENCODING 12430
SWIDTH 1000 0
DWIDTH 20 0
BBX 13 12 3 0
BITMAP
1800
1800
1800
F9E0
1610
1808
3008
7008
D008
9010
1060
1180
ENDCHAR
STARTCHAR 308F
ENCODING 12431
SWIDTH 1000 0
DWIDTH 20 0
BBX 16 16 2 0
BITMAP
0C00
0C00
0C00
0C00
FE00
ECF8
0B86
0E02
0C01
1801
3801
6801
C802
080E
0C38
0C60
ENDCHAR
STARTCHAR 3090
ENCODING 12432
SWIDTH 1000 0
DWIDTH 20 0
BBX 16 16 2 -1
BITMAP
01C0
1FC0
00C0
00C0
0080
07F0
1D0C
3302
6201
4601
8401
8CF1
991B
910E
618C
00F8
ENDCHAR
STARTCHAR 3091
ENCODING 12433
SWIDTH 1000 0
DWIDTH 20 0
BBX 18 16 1 -1
BITMAP
003000
0FF000
006000
018000
03F800
070600
1C0200
33C200
244600
04CC00
03F000
060000
1F1E00
31A300
60C180
C0C0C0
ENDCHAR
STARTCHAR 3092
ENCODING 12434
SWIDTH 1000 0
DWIDTH 20 0
BBX 14 17 3 0
BITMAP
0600
0400
04C0
FFC0
0800
1800
3700
398C
60F8
41C0
C780
0C80
1880
1000
1000
0808
07F8
ENDCHAR
STARTCHAR 3093
ENCODING 12435
SWIDTH 1000 0
DWIDTH 20 0
BBX 16 16 2 0
BITMAP
0180
0100
0300
0200
0600
0400
0C00
0B80
1CC0
18C0
3041
3043
6043
4046
C064
4038
ENDCHAR
STARTCHAR 3094
ENCODING 12436
SWIDTH 1000 0
DWIDTH 20 0
BBX 15 17 4 -1
BITMAP
180C
0F16
039A
0008
0000
1F80
F840
C020
0020
0020
0020
0060
0040
00C0
0180
0F00
0C00
ENDCHAR
STARTCHAR 3095
ENCODING 12437
SWIDTH 1000 0
DWIDTH 20 0
BBX 12 13 4 0
BITMAP
1800
1800
1000
1040
FE60
3330
2110
2110
6100
4100
C100
9200
9E00
ENDCHAR
STARTCHAR 3096
ENCODING 12438
SWIDTH 1000 0
DWIDTH 20 0
BBX 13 14 4 0
BITMAP
4040
4040
4040
C058
8FF8
8040
8040
8040
A040
A040
C080
C180
4300
0200
ENDCHAR
STARTCHAR 3099
ENCODING 12441
SWIDTH 1000 0
DWIDTH 20 0
BBX 5 4 13 12
BITMAP
18
C8
68
20
ENDCHAR
STARTCHAR 309A
ENCODING 12442
SWIDTH 1000 0
DWIDTH 20 0
BBX 4 5 14 12
BITMAP
60
90
90
90
60
ENDCHAR
STARTCHAR 309B
ENCODING 12443
SWIDTH 1000 0
DWIDTH 20 0
BBX 5 5 1 11
BITMAP
20
30
98
C0
40
ENDCHAR
STARTCHAR 309C
ENCODING 12444
SWIDTH 1000 0
DWIDTH 20 0
BBX 4 5 1 12
BITMAP
60
90
90
90
60
ENDCHAR
STARTCHAR 309D
ENCODING 12445
SWIDTH 1000 0
DWIDTH 20 0
BBX 8 10 6 3
BITMAP
C0
70
38
0C
06
03
03
0E
3C
70
ENDCHAR
STARTCHAR 309E
ENCODING 12446
SWIDTH 1000 0
DWIDTH 20 0
BBX 10 13 6 2
BITMAP
0100
0180
06C0
C300
7100
3800
0C00
0600
0300
0300
0E00
3C00
7000
ENDCHAR
STARTCHAR 309F
ENCODING 12447
SWIDTH 1000 0
DWIDTH 20 0
BBX 11 17 5 0
BITMAP
0C00
0C00
0800
1FE0
1000
1000
3000
2F00
7080
6040
C040
0040
0040
40C0
6080
2100
1E00
ENDCHAR
STARTCHAR 30A0
ENCODING 12448
SWIDTH 1000 0
DWIDTH 20 0
BBX 8 5 6 5
BITMAP
FF
00
00
00
FF
ENDCHAR
STARTCHAR 30A1
ENCODING 12449
SWIDTH 1000 0
DWIDTH 20 0
BBX 12 12 4 -1
BITMAP
FFE0
FFF0
0020
0460
04C0
0580
0D00
0C00
0800
1800
7000
4000
ENDCHAR
STARTCHAR 30A2
ENCODING 12450
SWIDTH 1000 0
DWIDTH 20 0
BBX 15 15 3 -1
BITMAP
FFFE
FFFE
0006
030C
0318
0330
0360
0200
0200
0600
0600
0C00
1800
7000
2000
ENDCHAR
STARTCHAR 30A3
ENCODING 12451
SWIDTH 1000 0
DWIDTH 20 0
BBX 10 13 4 -1
BITMAP
00C0
00C0
0180
0700
0E00
3E00
7600
C600
0600
0600
0600
0600
0600
ENDCHAR
STARTCHAR 30A4
ENCODING 12452
SWIDTH 1000 0
DWIDTH 20 0
BBX 12 16 2 0
BITMAP
0010
0030
0060
00E0
0180
0380
0F80
1980
F180
C180
0180
0180
0180
0180
0180
0180
ENDCHAR
STARTCHAR 30A5
ENCODING 12453
SWIDTH 1000 0
DWIDTH 20 0
BBX 11 14 5 -1
BITMAP
0C00
0C00
0C00
FFE0
C060
C040
C040
C0C0
00C0
0180
0300
0600
1C00
1000
ENDCHAR
STARTCHAR 30A6
ENCODING 12454
SWIDTH 1000 0
DWIDTH 20 0
BBX 14 17 3 -2
BITMAP
0300
0300
0300
0300
FFFC
C00C
C00C
C008
C008
C018
0018
0030
0060
00E0
01C0
0F00
0C00
ENDCHAR
STARTCHAR 30A7
ENCODING 12455
SWIDTH 1000 0
DWIDTH 20 0
BBX 14 9 3 1
BITMAP
3FF0
0300
0300
0300
0300
0300
0300
0300
FFFC
ENDCHAR
STARTCHAR 30A8
ENCODING 12456
SWIDTH 1000 0
DWIDTH 20 0
BBX 16 11 2 2
BITMAP
7FFE
0180
0180
0180
0180
0180
0180
0180
0180
0180
FFFF
ENDCHAR
STARTCHAR 30A9
ENCODING 12457
SWIDTH 1000 0
DWIDTH 20 0
BBX 12 12 4 -1
BITMAP
0300
0300
0300
FFF0
0700
0F00
0B00
1300
6300
C300
8300
0F00
ENDCHAR
STARTCHAR 30AA
ENCODING 12458
SWIDTH 1000 0
DWIDTH 20 0
BBX 16 16 1 -1
BITMAP
0030
0030
0030
0030
003F
7FF0
0070
00F0
01B0
0330
0630
0C30
3830
F030
4030
01F0
ENDCHAR
STARTCHAR 30AB
ENCODING 12459
SWIDTH 1000 0
DWIDTH 20 0
BBX 13 16 3 -1
BITMAP
0300
0300
0300
0300
03F8
FF08
0308
0208
0608
0608
0408
0C18
1818
3818
7090
C0F0
ENDCHAR
STARTCHAR 30AC
ENCODING 12460
SWIDTH 1000 0
DWIDTH 20 0
BBX 16 17 3 -1
BITMAP
0004
0306
030B
030C
0300
03F8
FF08
0308
0208
0608
0608
0408
0C18
1818
3818
7090
C0F0
ENDCHAR
STARTCHAR 30AD
ENCODING 12461
SWIDTH 1000 0
DWIDTH 20 0
BBX 16 17 2 -1
BITMAP
0200
0200
0300
0318
07F8
7F00
0100
0180
019F
07FC
FF80
4080
00C0
00C0
00C0
0040
0040
ENDCHAR
STARTCHAR 30AE
ENCODING 12462
SWIDTH 1000 0
DWIDTH 20 0
BBX 17 18 2 -1
BITMAP
000200
020100
020580
030600
031800
07FC00
7F0000
010000
018000
019F00
07FC00
FF8000
408000
00C000
00C000
00C000
004000
004000
ENDCHAR
STARTCHAR 30AF
ENCODING 12463
SWIDTH 1000 0
DWIDTH 20 0
BBX 13 15 3 0
BITMAP
0600
0600
0FF8
0818
1818
3010
6030
C030
0060
00C0
01C0
0380
0700
1E00
1800
ENDCHAR
STARTCHAR 30B0
ENCODING 12464
SWIDTH 1000 0
DWIDTH 20 0
BBX 16 17 3 -1
BITMAP
0002
0003
060D
0606
0FF8
0818
1818
3010
6030
C030
0060
00C0
01C0
0380
0700
1E00
1800
ENDCHAR
STARTCHAR 30B1
ENCODING 12465
SWIDTH 1000 0
DWIDTH 20 0
BBX 16 16 2 -1
BITMAP
0600
0400
0C00
0C00
0FFF
1820
3020
6020
E060
4060
0040
00C0
0180
0380
0600
0C00
ENDCHAR
STARTCHAR 30B2
ENCODING 12466
SWIDTH 1000 0
DWIDTH 20 0
BBX 17 16 2 0
BITMAP
060700
040580
0C0200
0C0000
0FFF00
182000
302000
602000
E06000
406000
004000
00C000
018000
038000
060000
0C0000
ENDCHAR
STARTCHAR 30B3
ENCODING 12467
SWIDTH 1000 0
DWIDTH 20 0
BBX 13 13 3 0
BITMAP
FFF8
0018
0018
0018
0018
0018
0018
0018
0018
0018
FFF8
0018
0018
ENDCHAR
STARTCHAR 30B4
ENCODING 12468
SWIDTH 1000 0
DWIDTH 20 0
BBX 17 17 3 0
BITMAP
000200
000B00
000D80
000600
FFF800
001800
001800
001800
001800
001800
001800
001800
001800
001800
FFF800
001800
001800
ENDCHAR
STARTCHAR 30B5
ENCODING 12469
SWIDTH 1000 0
DWIDTH 20 0
BBX 16 16 2 -1
BITMAP
0C30
0C30
0C30
0C30
FFFF
0C30
0C30
0C30
0C30
0C30
0060
0060
00C0
01C0
0380
0200
ENDCHAR
STARTCHAR 30B6
ENCODING 12470
SWIDTH 1000 0
DWIDTH 20 0
BBX 17 17 2 -1
BITMAP
000100
0C3580
0C3680
0C3200
0C3000
FFFF00
0C3000
0C3000
0C3000
0C3000
0C3000
006000
006000
00C000
01C000
038000
020000
ENDCHAR
STARTCHAR 30B7
ENCODING 12471
SWIDTH 1000 0
DWIDTH 20 0
BBX 14 15 3 -1
BITMAP
3000
3800
0E00
0400
8004
E004
700C
1018
0030
0060
00C0
0380
0F00
FC00
6000
ENDCHAR
STARTCHAR 30B8
ENCODING 12472
SWIDTH 1000 0
DWIDTH 20 0
BBX 15 16 3 0
BITMAP
0006
3012
380A
0E08
0400
8004
E004
700C
1018
0030
0060
00C0
0380
0F00
FC00
6000
ENDCHAR
STARTCHAR 30B9
ENCODING 12473
SWIDTH 1000 0
DWIDTH 20 0
BBX 15 14 3 -1
BITMAP
7FE0
7FF0
0060
0060
00C0
00C0
0180
0380
06C0
0E60
1C30
301C
E00E
8004
ENDCHAR
STARTCHAR 30BA
ENCODING 12474
SWIDTH 1000 0
DWIDTH 20 0
BBX 16 16 3 0
BITMAP
000A
000B
7FEC
7FF0
0060
0060
00C0
00C0
0180
0380
06C0
0E60
1C30
301C
E00E
8004
ENDCHAR
STARTCHAR 30BB
ENCODING 12475
SWIDTH 1000 0
DWIDTH 20 0
BBX 16 15 1 0
BITMAP
0600
0600
0600
0600
07FF
FFE3
6606
060C
0618
0630
0600
0600
0600
0603
03FF
ENDCHAR
STARTCHAR 30BC
ENCODING 12476
SWIDTH 1000 0
DWIDTH 20 0
BBX 18 16 1 1
BITMAP
000180
0606C0
060200
060200
060000
07FF00
FFE300
660600
060C00
061800
063000
060000
060000
060000
060300
03FF00
ENDCHAR
STARTCHAR 30BD
ENCODING 12477
SWIDTH 1000 0
DWIDTH 20 0
BBX 13 14 4 0
BITMAP
8018
C010
C030
6030
6030
2060
0060
00C0
01C0
0180
0300
0E00
1C00
3000
ENDCHAR
STARTCHAR 30BE
ENCODING 12478
SWIDTH 1000 0
DWIDTH 20 0
BBX 16 17 4 0
BITMAP
0004
001A
000B
8000
C018
C030
6030
6030
2060
0060
00C0
01C0
0180
0300
0E00
1C00
3000
ENDCHAR
STARTCHAR 30BF
ENCODING 12479
SWIDTH 1000 0
DWIDTH 20 0
BBX 13 16 3 0
BITMAP
0600
0400
0FF8
0818
1818
3C10
6630
C330
81E0
00C0
00C0
0180
0700
0E00
3800
2000
ENDCHAR
STARTCHAR 30C0
ENCODING 12480
SWIDTH 1000 0
DWIDTH 20 0
BBX 16 18 3 -1
BITMAP
0002
000B
060D
0405
0FF8
0818
1818
3C10
6630
C330
81E0
00C0
00C0
0180
0700
0E00
3800
2000
ENDCHAR
STARTCHAR 30C1
ENCODING 12481
SWIDTH 1000 0
DWIDTH 20 0
BBX 16 15 2 0
BITMAP
0018
03F8
1FC0
00C0
00C0
00C0
FFFF
00C0
00C0
00C0
0180
0380
0700
0E00
1800
ENDCHAR
STARTCHAR 30C2
ENCODING 12482
SWIDTH 1000 0
DWIDTH 20 0
BBX 17 16 2 -1
BITMAP
000100
001580
03FA80
1FC200
00C000
00C000
00C000
FFFF00
00C000
00C000
00C000
018000
038000
070000
0E0000
180000
ENDCHAR
STARTCHAR 30C3
ENCODING 12483
SWIDTH 1000 0
DWIDTH 20 0
BBX 12 11 4 0
BITMAP
0C30
C420
4660
6460
4040
00C0
0180
0380
0700
1C00
1800
ENDCHAR
STARTCHAR 30C4
ENCODING 12484
SWIDTH 1000 0
DWIDTH 20 0
BBX 14 15 3 -1
BITMAP
0400
0C0C
C60C
C608
4318
6218
4018
0030
0030
0060
00E0
01C0
0380
0E00
1C00
ENDCHAR
STARTCHAR 30C5
ENCODING 12485
SWIDTH 1000 0
DWIDTH 20 0
BBX 16 17 3 0
BITMAP
000A
000D
0405
0C00
C60C
C608
4318
6218
4018
0030
0030
0060
00E0
01C0
0380
0E00
1C00
ENDCHAR
STARTCHAR 30C6
ENCODING 12486
SWIDTH 1000 0
DWIDTH 20 0
BBX 16 14 2 0
BITMAP
3FF8
0000
0000
0000
FFFF
0180
0180
0100
0100
0300
0600
0E00
3800
3000
ENDCHAR
STARTCHAR 30C7
ENCODING 12487
SWIDTH 1000 0
DWIDTH 20 0
BBX 17 16 2 1
BITMAP
000180
000680
3FFB00
000000
000000
000000
FFFF00
018000
018000
018000
018000
030000
030000
0E0000
3C0000
300000
ENDCHAR
STARTCHAR 30C8
ENCODING 12488
SWIDTH 1000 0
DWIDTH 20 0
BBX 9 17 7 -1
BITMAP
C000
C000
C000
C000
C000
C000
E000
F800
CE00
C700
C180
C080
C000
C000
C000
C000
C000
ENDCHAR
STARTCHAR 30C9
ENCODING 12489
SWIDTH 1000 0
DWIDTH 20 0
BBX 11 17 7 -1
BITMAP
C000
C0C0
C360
C120
C180
C000
E000
F800
CE00
C700
C180
C080
C000
C000
C000
C000
C000
ENDCHAR
STARTCHAR 30CA
ENCODING 12490
SWIDTH 1000 0
DWIDTH 20 0
BBX 16 16 2 0
BITMAP
00C0
00C0
00C0
00C0
00C0
FFFF
00C0
00C0
00C0
00C0
0180
0180
0300
0600
1C00
0800
ENDCHAR
STARTCHAR 30CB
ENCODING 12491
SWIDTH 1000 0
DWIDTH 20 0
BBX 16 10 2 2
BITMAP
3FFC
0000
0000
0000
0000
0000
0000
0000
0000
FFFF
ENDCHAR
STARTCHAR 30CC
ENCODING 12492
SWIDTH 1000 0
DWIDTH 20 0
BBX 12 14 4 0
BITMAP
FFF0
0020
0060
0060
1040
38C0
0F80
0780
0380
07C0
0C60
3870
7020
C000
ENDCHAR
STARTCHAR 30CD
ENCODING 12493
SWIDTH 1000 0
DWIDTH 20 0
BBX 16 17 2 -1
BITMAP
0400
0700
01C0
0000
3FFC
0018
0030
00E0
01C0
07B8
1D8E
F187
4181
0180
0180
0180
0180
ENDCHAR
STARTCHAR 30CE
ENCODING 12494
SWIDTH 1000 0
DWIDTH 20 0
BBX 11 13 4 1
BITMAP
0060
0060
0040
00C0
00C0
0180
0180
0300
0600
0E00
1C00
3800
E000
ENDCHAR
STARTCHAR 30CF
ENCODING 12495
SWIDTH 1000 0
DWIDTH 20 0
BBX 16 10 2 2
BITMAP
0C30
0830
1818
180C
300C
3006
6006
6003
C003
8000
ENDCHAR
STARTCHAR 30D0
ENCODING 12496
SWIDTH 1000 0
DWIDTH 20 0
BBX 17 14 2 2
BITMAP
000300
000900
000D80
000600
0C3000
083000
181800
180C00
300C00
300600
600600
600300
C00300
800000
ENDCHAR
STARTCHAR 30D1
ENCODING 12497
SWIDTH 1000 0
DWIDTH 20 0
BBX 17 14 2 1
BITMAP
000700
000880
000880
000700
0C3000
083000
181800
180C00
300C00
300600
600600
600300
C00300
800000
ENDCHAR
STARTCHAR 30D2
ENCODING 12498
SWIDTH 1000 0
DWIDTH 20 0
BBX 13 15 4 0
BITMAP
C000
C000
C000
C030
C0E0
C780
FC00
E000
C000
C000
C000
C000
C000
C038
7FF0
ENDCHAR
STARTCHAR 30D3
ENCODING 12499
SWIDTH 1000 0
DWIDTH 20 0
BBX 15 16 4 1
BITMAP
0004
C036
C01A
C008
C030
C0E0
C780
FC00
E000
C000
C000
C000
C000
C000
C038
7FF0
ENDCHAR
STARTCHAR 30D4
ENCODING 12500
SWIDTH 1000 0
DWIDTH 20 0
BBX 15 16 4 0
BITMAP
000C
C012
C012
C00C
C030
C0E0
C780
FC00
E000
C000
C000
C000
C000
C000
C038
7FF0
ENDCHAR
STARTCHAR 30D5
ENCODING 12501
SWIDTH 1000 0
DWIDTH 20 0
BBX 13 13 3 0
BITMAP
FFF8
0018
0018
0018
0030
0030
0060
0060
00C0
0180
0700
1E00
3800
ENDCHAR
STARTCHAR 30D6
ENCODING 12502
SWIDTH 1000 0
DWIDTH 20 0
BBX 16 17 3 -1
BITMAP
0002
000B
000D
0004
FFF8
0018
0018
0010
0030
0030
0060
00E0
00C0
0380
0700
1C00
3800
ENDCHAR
STARTCHAR 30D7
ENCODING 12503
SWIDTH 1000 0
DWIDTH 20 0
BBX 17 17 3 -1
BITMAP
000700
000880
000880
000700
FFF800
001800
001800
001000
003000
003000
006000
00E000
00C000
038000
070000
1C0000
380000
ENDCHAR
STARTCHAR 30D8
ENCODING 12504
SWIDTH 1000 0
DWIDTH 20 0
BBX 16 9 2 2
BITMAP
0600
0F00
1980
30E0
6070
C038
800E
0007
0003
ENDCHAR
STARTCHAR 30D9
ENCODING 12505
SWIDTH 1000 0
DWIDTH 20 0
BBX 16 11 2 3
BITMAP
0006
0012
061B
0F0C
1980
30E0
6070
C038
800E
0007
0003
ENDCHAR
STARTCHAR 30DA
ENCODING 12506
SWIDTH 1000 0
DWIDTH 20 0
BBX 16 12 2 2
BITMAP
001C
0022
0022
0622
0F1C
1980
30E0
6070
C038
800E
0007
0003
ENDCHAR
STARTCHAR 30DB
ENCODING 12507
SWIDTH 1000 0
DWIDTH 20 0
BBX 14 16 3 -1
BITMAP
0300
0300
0300
0300
FFFC
0300
0300
2330
2330
2318
6308
430C
C304
8304
0300
1F00
ENDCHAR
STARTCHAR 30DC
ENCODING 12508
SWIDTH 1000 0
DWIDTH 20 0
BBX 16 17 3 0
BITMAP
0004
0316
030B
0308
0300
FFFC
0300
0300
2330
2330
2318
6308
430C
C304
8304
0300
1F00
ENDCHAR
STARTCHAR 30DD
ENCODING 12509
SWIDTH 1000 0
DWIDTH 20 0
BBX 15 17 3 -1
BITMAP
000C
0312
0312
030C
0300
FFFC
0300
0300
2330
2330
2318
6308
430C
C304
8304
0300
1F00
ENDCHAR
STARTCHAR 30DE
ENCODING 12510
SWIDTH 1000 0
DWIDTH 20 0
BBX 15 13 2 0
BITMAP
FFFE
FFFE
000C
0018
0038
1870
0CE0
0780
0300
0180
00C0
0060
0040
ENDCHAR
STARTCHAR 30DF
ENCODING 12511
SWIDTH 1000 0
DWIDTH 20 0
BBX 11 15 4 0
BITMAP
3000
7E00
07C0
00E0
0000
3000
3E00
0780
0080
0000
E000
7C00
0F00
03C0
00E0
ENDCHAR
STARTCHAR 30E0
ENCODING 12512
SWIDTH 1000 0
DWIDTH 20 0
BBX 16 14 2 0
BITMAP
0100
0100
0300
0300
0200
0600
0620
0C30
0C18
081C
180C
187E
FFF3
F803
ENDCHAR
STARTCHAR 30E1
ENCODING 12513
SWIDTH 1000 0
DWIDTH 20 0
BBX 12 15 3 0
BITMAP
0030
0030
0060
0060
1840
0CC0
0780
0380
03C0
0660
0E30
1C10
3800
7000
C000
ENDCHAR
STARTCHAR 30E2
ENCODING 12514
SWIDTH 1000 0
DWIDTH 20 0
BBX 16 14 2 0
BITMAP
3FFC
0300
0300
0300
0300
FFFF
0300
0300
0300
0300
0300
0300
0304
01FC
ENDCHAR
STARTCHAR 30E3
ENCODING 12515
SWIDTH 1000 0
DWIDTH 20 0
BBX 13 13 3 0
BITMAP
0800
0800
0C38
0FF8
FC10
0430
0460
06C0
0600
0200
0200
0300
0200
ENDCHAR
STARTCHAR 30E4
ENCODING 12516
SWIDTH 1000 0
DWIDTH 20 0
BBX 16 16 2 0
BITMAP
0C00
0C00
0400
043F
0FFE
FE06
C60C
020C
0318
0310
0300
0100
0100
0180
0180
0180
ENDCHAR
STARTCHAR 30E5
ENCODING 12517
SWIDTH 1000 0
DWIDTH 20 0
BBX 14 9 3 1
BITMAP
3FE0
0060
0060
0040
0040
0040
00C0
00C0
FFFC
ENDCHAR
STARTCHAR 30E6
ENCODING 12518
SWIDTH 1000 0
DWIDTH 20 0
BBX 16 11 2 2
BITMAP
3FF0
0030
0030
0030
0030
0030
0030
0030
0030
0020
FFFF
ENDCHAR
STARTCHAR 30E7
ENCODING 12519
SWIDTH 1000 0
DWIDTH 20 0
BBX 10 11 5 0
BITMAP
FFC0
00C0
00C0
00C0
7FC0
00C0
00C0
00C0
00C0
FFC0
00C0
ENDCHAR
STARTCHAR 30E8
ENCODING 12520
SWIDTH 1000 0
DWIDTH 20 0
BBX 13 14 3 0
BITMAP
7FF8
0018
0018
0018
0018
0018
7FF8
0018
0018
0018
0018
0018
FFF8
0018
ENDCHAR
STARTCHAR 30E9
ENCODING 12521
SWIDTH 1000 0
DWIDTH 20 0
BBX 14 14 3 -1
BITMAP
3FF0
0000
0000
0000
FFFC
0008
0018
0018
0030
0060
00E0
01C0
0700
0E00
ENDCHAR
STARTCHAR 30EA
ENCODING 12522
SWIDTH 1000 0
DWIDTH 20 0
BBX 9 16 5 -2
BITMAP
C180
C180
C180
C180
C180
C180
C180
C180
C180
0180
0300
0300
0700
0E00
1C00
1000
ENDCHAR
STARTCHAR 30EB
ENCODING 12523
SWIDTH 1000 0
DWIDTH 20 0
BBX 17 15 2 -1
BITMAP
00C000
18C000
18C000
18C000
18C000
18C000
18C000
18C080
18C180
10C300
30C600
30CC00
60F800
C0F000
804000
ENDCHAR
STARTCHAR 30EC
ENCODING 12524
SWIDTH 1000 0
DWIDTH 20 0
BBX 12 15 5 -1
BITMAP
C000
C000
C000
C000
C000
C000
C010
C030
C070
C0E0
C180
C700
DE00
F800
6000
ENDCHAR
STARTCHAR 30ED
ENCODING 12525
SWIDTH 1000 0
DWIDTH 20 0
BBX 12 12 4 1
BITMAP
FFF0
C030
C030
C030
C030
C030
C030
C030
C030
C030
FFF0
C030
ENDCHAR
STARTCHAR 30EE
ENCODING 12526
SWIDTH 1000 0
DWIDTH 20 0
BBX 11 12 5 -1
BITMAP
FFE0
C060
C060
C060
C060
C0C0
00C0
0180
0380
0700
0E00
0800
ENDCHAR
STARTCHAR 30EF
ENCODING 12527
SWIDTH 1000 0
DWIDTH 20 0
BBX 14 14 3 -1
BITMAP
FFFC
C00C
C00C
C008
C018
C018
C010
0030
0030
0060
00C0
0180
0700
0E00
ENDCHAR
STARTCHAR 30F0
ENCODING 12528
SWIDTH 1000 0
DWIDTH 20 0
BBX 16 17 2 -1
BITMAP
0060
0060
0060
0060
7FFE
1860
1860
1860
1860
1860
1860
FFFF
0060
0060
0060
0060
0060
ENDCHAR
STARTCHAR 30F1
ENCODING 12529
SWIDTH 1000 0
DWIDTH 20 0
BBX 16 12 2 1
BITMAP
7FFE
0006
000C
019C
0198
01B0
01A0
0180
0180
0180
0180
FFFF
ENDCHAR
STARTCHAR 30F2
ENCODING 12530
SWIDTH 1000 0
DWIDTH 20 0
BBX 13 14 4 -1
BITMAP
FFF8
0018
0018
0018
0010
7FF0
0030
0020
0060
00C0
0180
0700
1E00
3800
ENDCHAR
STARTCHAR 30F3
ENCODING 12531
SWIDTH 1000 0
DWIDTH 20 0
BBX 13 14 4 1
BITMAP
8000
E000
7008
1008
0018
0030
0030
0060
00C0
0380
0F00
3C00
F000
8000
ENDCHAR
STARTCHAR 30F4
ENCODING 12532
SWIDTH 1000 0
DWIDTH 20 0
BBX 17 18 3 -1
BITMAP
000300
030D00
030580
030600
030000
FFFC00
C00C00
C00C00
C00800
C00800
C01800
001800
003000
006000
00E000
01C000
0F0000
0C0000
ENDCHAR
STARTCHAR 30F5
ENCODING 12533
SWIDTH 1000 0
DWIDTH 20 0
BBX 12 12 4 -1
BITMAP
0600
0600
0600
FFF0
0430
0430
0C30
0830
1830
3030
6220
C3E0
ENDCHAR
STARTCHAR 30F6
ENCODING 12534
SWIDTH 1000 0
DWIDTH 20 0
BBX 13 13 3 0
BITMAP
0800
0800
1800
1FF8
3080
6080
C080
4180
0100
0300
0600
1C00
0800
ENDCHAR
STARTCHAR 30F7
ENCODING 12535
SWIDTH 1000 0
DWIDTH 20 0
BBX 16 17 3 0
BITMAP
0003
000D
0007
FFF8
C00C
C008
C008
C018
C018
C010
0030
0030
0060
00C0
0180
0700
0E00
ENDCHAR
STARTCHAR 30F8
ENCODING 12536
SWIDTH 1000 0
DWIDTH 20 0
BBX 17 18 2 0
BITMAP
000300
006D00
006580
006200
006000
7FFE00
186000
186000
186000
186000
186000
186000
FFFF00
006000
006000
006000
006000
006000
ENDCHAR
STARTCHAR 30F9
ENCODING 12537
SWIDTH 1000 0
DWIDTH 20 0
BBX 17 16 2 2
BITMAP
000100
000680
000280
000200
7FFE00
000600
000C00
019C00
019800
01B000
01A000
018000
018000
018000
018000
FFFF00
ENDCHAR
STARTCHAR 30FA
ENCODING 12538
SWIDTH 1000 0
DWIDTH 20 0
BBX 16 17 4 0
BITMAP
0002
000B
0005
FFFC
0018
0018
0018
0010
7FF0
0030
0020
0060
00C0
0180
0700
1E00
3800
ENDCHAR
STARTCHAR 30FB
ENCODING 12539
SWIDTH 1000 0
DWIDTH 20 0
BBX 2 3 9 6
BITMAP
C0
C0
C0
ENDCHAR
STARTCHAR 30FC
ENCODING 12540
SWIDTH 1000 0
DWIDTH 20 0
BBX 16 1 2 7
BITMAP
FFFF
ENDCHAR
STARTCHAR 30FD
ENCODING 12541
SWIDTH 1000 0
DWIDTH 20 0
BBX 9 9 5 4
BITMAP
C000
E000
3000
1800
0C00
0600
0300
0180
0100
ENDCHAR
STARTCHAR 30FE
ENCODING 12542
SWIDTH 1000 0
DWIDTH 20 0
BBX 10 11 5 4
BITMAP
0180
00C0
C640
E100
3100
1800
0C00
0600
0300
0180
0100
ENDCHAR
STARTCHAR 30FF
ENCODING 12543
SWIDTH 1000 0
DWIDTH 20 0
BBX 11 16 4 -1
BITMAP
FFE0
0060
0060
0060
0060
0060
0060
0060
0060
0060
0060
0060
0060
0060
0060
0060
ENDCHAR
STARTCHAR 31F0
ENCODING 12784
SWIDTH 1000 0
DWIDTH 20 0
BBX 11 12 4 0
BITMAP
0400
0C00
0FE0
1860
3040
60C0
C0C0
0180
0300
0600
0C00
3800
ENDCHAR
STARTCHAR 31F1
ENCODING 12785
SWIDTH 1000 0
DWIDTH 20 0
BBX 13 12 4 -1
BITMAP
1000
3800
0C00
0410
E018
3030
1060
00C0
0180
0700
1E00
3800
ENDCHAR
STARTCHAR 31F2
ENCODING 12786
SWIDTH 1000 0
DWIDTH 20 0
BBX 11 11 4 -1
BITMAP
7F80
7F80
0180
0100
0300
0200
0700
0D80
38C0
7060
C020
ENDCHAR
STARTCHAR 31F3
ENCODING 12787
SWIDTH 1000 0
DWIDTH 20 0
BBX 8 12 8 0
BITMAP
C0
C0
C0
C0
E0
F8
CE
C3
C0
C0
C0
C0
ENDCHAR
STARTCHAR 31F4
ENCODING 12788
SWIDTH 1000 0
DWIDTH 20 0
BBX 9 11 5 0
BITMAP
FF80
0180
0100
2300
3B00
1E00
0E00
1F00
3980
6080
C000
ENDCHAR
STARTCHAR 31F5
ENCODING 12789
SWIDTH 1000 0
DWIDTH 20 0
BBX 14 8 3 2
BITMAP
08C0
1860
1860
3030
3030
6018
6018
C00C
ENDCHAR
STARTCHAR 31F6
ENCODING 12790
SWIDTH 1000 0
DWIDTH 20 0
BBX 10 11 6 0
BITMAP
C000
C000
C080
C380
DE00
F000
C000
C000
C000
C000
FFC0
ENDCHAR
STARTCHAR 31F7
ENCODING 12791
SWIDTH 1000 0
DWIDTH 20 0
BBX 11 11 5 -1
BITMAP
FFC0
FFE0
0040
00C0
00C0
0080
0180
0300
0600
1C00
3000
ENDCHAR
STARTCHAR 31F8
ENCODING 12792
SWIDTH 1000 0
DWIDTH 20 0
BBX 14 8 3 2
BITMAP
0E00
0F00
1B80
31C0
E060
4038
001C
0008
ENDCHAR
STARTCHAR 31F9
ENCODING 12793
SWIDTH 1000 0
DWIDTH 20 0
BBX 12 12 4 -1
BITMAP
0600
0600
0600
FFF0
0600
26C0
6660
6620
C630
C610
8600
1E00
ENDCHAR
STARTCHAR 31FA
ENCODING 12794
SWIDTH 1000 0
DWIDTH 20 0
BBX 13 12 4 1
BITMAP
0600
0400
0C00
0C00
0800
1980
10C0
3060
3060
3FF0
FC18
0010
ENDCHAR
STARTCHAR 31FB
ENCODING 12795
SWIDTH 1000 0
DWIDTH 20 0
BBX 11 11 4 -1
BITMAP
3FC0
0000
0000
FFE0
0060
0060
00C0
0180
0380
0E00
0C00
ENDCHAR
STARTCHAR 31FC
ENCODING 12796
SWIDTH 1000 0
DWIDTH 20 0
BBX 7 12 6 -1
BITMAP
C6
C6
C6
C6
C6
C6
C6
06
0C
0C
18
30
ENDCHAR
STARTCHAR 31FD
ENCODING 12797
SWIDTH 1000 0
DWIDTH 20 0
BBX 13 12 4 0
BITMAP
0300
3300
3300
3300
3300
3308
3318
3318
2370
63E0
C380
8100
ENDCHAR
STARTCHAR 31FE
ENCODING 12798
SWIDTH 1000 0
DWIDTH 20 0
BBX 10 11 6 -1
BITMAP
C000
C000
C000
C000
C040
C0C0
C180
C300
CE00
F800
E000
ENDCHAR
STARTCHAR 31FF
ENCODING 12799
SWIDTH 1000 0
DWIDTH 20 0
BBX 10 10 5 1
BITMAP
FFC0
C0C0
C0C0
C0C0
C0C0
C0C0
C0C0
C0C0
FFC0
C0C0
ENDCHAR
STARTCHAR 3231
ENCODING 12849
SWIDTH 1000 0
DWIDTH 20 0
BBX 18 18 1 -1
BITMAP
100100
241180
445080
445080
447EC0
9F9040
849040
8C1040
8EFF40
8F1040
953840
B43440
A45640
44D3C0
449380
441080
241180
100100
ENDCHAR
STARTCHAR 3232
ENCODING 12850
SWIDTH 1000 0
DWIDTH 20 0
BBX 18 18 1 -1
BITMAP
200100
218100
410080
410080
5FFE80
820040
820040
87FC40
860440
8E0440
9BFC40
B20440
920440
43FC80
420480
420480
223D00
200100
ENDCHAR
STARTCHAR 3239
ENCODING 12857
SWIDTH 1000 0
DWIDTH 20 0
BBX 18 18 1 -1
BITMAP
200200
444100
445880
4C4880
884C80
884040
9BFC40
9BC040
B84040
A84040
A86040
886040
882040
882680
483680
481C80
480900
200200
ENDCHAR
STARTCHAR 3251
ENCODING 12881
SWIDTH 1000 0
DWIDTH 20 0
BBX 19 19 0 -2
BITMAP
03F800
0E0E00
180300
370580
6C8CC0
488440
C88460
818420
810420
830420
820420
860420
8C0440
4C0440
4804C0
2F8580
100300
0C0E00
03F800
ENDCHAR
STARTCHAR 3252
ENCODING 12882
SWIDTH 1000 0
DWIDTH 20 0
BBX 20 19 0 -2
BITMAP
03F800
0E0600
180180
370EC0
6C9140
48B120
C8B120
818310
810210
830610
820C10
860810
8C1820
4C1020
483040
2FBFC0
100180
0E0600
01F800
ENDCHAR
STARTCHAR 3253
ENCODING 12883
SWIDTH 1000 0
DWIDTH 20 0
BBX 19 19 0 -2
BITMAP
03F800
0E0E00
180300
371F80
6CB1C0
48B140
C88160
818220
810C20
830220
820120
860120
8C3140
4C3140
4833C0
2F9F80
100300
0C0E00
03F800
ENDCHAR
STARTCHAR 3254
ENCODING 12884
SWIDTH 1000 0
DWIDTH 20 0
BBX 18 19 1 -2
BITMAP
03F000
0C0C00
180600
270500
6C8D80
488C80
C89C40
819440
813440
832440
822440
866440
8C7EC0
4C0480
480580
2F8500
100200
0C0C00
03F000
ENDCHAR
STARTCHAR 3255
ENCODING 12885
SWIDTH 1000 0
DWIDTH 20 0
BBX 18 19 1 -2
BITMAP
03F000
0C0C00
180600
273D00
6CA180
48A080
C8A040
81AC40
813240
832240
820240
860240
8C22C0
4C2280
483580
2F9D00
100200
0C0C00
03F000
ENDCHAR
STARTCHAR 3256
ENCODING 12886
SWIDTH 1000 0
DWIDTH 20 0
BBX 19 19 0 -2
BITMAP
03F800
0E0E00
180300
370D80
6C92C0
48B240
C8A060
81A020
812E20
833220
822120
862120
8C2140
4C2140
4812C0
2F8F80
100300
0C0E00
03F800
ENDCHAR
STARTCHAR 3257
ENCODING 12887
SWIDTH 1000 0
DWIDTH 20 0
BBX 19 19 1 -2
BITMAP
03F800
0E0E00
180300
377F80
6C86C0
488440
C88460
818C20
810C20
830820
821820
861820
8C1840
4C1040
4830C0
2FB180
100300
0C0E00
03F800
ENDCHAR
STARTCHAR 3258
ENCODING 12888
SWIDTH 1000 0
DWIDTH 20 0
BBX 19 19 1 -2
BITMAP
03F800
0E0E00
180300
371D80
6CA2C0
48A240
C8A260
81A220
811C20
831220
822120
862120
8C2140
4C2140
4833C0
2F9F80
100300
0C0E00
03F800
ENDCHAR
STARTCHAR 3259
ENCODING 12889
SWIDTH 1000 0
DWIDTH 20 0
BBX 19 19 0 -2
BITMAP
03F800
0E0E00
180300
371D80
6C92C0
48A140
C8A160
81A120
812120
833720
821F20
860320
8C0340
4C3240
4832C0
2F9D80
100300
0C0E00
03F800
ENDCHAR
STARTCHAR 325A
ENCODING 12890
SWIDTH 1000 0
DWIDTH 20 0
BBX 19 19 1 -2
BITMAP
03F000
0E0E00
180300
370D80
6892C0
58A140
C0A140
812120
862120
812120
80A120
80A120
58A140
58A140
2992C0
3F0D80
180300
0E0E00
01F800
ENDCHAR
STARTCHAR 325B
ENCODING 12891
SWIDTH 1000 0
DWIDTH 20 0
BBX 18 19 1 -2
BITMAP
03F000
0C0C00
180600
270900
689980
588880
C08840
810840
860840
810840
808840
808840
5888C0
588880
698980
2F0900
180600
0C0C00
03F000
ENDCHAR
STARTCHAR 325C
ENCODING 12892
SWIDTH 1000 0
DWIDTH 20 0
BBX 19 19 1 -2
BITMAP
03F000
0E0E00
180300
371D80
68B2C0
58A240
C0A240
810620
860420
810C20
808820
809820
589040
58B040
29A0C0
2F3F80
180300
0C0E00
03F800
ENDCHAR
STARTCHAR 325D
ENCODING 12893
SWIDTH 1000 0
DWIDTH 20 0
BBX 18 19 1 -2
BITMAP
03F000
0C0C00
180600
2E1D00
692380
592280
C10240
810440
861840
810440
808240
808240
58E2C0
58A280
69A780
2F1D00
180600
0C0C00
03F000
ENDCHAR
STARTCHAR 325E
ENCODING 12894
SWIDTH 1000 0
DWIDTH 20 0
BBX 18 19 1 -2
BITMAP
03F000
0C0C00
180600
2E0500
690D80
590C80
C11C40
811440
863440
812440
812440
816440
597EC0
590480
690580
2E0500
180600
0C0C00
03F000
ENDCHAR
STARTCHAR 325F
ENCODING 12895
SWIDTH 1000 0
DWIDTH 20 0
BBX 18 18 1 -1
BITMAP
03F000
0C0C00
100200
2E3D00
492080
592080
812040
813C40
862440
810240
808240
808240
58A280
48A680
2F1D00
100200
0C0C00
03F000
ENDCHAR
STARTCHAR 32A4
ENCODING 12964
SWIDTH 1000 0
DWIDTH 20 0
BBX 18 18 1 -1
BITMAP
03F000
0C0C00
100200
208100
408080
408080
808040
80FC40
808040
808040
808040
808040
408080
5FFE80
200100
100200
0C0C00
03F000
ENDCHAR
STARTCHAR 32A5
ENCODING 12965
SWIDTH 1000 0
DWIDTH 20 0
BBX 19 19 1 -2
BITMAP
01F800
060E00
180300
308180
2080C0
4FFE40
488260
888220
888220
888220
8FFE20
888220
C08040
408040
6080C0
308180
180300
0E0E00
03F800
ENDCHAR
STARTCHAR 32A6
ENCODING 12966
SWIDTH 1000 0
DWIDTH 20 0
BBX 19 19 1 -2
BITMAP
03F000
1E0C00
380300
300180
7FFE80
408040
C08040
80C020
80F020
809820
808C20
808020
408040
408040
2080C0
308180
180300
060E00
01F800
ENDCHAR
STARTCHAR 32A7
ENCODING 12967
SWIDTH 1000 0
DWIDTH 20 0
BBX 20 19 0 -2
BITMAP
01F800
060600
180180
30C0C0
208040
4FFF20
C18020
810010
810010
83FE10
822010
862010
4C2020
482020
23FF40
3000C0
180180
060600
01F800
ENDCHAR
STARTCHAR 32A8
ENCODING 12968
SWIDTH 1000 0
DWIDTH 20 0
BBX 18 19 1 -2
BITMAP
03F000
0C0C00
180600
218100
618180
5FFE80
C30040
820040
860040
87FC40
8E0440
9A0440
7A04C0
520480
63FD80
220500
180600
0C0C00
03F000
ENDCHAR
STARTCHAR 32B1
ENCODING 12977
SWIDTH 1000 0
DWIDTH 20 0
BBX 19 19 1 -2
BITMAP
03F000
0E0E00
180300
370D80
6892C0
58A240
C0A040
812020
863E20
813320
80A120
80A120
58A140
58A140
6992C0
3F1D80
180300
0E0E00
01F800
ENDCHAR
STARTCHAR 32B2
ENCODING 12978
SWIDTH 1000 0
DWIDTH 20 0
BBX 18 19 1 -2
BITMAP
03F000
0C0C00
180600
2E7D00
690D80
590C80
C10840
810840
861840
811840
811040
811040
5910C0
593080
693180
2E2100
180600
0C0C00
03F000
ENDCHAR
STARTCHAR 32B3
ENCODING 12979
SWIDTH 1000 0
DWIDTH 20 0
BBX 19 19 1 -2
BITMAP
03F000
0E0E00
180300
371D80
68A2C0
58A240
C0A240
812220
861C20
813220
80A120
80A120
58A140
58A140
2992C0
3F1F80
180300
0E0E00
01F800
ENDCHAR
STARTCHAR 32B4
ENCODING 12980
SWIDTH 1000 0
DWIDTH 20 0
BBX 19 19 1 -2
BITMAP
03F000
0E0E00
180300
371D80
68B2C0
58A140
C0A140
812120
863320
811F20
808320
808320
588340
58A240
29B6C0
3F1D80
180300
0E0E00
01F800
ENDCHAR
STARTCHAR 32B5
ENCODING 12981
SWIDTH 1000 0
DWIDTH 20 0
BBX 19 19 0 -2
BITMAP
01F800
060E00
180300
310D80
6312C0
432140
C72160
852120
8D2120
892120
892120
992120
5FA140
412140
2112C0
310D80
180300
0E0E00
01F800
ENDCHAR
STARTCHAR 32B6
ENCODING 12982
SWIDTH 1000 0
DWIDTH 20 0
BBX 19 19 0 -2
BITMAP
03F800
0E0E00
180300
310580
630CC0
430C40
C70460
850420
8D0420
890420
890420
910420
5FC440
410440
2104C0
310580
180300
0E0E00
01F800
ENDCHAR
STARTCHAR 32B7
ENCODING 12983
SWIDTH 1000 0
DWIDTH 20 0
BBX 20 19 0 -2
BITMAP
01F800
060600
180180
310EC0
631140
433120
C73120
850310
8D0210
890610
890C10
990810
5F9820
411020
213040
313FC0
180180
060600
01F800
ENDCHAR
STARTCHAR 32B8
ENCODING 12984
SWIDTH 1000 0
DWIDTH 20 0
BBX 19 19 0 -2
BITMAP
01F800
0E0E00
180300
311F80
6331C0
433140
C70160
850220
8D0C20
890220
890120
990120
5FB140
413140
2133C0
311F80
180300
0E0E00
01F800
ENDCHAR
STARTCHAR 32B9
ENCODING 12985
SWIDTH 1000 0
DWIDTH 20 0
BBX 19 19 0 -2
BITMAP
01F800
060E00
180300
310380
6306C0
430640
C70E60
850A20
8D1A20
891220
891220
993220
5FBF40
410240
2102C0
310380
180300
0E0E00
01F800
ENDCHAR
STARTCHAR 32BA
ENCODING 12986
SWIDTH 1000 0
DWIDTH 20 0
BBX 18 19 1 -2
BITMAP
03F000
0C0C00
180600
223D00
662180
462080
CE2040
8A7840
9A6440
926240
920240
B20240
7F62C0
426280
622580
221D00
180600
0C0C00
03F000
ENDCHAR
STARTCHAR 32BB
ENCODING 12987
SWIDTH 1000 0
DWIDTH 20 0
BBX 18 19 1 -2
BITMAP
03F000
0C0C00
180600
221D00
662580
466480
CE6040
8A4040
9A5C40
926440
924240
B24240
7F42C0
424280
622580
221D00
180600
0C0C00
03F000
ENDCHAR
STARTCHAR 32BC
ENCODING 12988
SWIDTH 1000 0
DWIDTH 20 0
BBX 19 19 0 -2
BITMAP
03F800
0E0E00
180300
313F80
6306C0
430640
C70460
850420
8D0C20
890C20
890820
990820
5FC840
411840
2118C0
311180
180300
0E0E00
01F800
ENDCHAR
STARTCHAR 32BD
ENCODING 12989
SWIDTH 1000 0
DWIDTH 20 0
BBX 19 19 0 -2
BITMAP
01F800
0E0E00
180300
311D80
6322C0
432240
C72260
852220
8D1E20
891220
892120
992120
5FA140
412140
2133C0
311F80
180300
0E0E00
01F800
ENDCHAR
STARTCHAR 32BE
ENCODING 12990
SWIDTH 1000 0
DWIDTH 20 0
BBX 19 19 0 -2
BITMAP
01F800
0E0E00
180300
311D80
6312C0
432140
C72160
852120
8D2120
893320
891F20
990320
5F8340
413240
2132C0
311D80
180300
0E0E00
01F800
ENDCHAR
STARTCHAR 32BF
ENCODING 12991
SWIDTH 1000 0
DWIDTH 20 0
BBX 19 18 1 -1
BITMAP
03F000
0E0E00
180300
2F0C80
681240
482140
982120
9F2120
99A120
80A120
80A120
80A120
58A140
6992C0
2F0C80
180300
0E0E00
03F800
ENDCHAR
STARTCHAR 32D0
ENCODING 13008
SWIDTH 1000 0
DWIDTH 20 0
BBX 19 19 1 -2
BITMAP
03F800
0E0E00
180300
300180
67FEC0
4FFF40
C00260
80C620
80CC20
80D820
80D020
80C020
418040
438040
6700C0
360180
180300
0E0E00
03F800
ENDCHAR
STARTCHAR 32D1
ENCODING 13009
SWIDTH 1000 0
DWIDTH 20 0
BBX 19 19 1 -2
BITMAP
03F000
0E0E00
180300
300D80
6018C0
403040
C06040
81E020
836020
8E6020
986020
806020
406040
406040
2060C0
306180
180300
0E0E00
01F800
ENDCHAR
STARTCHAR 32D2
ENCODING 13010
SWIDTH 1000 0
DWIDTH 20 0
BBX 19 18 1 -1
BITMAP
03F000
060E00
180300
20C080
60C040
40C040
8FFE20
8C0620
8C0620
8C0420
800C20
800C20
401840
6030C0
20E080
198300
0E0E00
03F800
ENDCHAR
STARTCHAR 32D3
ENCODING 13011
SWIDTH 1000 0
DWIDTH 20 0
BBX 18 19 1 -2
BITMAP
03F000
0C0C00
180600
200100
600180
4FFC80
C0C040
80C040
80C040
80C040
80C040
80C040
C0C0C0
5FFE80
600180
200100
180600
0C0C00
03F000
ENDCHAR
STARTCHAR 32D4
ENCODING 13012
SWIDTH 1000 0
DWIDTH 20 0
BBX 19 18 0 -1
BITMAP
01F800
060E00
180300
201880
601840
401840
8FFF20
803820
807820
80D820
819820
831820
4E1840
6C18C0
209880
187B00
0E0E00
03F800
ENDCHAR
STARTCHAR 32D5
ENCODING 13013
SWIDTH 1000 0
DWIDTH 20 0
BBX 19 19 1 -2
BITMAP
01F000
060E00
180300
30C180
20C0C0
40C040
CFFE40
80C620
80C620
818620
818620
838620
C30440
464440
6C7CC0
300180
180300
0E0E00
03F800
ENDCHAR
STARTCHAR 32D6
ENCODING 13014
SWIDTH 1000 0
DWIDTH 20 0
BBX 18 19 1 -2
BITMAP
03F000
0C0C00
180600
218100
618180
40B880
CFF840
9E8040
80C040
80DE40
87FC40
9E4040
C040C0
406080
606180
206100
180600
0C0C00
03F000
ENDCHAR
STARTCHAR 32D7
ENCODING 13015
SWIDTH 1000 0
DWIDTH 20 0
BBX 18 18 1 -1
BITMAP
03F000
0C0C00
300200
20C100
418080
41FC80
830C40
860C40
8C0840
881840
803040
803040
406080
41C080
238100
120200
0C0C00
03F000
ENDCHAR
STARTCHAR 32D8
ENCODING 13016
SWIDTH 1000 0
DWIDTH 20 0
BBX 19 19 1 -2
BITMAP
03F000
0E0E00
180300
310180
6300C0
430040
C3FF40
861020
8C3020
983020
803020
802020
C06040
40C040
6180C0
330180
180300
0E0E00
03F800
ENDCHAR
STARTCHAR 32D9
ENCODING 13017
SWIDTH 1000 0
DWIDTH 20 0
BBX 19 20 0 -2
BITMAP
01F000
060C00
080300
100180
200080
47FE40
400640
800620
800620
800620
800620
800620
800620
400640
4FFE40
200680
300180
180300
060C00
01F000
ENDCHAR
STARTCHAR 32DA
ENCODING 13018
SWIDTH 1000 0
DWIDTH 20 0
BBX 20 19 0 -2
BITMAP
01F800
060600
080180
118CC0
218C40
418C20
418C20
9FFF90
818C10
818C10
818C10
818C10
401820
401820
203040
3060C0
184180
060600
01F800
ENDCHAR
STARTCHAR 32DB
ENCODING 13019
SWIDTH 1000 0
DWIDTH 20 0
BBX 18 19 1 -2
BITMAP
03F000
0C0C00
180600
220100
630180
41C080
C08240
8C0340
8E0640
820C40
800C40
803840
C070C0
43C080
6F0180
240100
180600
0C0C00
03F000
ENDCHAR
STARTCHAR 32DC
ENCODING 13020
SWIDTH 1000 0
DWIDTH 20 0
BBX 19 19 0 -2
BITMAP
01F800
060E00
180300
300180
67FCC0
460C40
C00860
801820
803020
803020
807020
80DC20
418640
470340
6C01C0
300180
180300
0E0E00
03F800
ENDCHAR
STARTCHAR 32DD
ENCODING 13021
SWIDTH 1000 0
DWIDTH 20 0
BBX 19 19 1 -2
BITMAP
03F000
0E0C00
180300
330180
6300C0
430040
C37E40
BFF220
830620
830C20
831820
830020
430040
430240
21FEC0
300180
180300
0E0E00
01F800
ENDCHAR
STARTCHAR 32DE
ENCODING 13022
SWIDTH 1000 0
DWIDTH 20 0
BBX 18 19 1 -2
BITMAP
03F000
0C0C00
180600
200100
680580
4C0680
C60640
860C40
820C40
801840
801840
803040
C060C0
40C080
638180
220100
180600
0C0C00
03F000
ENDCHAR
STARTCHAR 32DF
ENCODING 13023
SWIDTH 1000 0
DWIDTH 20 0
BBX 18 19 1 -2
BITMAP
03F000
0C0C00
180600
208100
618180
41FC80
C30440
820C40
878C40
8CD840
887840
803040
C060C0
40C080
638180
270100
180600
0C0C00
03F000
ENDCHAR
STARTCHAR 32E0
ENCODING 13024
SWIDTH 1000 0
DWIDTH 20 0
BBX 19 18 1 -1
BITMAP
03F000
0E0E00
180300
200C80
6FF840
476040
806020
806020
9FFF20
806020
806020
80C020
40C040
6180C0
270080
1A0300
0E0E00
03F800
ENDCHAR
STARTCHAR 32E1
ENCODING 13025
SWIDTH 1000 0
DWIDTH 20 0
BBX 18 19 1 -2
BITMAP
03F000
0C0C00
180600
200100
618580
588680
D8C640
8CC440
8C0C40
800C40
801840
803040
C070C0
40C080
678180
220100
180600
0C0C00
03F000
ENDCHAR
STARTCHAR 32E2
ENCODING 13026
SWIDTH 1000 0
DWIDTH 20 0
BBX 20 19 0 -2
BITMAP
01F800
060600
080180
1000C0
23FC40
400020
400020
800010
9FFF90
802010
802010
806010
C06020
40C020
618040
3300C0
180180
060600
01F800
ENDCHAR
STARTCHAR 32E3
ENCODING 13027
SWIDTH 1000 0
DWIDTH 20 0
BBX 19 19 1 -2
BITMAP
03F000
0E0C00
180300
318180
6180C0
418040
C18040
818020
81F020
81B820
818E20
818420
C18040
418040
6180C0
318180
180300
0E0E00
03F800
ENDCHAR
STARTCHAR 32E5
ENCODING 13029
SWIDTH 1000 0
DWIDTH 20 0
BBX 18 18 1 -1
BITMAP
03F000
0C0C00
100200
200100
400080
4FFC80
800040
800040
800040
800040
800040
800040
5FFE80
400080
200100
100200
0C0C00
03F000
ENDCHAR
STARTCHAR 32E9
ENCODING 13033
SWIDTH 1000 0
DWIDTH 20 0
BBX 18 19 1 -2
BITMAP
03F000
0C0C00
180600
200100
600180
423080
C61840
861840
840C40
8C0640
8C0640
980340
F003C0
500080
600180
200100
180600
0C0C00
03F000
ENDCHAR
STARTCHAR 32EC
ENCODING 13036
SWIDTH 1000 0
DWIDTH 20 0
BBX 18 19 1 -2
BITMAP
03F000
0C0C00
180600
200100
600180
418080
C3C040
86C040
8C7040
983840
B01C40
A00E40
C003C0
400080
600180
200100
180600
0C0C00
03F000
ENDCHAR
STARTCHAR 32ED
ENCODING 13037
SWIDTH 1000 0
DWIDTH 20 0
BBX 20 18 0 -1
BITMAP
01F800
060700
080180
3060C0
206060
406020
8FFF10
806010
826410
826610
866210
846310
4C61A0
686060
3060C0
19C180
060600
01F800
ENDCHAR
STARTCHAR 32FA
ENCODING 13050
SWIDTH 1000 0
DWIDTH 20 0
BBX 18 19 1 -2
BITMAP
03F000
0C0C00
380600
200100
6FFD80
4C0C80
CC0C40
8C0C40
8C0C40
8C0C40
8C0C40
8C0C40
4C0CC0
4FFC80
6C0D80
200100
180600
0C0C00
03F000
ENDCHAR
STARTCHAR 3303
ENCODING 13059
SWIDTH 1000 0
DWIDTH 20 0
BBX 17 17 2 -2
BITMAP
FF0000
020000
160000
14FF80
100000
200000
200000
C00000
000000
080000
480000
480000
480000
488000
490000
8B0000
8C0000
ENDCHAR
STARTCHAR 330D
ENCODING 13069
SWIDTH 1000 0
DWIDTH 20 0
BBX 17 18 2 -2
BITMAP
300000
200000
FE7F00
224100
224100
624100
424100
9C7F00
000000
000000
840000
840000
840000
840000
84FF80
040000
080000
300000
ENDCHAR
STARTCHAR 3314
ENCODING 13076
SWIDTH 1000 0
DWIDTH 20 0
BBX 16 15 2 1
BITMAP
1000
1B00
FE00
0800
0B80
FC00
0C00
0C00
047F
0041
0041
0041
0041
0041
007F
ENDCHAR
STARTCHAR 3318
ENCODING 13080
SWIDTH 1000 0
DWIDTH 20 0
BBX 18 18 1 -1
BITMAP
008000
111F80
310000
3E0000
623FC0
C400C0
040080
080180
300700
600C00
100000
100000
100000
300000
220000
230000
670000
F88000
ENDCHAR
STARTCHAR 3322
ENCODING 13090
SWIDTH 1000 0
DWIDTH 20 0
BBX 18 19 1 -2
BITMAP
200000
201800
3F0C40
F10040
220080
260180
200700
201C00
3F1000
000000
3E0000
640000
040000
FFC000
040000
0C0000
080000
300000
400000
ENDCHAR
STARTCHAR 3323
ENCODING 13091
SWIDTH 1000 0
DWIDTH 20 0
BBX 17 19 1 -2
BITMAP
200000
203000
3F1880
F90080
220180
240300
200600
201C00
3F3000
000000
100000
100000
100000
180000
160000
120000
100000
100000
100000
ENDCHAR
STARTCHAR 3326
ENCODING 13094
SWIDTH 1000 0
DWIDTH 20 0
BBX 15 18 3 -1
BITMAP
8400
8A00
8800
8000
C000
F000
9800
8800
8000
8000
8120
0120
0120
0122
0122
0224
0638
0C30
ENDCHAR
STARTCHAR 3327
ENCODING 13095
SWIDTH 1000 0
DWIDTH 20 0
BBX 15 18 3 -2
BITMAP
8000
8000
8000
8000
E000
B000
9800
8000
8000
8200
8382
00C6
0004
000C
0018
0030
0060
01C0
ENDCHAR
STARTCHAR 332B
ENCODING 13099
SWIDTH 1000 0
DWIDTH 20 0
BBX 18 19 1 -2
BITMAP
038000
038000
000000
120000
233FC0
618000
408000
808000
000000
200200
218200
3CCA00
F40A00
280B80
2812C0
203200
20E200
3D8200
000200
ENDCHAR
STARTCHAR 3336
ENCODING 13110
SWIDTH 1000 0
DWIDTH 20 0
BBX 18 18 1 -1
BITMAP
000200
1807C0
240C80
421880
019180
00C300
000600
000800
300000
200200
3C0A00
440A00
EC0A00
BBEA40
180A40
301280
603300
400000
ENDCHAR
STARTCHAR 333B
ENCODING 13115
SWIDTH 1000 0
DWIDTH 20 0
BBX 18 18 1 -2
BITMAP
018000
028000
1B8000
340000
623FC0
C18000
00C000
000000
008000
210000
310000
000000
608000
318000
030000
060000
1C0000
700000
ENDCHAR
STARTCHAR 3349
ENCODING 13129
SWIDTH 1000 0
DWIDTH 20 0
BBX 16 17 2 0
BITMAP
3800
0C00
0200
3000
1C00
0400
E000
3821
0E21
0021
0021
0021
0021
0003
0002
000C
0008
ENDCHAR
STARTCHAR 334A
ENCODING 13130
SWIDTH 1000 0
DWIDTH 20 0
BBX 18 18 1 0
BITMAP
300100
1C1100
061100
301100
0C1100
001100
700100
0E0200
000C00
000000
060200
0C0A00
680A00
45EA40
440AC0
C61A80
821300
000200
ENDCHAR
STARTCHAR 334D
ENCODING 13133
SWIDTH 1000 0
DWIDTH 20 0
BBX 18 18 2 -1
BITMAP
040000
040000
280000
18FF80
1C0000
260000
400000
800000
000000
200800
202800
202800
302800
2C28C0
246980
20CB00
218C00
200000
ENDCHAR
STARTCHAR 3351
ENCODING 13137
SWIDTH 1000 0
DWIDTH 20 0
BBX 16 19 3 -2
BITMAP
0800
8800
8800
8892
8894
8804
1808
1030
6040
0000
8010
8090
8090
C091
F091
9992
8114
8318
8000
ENDCHAR
STARTCHAR 3357
ENCODING 13143
SWIDTH 1000 0
DWIDTH 20 0
BBX 16 18 2 -2
BITMAP
FC00
8453
844A
8462
0804
180C
3030
4000
4000
4000
4000
4000
7000
5800
4800
4000
4000
4000
ENDCHAR
STARTCHAR 337B
ENCODING 13179
SWIDTH 1000 0
DWIDTH 20 0
BBX 18 18 1 -1
BITMAP
000280
FF0240
080200
087FC0
C94200
494200
4B4240
6A7EC0
6A4E80
2A4A80
084A80
FFCA80
084900
087900
08C340
08C7C0
088CC0
0898C0
ENDCHAR
STARTCHAR 337C
ENCODING 13180
SWIDTH 1000 0
DWIDTH 20 0
BBX 18 17 1 0
BITMAP
0F1800
F57800
9513C0
951240
951240
957A40
991240
FB1240
903A40
9F3A40
993A40
995240
995240
999240
F913C0
891240
0F1200
ENDCHAR
STARTCHAR 337D
ENCODING 13181
SWIDTH 1000 0
DWIDTH 20 0
BBX 18 18 1 -2
BITMAP
080000
083FC0
080200
080200
FF8200
081200
081200
081200
081380
0C1200
141200
141200
161200
321200
231200
411200
C1FFC0
800000
ENDCHAR
STARTCHAR 337E
ENCODING 13182
SWIDTH 1000 0
DWIDTH 20 0
BBX 18 18 1 -2
BITMAP
000200
0F4200
E96600
A93600
A90400
A94580
AF4480
E928C0
A91FC0
A90040
A92F80
AF2880
E92880
892880
116880
116880
214F80
274880
ENDCHAR
STARTCHAR 338E
ENCODING 13198
SWIDTH 1000 0
DWIDTH 20 0
BBX 18 13 1 -2
BITMAP
F70F40
CC90C0
88A040
88A040
88A040
88A040
88A0C0
8890C0
888F40
888040
003040
001880
000F00
ENDCHAR
STARTCHAR 338F
ENCODING 13199
SWIDTH 1000 0
DWIDTH 20 0
BBX 16 17 2 -2
BITMAP
8000
8000
8000
8000
863D
8C43
9881
B081
F881
D881
8C83
8C43
863D
8301
0041
0062
003C
ENDCHAR
STARTCHAR 339C
ENCODING 13212
SWIDTH 1000 0
DWIDTH 20 0
BBX 18 10 1 1
BITMAP
FF3FC0
C92640
892440
892440
892440
892440
892440
892440
892440
892440
ENDCHAR
STARTCHAR 339D
ENCODING 13213
SWIDTH 1000 0
DWIDTH 20 0
BBX 17 10 1 1
BITMAP
3CFB80
46C480
428480
808480
808480
808480
808480
C28480
468480
3C8480
ENDCHAR
STARTCHAR 339E
ENCODING 13214
SWIDTH 1000 0
DWIDTH 20 0
BBX 16 14 2 1
BITMAP
8000
8000
8000
8000
8CF7
8CC9
9889
B089
F089
D889
8889
8C89
8689
8689
ENDCHAR
STARTCHAR 33A1
ENCODING 13217
SWIDTH 1000 0
DWIDTH 20 0
BBX 13 16 4 1
BITMAP
0030
0048
0008
0030
0020
0078
DCE0
E730
C630
C630
C630
C630
C630
C630
C630
C630
ENDCHAR
STARTCHAR 33C4
ENCODING 13252
SWIDTH 1000 0
DWIDTH 20 0
BBX 16 11 2 0
BITMAP
3C1E
4623
4223
8040
8040
8040
8040
8241
4221
4623
3C1E
ENDCHAR
STARTCHAR 33CB
ENCODING 13259
SWIDTH 1000 0
DWIDTH 20 0
BBX 16 14 3 1
BITMAP
C1FC
C182
C181
C181
C181
C182
FFFC
C180
C180
C180
C180
C180
C180
C180
ENDCHAR
STARTCHAR 33CD
ENCODING 13261
SWIDTH 1000 0
DWIDTH 20 0
BBX 17 14 2 1
BITMAP
8C4600
984C00
984C00
B05800
B05800
E07000
E07000
F07800
B05800
984C00
984C00
884400
8C4600
8D4680
ENDCHAR
STARTCHAR 3402
ENCODING 13314
SWIDTH 1000 0
DWIDTH 20 0
BBX 19 17 0 -1
BITMAP
010000
010000
01FFC0
7FF800
010000
010180
010180
01FF00
000000
100400
100400
3F8FE0
F03C00
100400
108420
108460
1F87C0
ENDCHAR
STARTCHAR 3406
ENCODING 13318
SWIDTH 1000 0
DWIDTH 20 0
BBX 11 17 4 -1
BITMAP
03C0
3E00
2000
3FC0
2040
3FC0
2040
2040
3FC0
2000
2000
3FE0
2040
6040
4040
4040
C3C0
ENDCHAR
STARTCHAR 342C
ENCODING 13356
SWIDTH 1000 0
DWIDTH 20 0
BBX 17 18 2 -1
BITMAP
010000
010000
010000
FFFF00
020000
061800
040C00
0FFE00
7FE200
000200
100800
110800
110800
110800
310980
210980
E10900
C00F00
ENDCHAR
STARTCHAR 342E
ENCODING 13358
SWIDTH 1000 0
DWIDTH 20 0
BBX 18 19 1 -2
BITMAP
008000
008000
7FFFC0
040800
0C1E00
300300
440880
7FFF80
040800
3FFF00
040800
040800
FFFFC0
036100
0C3300
F41C00
446E00
1FC3C0
380040
ENDCHAR
STARTCHAR 3468
ENCODING 13416
SWIDTH 1000 0
DWIDTH 20 0
BBX 18 18 1 -2
BITMAP
080000
09FF00
190100
190100
110100
31FF00
308000
318000
71FF80
D31000
561000
121000
17FFC0
101800
102C00
106600
1183C0
1700C0
ENDCHAR
STARTCHAR 346A
ENCODING 13418
SWIDTH 1000 0
DWIDTH 20 0
BBX 19 18 1 -2
BITMAP
181000
101000
301000
37FFC0
218200
60C600
603800
E07E00
A783E0
AD0100
21FF00
210100
210100
210100
21FF00
230100
260100
2C0100
ENDCHAR
STARTCHAR 3492
ENCODING 13458
SWIDTH 1000 0
DWIDTH 20 0
BBX 19 18 0 -1
BITMAP
0C1400
0D9580
08D500
181500
13FFC0
102200
303600
31FFC0
700800
500800
91FF80
100800
13FFE0
101E00
106B00
10C9C0
178860
100800
ENDCHAR
STARTCHAR 34B5
ENCODING 13493
SWIDTH 1000 0
DWIDTH 20 0
BBX 18 18 1 -1
BITMAP
00C000
018000
018000
3FFF00
200100
200100
200100
3FFF00
200100
200100
200100
3FFF00
200100
061800
0C0E00
380300
7001C0
C00080
ENDCHAR
STARTCHAR 34BC
ENCODING 13500
SWIDTH 1000 0
DWIDTH 20 0
BBX 16 18 2 -1
BITMAP
0810
0810
0810
FFFF
0810
0FF0
0100
0100
FFFF
8101
9971
8919
8D19
952D
B7E7
A141
8101
810F
ENDCHAR
STARTCHAR 34C1
ENCODING 13505
SWIDTH 1000 0
DWIDTH 20 0
BBX 16 8 2 3
BITMAP
FFFF
8041
8441
8C40
0C42
1842
707E
C000
ENDCHAR
STARTCHAR 34C7
ENCODING 13511
SWIDTH 1000 0
DWIDTH 20 0
BBX 18 16 1 -1
BITMAP
400F00
E3FC00
631000
301000
101000
001000
07FFC0
001000
101800
102800
302400
206600
60C300
C18180
C701C0
060040
ENDCHAR
STARTCHAR 34DB
ENCODING 13531
SWIDTH 1000 0
DWIDTH 20 0
BBX 17 16 1 -1
BITMAP
01FF80
FE3180
103180
103180
102180
102180
102180
102180
126180
1E6180
384100
E0C100
818100
038100
071100
040F00
ENDCHAR
STARTCHAR 351F
ENCODING 13599
SWIDTH 1000 0
DWIDTH 20 0
BBX 18 18 1 -2
BITMAP
080800
680800
680800
7F7F00
C80B00
082B00
7F3900
081940
083D40
1F65C0
784080
008000
7FFF00
008100
018100
030100
1E2300
703E00
ENDCHAR
STARTCHAR 355D
ENCODING 13661
SWIDTH 1000 0
DWIDTH 20 0
BBX 19 18 1 -2
BITMAP
008000
008000
FFFFC0
008000
008000
1FFF00
100100
100100
1FFF00
000000
000000
7FFF00
0C0600
061800
01E000
03F000
3E1FE0
F001C0
ENDCHAR
STARTCHAR 355E
ENCODING 13662
SWIDTH 1000 0
DWIDTH 20 0
BBX 18 16 1 -2
BITMAP
7FBF80
409080
409880
7F9980
440980
440900
440900
7FCF00
644600
644600
E44600
A44700
A5C900
A41980
8430C0
046040
ENDCHAR
STARTCHAR 3563
ENCODING 13667
SWIDTH 1000 0
DWIDTH 20 0
BBX 18 17 1 -1
BITMAP
01F800
0C0800
0C0C00
180600
180600
300300
200180
6000C0
C00040
1FFE00
100200
100200
100200
100200
100200
1FFE00
100200
ENDCHAR
STARTCHAR 356E
ENCODING 13678
SWIDTH 1000 0
DWIDTH 20 0
BBX 17 17 2 -1
BITMAP
F88C00
888600
898200
890300
8B0100
8A8580
8E8C00
88CC00
884800
887800
883000
F83000
806800
80C600
018300
070180
040000
ENDCHAR
STARTCHAR 35A6
ENCODING 13734
SWIDTH 1000 0
DWIDTH 20 0
BBX 17 18 2 -1
BITMAP
002000
002000
F02000
97FF80
902000
93FF00
922100
922100
93FF00
922100
922100
93FF00
907000
F0F800
81AC00
832300
0E2180
002000
ENDCHAR
STARTCHAR 35A8
ENCODING 13736
SWIDTH 1000 0
DWIDTH 20 0
BBX 17 17 2 -1
BITMAP
00C000
F0FC00
908400
918400
91FC00
900800
97FF80
901000
921100
931B00
919A00
909400
F05400
81D200
871300
0C1180
00F000
ENDCHAR
STARTCHAR 35C5
ENCODING 13765
SWIDTH 1000 0
DWIDTH 20 0
BBX 17 17 1 -2
BITMAP
008780
F08480
908480
908480
97F480
908780
908480
908480
93E480
922480
922780
922480
F22480
822C80
83E880
021880
001180
ENDCHAR
STARTCHAR 35DA
ENCODING 13786
SWIDTH 1000 0
DWIDTH 20 0
BBX 17 17 2 -1
BITMAP
07FF80
F04800
904800
904800
93FF00
924900
924900
93FF00
902000
902000
97FF80
903800
F07C00
81AE00
032780
0E2180
002000
ENDCHAR
STARTCHAR 35F4
ENCODING 13812
SWIDTH 1000 0
DWIDTH 20 0
BBX 17 17 2 -1
BITMAP
07CF80
F44880
944880
97CF80
944880
97CF80
940080
940080
94F880
948880
948880
94F880
F48880
84F880
048080
048080
040780
ENDCHAR
STARTCHAR 3605
ENCODING 13829
SWIDTH 1000 0
DWIDTH 20 0
BBX 18 17 1 0
BITMAP
022000
F237C0
945000
9C4800
9A8800
97F800
9527C0
942080
9DF880
9C2080
94A880
94A880
F4A880
84E880
842080
05F880
040780
ENDCHAR
STARTCHAR 364A
ENCODING 13898
SWIDTH 1000 0
DWIDTH 20 0
BBX 18 17 1 -1
BITMAP
10FF80
108000
108000
10FF00
108000
FC8000
10FF00
108000
17FFC0
109880
108980
1C8F00
F88600
C08600
00BB80
07E0C0
020040
ENDCHAR
STARTCHAR 3691
ENCODING 13969
SWIDTH 1000 0
DWIDTH 20 0
BBX 18 18 1 -2
BITMAP
1FFE00
000200
000200
000200
7FFF80
000200
000200
1FFE00
008000
008000
008000
FFFFC0
00C000
016000
033800
0E0F00
F803C0
600000
ENDCHAR
STARTCHAR 3696
ENCODING 13974
SWIDTH 1000 0
DWIDTH 20 0
BBX 18 19 1 -1
BITMAP
008000
010000
1FFE00
100200
100200
1FFE00
100200
100200
1FFE00
008000
008000
008000
FFFFC0
00C000
016000
033800
0E0E00
780380
400000
ENDCHAR
STARTCHAR 3699
ENCODING 13977
SWIDTH 1000 0
DWIDTH 20 0
BBX 18 17 1 -2
BITMAP
080000
0FBF80
792080
092080
192080
112080
613F80
670000
008000
008000
FFFFC0
00C000
016000
033800
061E00
3C07C0
700080
ENDCHAR
STARTCHAR 36CF
ENCODING 14031
SWIDTH 1000 0
DWIDTH 20 0
BBX 18 19 1 -2
BITMAP
100800
100B00
300980
300800
FC0800
25FFC0
240800
248880
64CC80
446D00
4C2F00
4C0A00
F83B00
186980
1DC8C0
3708C0
200800
604800
403800
ENDCHAR
STARTCHAR 3761
ENCODING 14177
SWIDTH 1000 0
DWIDTH 20 0
BBX 16 18 2 -2
BITMAP
0100
0100
0100
FFFF
8001
8001
FF80
22FF
2242
3E42
2262
2224
3E34
221C
2218
FE36
8263
0281
ENDCHAR
STARTCHAR 3762
ENCODING 14178
SWIDTH 1000 0
DWIDTH 20 0
BBX 16 18 2 -1
BITMAP
0100
0100
FFFF
8001
807D
BFF1
0100
3FFC
2104
3FFC
0100
0100
7FFE
4132
4112
5FEA
4002
401E
ENDCHAR
STARTCHAR 376B
ENCODING 14187
SWIDTH 1000 0
DWIDTH 20 0
BBX 17 18 2 -1
BITMAP
010000
010000
FFFF00
800100
80C100
F8FE00
9B8C00
967800
B0FC00
A78780
B5FE00
902000
892000
8BFF00
8A2000
F1FF00
802000
87FF80
ENDCHAR
STARTCHAR 376C
ENCODING 14188
SWIDTH 1000 0
DWIDTH 20 0
BBX 18 18 1 -2
BITMAP
080400
080400
080400
FF8400
88BF80
F98400
7E0400
080400
7F0400
087FC0
FF8400
080600
080E00
7F0B00
411900
411180
7F60C0
404000
ENDCHAR
STARTCHAR 3775
ENCODING 14197
SWIDTH 1000 0
DWIDTH 20 0
BBX 18 17 1 -2
BITMAP
1FFE00
100200
100200
1FFE00
100200
1FFE00
000000
000000
7FFF80
000800
000800
FFFFC0
080800
0C0800
060800
020800
007800
ENDCHAR
STARTCHAR 378D
ENCODING 14221
SWIDTH 1000 0
DWIDTH 20 0
BBX 18 16 1 -1
BITMAP
3FFF00
200100
200100
3FFF00
200100
204000
204000
2FFC00
204400
224400
23C400
20E400
61B440
4304C0
CE04C0
180780
ENDCHAR
STARTCHAR 37C1
ENCODING 14273
SWIDTH 1000 0
DWIDTH 20 0
BBX 18 17 1 -1
BITMAP
10FFC0
108000
108000
948000
948000
94BF80
948400
948400
948400
94BFC0
948400
948400
958400
FD0400
810400
030400
020400
ENDCHAR
STARTCHAR 37E2
ENCODING 14306
SWIDTH 1000 0
DWIDTH 20 0
BBX 18 18 1 -2
BITMAP
008000
208100
208100
3FFF00
008000
008000
3FFF00
01C000
073C00
1C0200
FFFFC0
000200
0FE200
082200
082200
0FE200
080200
001E00
ENDCHAR
STARTCHAR 37E8
ENCODING 14312
SWIDTH 1000 0
DWIDTH 20 0
BBX 18 18 1 -1
BITMAP
000800
110880
110880
110880
95FF80
940000
940000
97FFC0
941800
943000
95FF80
952480
952480
952480
FD2480
812480
012480
012580
ENDCHAR
STARTCHAR 37F4
ENCODING 14324
SWIDTH 1000 0
DWIDTH 20 0
BBX 18 17 1 -1
BITMAP
100800
101000
11FF80
950880
950880
95FF80
950880
950880
95FF80
946800
946B00
946B80
946A40
FCCBC0
80CC40
018840
070FC0
ENDCHAR
STARTCHAR 37FD
ENCODING 14333
SWIDTH 1000 0
DWIDTH 20 0
BBX 18 17 1 -2
BITMAP
11FFC0
102400
102400
95FF80
952480
952480
95FF80
940000
95FF80
940000
940000
95FFC0
940800
FC8B00
818980
0308C0
007800
ENDCHAR
STARTCHAR 3800
ENCODING 14336
SWIDTH 1000 0
DWIDTH 20 0
BBX 18 17 1 0
BITMAP
010000
3FFE00
3FFE00
200200
3FFE00
200000
3FFFC0
200000
3FFF80
003080
4C9880
CC0380
008000
208100
208100
208100
3FFF00
ENDCHAR
STARTCHAR 382F
ENCODING 14383
SWIDTH 1000 0
DWIDTH 20 0
BBX 12 16 4 -1
BITMAP
FFE0
8020
8020
8020
FFE0
8020
8020
8000
8000
FFF0
8010
8010
8010
8010
FFF0
8010
ENDCHAR
STARTCHAR 3836
ENCODING 14390
SWIDTH 1000 0
DWIDTH 20 0
BBX 17 18 2 -1
BITMAP
201000
203000
203000
20FC00
FC8400
A48400
A48400
A48400
A48400
A48400
A48400
A48400
B48400
AC8480
218480
210480
220480
240780
ENDCHAR
STARTCHAR 3840
ENCODING 14400
SWIDTH 1000 0
DWIDTH 20 0
BBX 18 18 1 -1
BITMAP
008000
088000
0C9C00
188600
308300
608180
C080C0
3FFF00
208100
208100
269100
249900
248900
2C8D00
288100
208100
208100
209F00
ENDCHAR
STARTCHAR 385C
ENCODING 14428
SWIDTH 1000 0
DWIDTH 20 0
BBX 18 18 1 -1
BITMAP
204000
204800
20F780
209480
FD7700
A7A200
A6E300
A44100
A4FF80
A700C0
A40000
A5FF80
A40800
ACCB00
208900
218880
230880
203800
ENDCHAR
STARTCHAR 3861
ENCODING 14433
SWIDTH 1000 0
DWIDTH 20 0
BBX 18 18 1 -1
BITMAP
200000
200000
23FFC0
220000
FA0080
AAF880
AA0080
AAF880
AA8FC0
AA8880
AA8C80
AAFA80
AA0280
BADB80
265080
243880
25E080
240380
ENDCHAR
STARTCHAR 38FA
ENCODING 14586
SWIDTH 1000 0
DWIDTH 20 0
BBX 17 17 1 -1
BITMAP
020000
020000
020000
020000
020400
32C600
326200
226300
222100
623180
623080
C21080
420000
020000
020000
220000
1E0000
ENDCHAR
STARTCHAR 3917
ENCODING 14615
SWIDTH 1000 0
DWIDTH 20 0
BBX 18 18 1 -2
BITMAP
008000
008000
7FFF80
010000
010000
3FFF00
033000
FFFFC0
040C00
0C0600
190300
310180
ED4CC0
8D6600
192300
313300
213100
070000
ENDCHAR
STARTCHAR 391A
ENCODING 14618
SWIDTH 1000 0
DWIDTH 20 0
BBX 18 18 1 -1
BITMAP
100000
10C000
109F80
118000
1F0000
564000
564000
54BFC0
518100
D18100
538100
128100
108100
108100
108100
108100
108100
108F00
ENDCHAR
STARTCHAR 396F
ENCODING 14703
SWIDTH 1000 0
DWIDTH 20 0
BBX 18 18 1 -2
BITMAP
003E00
1FC000
118600
30C100
6FFD00
008000
3FFF00
000000
1FFE00
000200
FFFFC0
000200
1FFE00
008000
34C300
344580
6404C0
47F880
ENDCHAR
STARTCHAR 3A6E
ENCODING 14958
SWIDTH 1000 0
DWIDTH 20 0
BBX 18 18 1 -1
BITMAP
20A000
21E700
213900
21A700
FD3900
210900
21AF00
212900
27FFC0
3C8600
F17F00
A611C0
2DFF40
201000
23FF80
201000
209000
E07000
ENDCHAR
STARTCHAR 3A73
ENCODING 14963
SWIDTH 1000 0
DWIDTH 20 0
BBX 18 18 1 0
BITMAP
234400
22CD00
228900
27EFC0
FE9900
27FF80
228900
23EF80
228900
3BEFC0
E00000
A3FF00
208300
204600
203800
207E00
23C7C0
E60000
ENDCHAR
STARTCHAR 3AD6
ENCODING 15062
SWIDTH 1000 0
DWIDTH 20 0
BBX 18 18 1 -1
BITMAP
008000
008000
008000
00FF00
008000
008000
008000
FFFFC0
000000
000000
1FFE00
100200
100200
1FFE00
100200
100200
100200
1FFE00
ENDCHAR
STARTCHAR 3AD7
ENCODING 15063
SWIDTH 1000 0
DWIDTH 20 0
BBX 18 17 1 -2
BITMAP
1FFE00
100200
100200
1FFE00
100200
100200
1FFE00
000000
1FFE00
001C00
00F000
00C000
FFFFC0
004000
004000
004000
07C000
ENDCHAR
STARTCHAR 3AEA
ENCODING 15082
SWIDTH 1000 0
DWIDTH 20 0
BBX 18 18 1 -1
BITMAP
010000
018000
7FFF80
010000
3FFF00
023000
021000
FFFFC0
0C0600
180300
79FFC0
C90240
090200
09FE00
090200
090200
09FE00
090200
ENDCHAR
STARTCHAR 3B0E
ENCODING 15118
SWIDTH 1000 0
DWIDTH 20 0
BBX 16 18 2 -2
BITMAP
3FFC
2004
3FFC
2004
2004
3FFC
1818
1014
E4E4
6C6C
3A1A
2637
FDFD
0004
2666
6623
C231
4000
ENDCHAR
STARTCHAR 3B1A
ENCODING 15130
SWIDTH 1000 0
DWIDTH 20 0
BBX 18 18 1 -2
BITMAP
008600
008400
F88400
8FF400
8987C0
892C80
892C80
8FFC80
F80C80
8BFD80
8A2780
8BE300
8A2300
8A2300
FBE300
822780
022CC0
026840
ENDCHAR
STARTCHAR 3B1C
ENCODING 15132
SWIDTH 1000 0
DWIDTH 20 0
BBX 18 17 1 -1
BITMAP
FFFFC0
120B00
331980
7FBFC0
080400
7F0400
083F80
080400
FF7FC0
000000
1FFE00
100200
100200
1FFE00
100200
100200
1FFE00
ENDCHAR
STARTCHAR 3B22
ENCODING 15138
SWIDTH 1000 0
DWIDTH 20 0
BBX 17 18 2 -2
BITMAP
008C00
008800
F7FF00
902000
902000
93FF00
902000
97FF80
F00000
93FA00
948900
97FF80
908800
908900
F0EE00
878680
009A80
03B100
ENDCHAR
STARTCHAR 3B6D
ENCODING 15213
SWIDTH 1000 0
DWIDTH 20 0
BBX 17 18 1 -1
BITMAP
100000
13F080
121080
121480
FE1480
121480
33F480
318480
398480
798480
55F480
D19480
919480
911480
131080
131080
161080
10E780
ENDCHAR
STARTCHAR 3B77
ENCODING 15223
SWIDTH 1000 0
DWIDTH 20 0
BBX 18 17 1 -2
BITMAP
10FF80
108880
108880
108880
FEFF80
108880
308880
38FF80
340800
560800
51FFC0
900880
901880
101080
102080
10C080
118780
ENDCHAR
STARTCHAR 3B87
ENCODING 15239
SWIDTH 1000 0
DWIDTH 20 0
BBX 18 18 1 -1
BITMAP
100000
100F00
13FC00
11A000
102000
FC2000
13FFC0
304400
3CC300
35A180
5320C0
522000
91AB00
912D80
112480
1224C0
122600
10E000
ENDCHAR
STARTCHAR 3B88
ENCODING 15240
SWIDTH 1000 0
DWIDTH 20 0
BBX 18 18 1 -1
BITMAP
100800
101800
101000
13FFC0
103600
FC6200
10C300
30C180
3BFEC0
3D0000
540000
D1FF80
900800
90CB00
118980
1308C0
1308C0
107800
ENDCHAR
STARTCHAR 3B8D
ENCODING 15245
SWIDTH 1000 0
DWIDTH 20 0
BBX 18 18 1 0
BITMAP
0C0C00
041800
FFFFC0
000000
000100
3F1100
211100
2D1100
3D1100
210100
270F00
008000
008000
FFFFC0
03F000
0C9C00
7883C0
C08000
ENDCHAR
STARTCHAR 3BA4
ENCODING 15268
SWIDTH 1000 0
DWIDTH 20 0
BBX 18 18 1 -1
BITMAP
008000
008000
7FFF80
421080
461180
39DF00
033000
0C0E00
7FFFC0
C80440
080400
0FFC00
008000
FFFFC0
03F000
0C9E00
7083C0
808000
ENDCHAR
STARTCHAR 3BB6
ENCODING 15286
SWIDTH 1000 0
DWIDTH 20 0
BBX 18 18 1 -2
BITMAP
221000
2337C0
212440
216440
F86440
23F440
2087C0
629440
7A9440
6E9440
6297C0
A29440
A3F440
A08440
208440
210840
230840
2611C0
ENDCHAR
STARTCHAR 3BC3
ENCODING 15299
SWIDTH 1000 0
DWIDTH 20 0
BBX 18 18 1 -1
BITMAP
101000
101000
101000
13FF80
103000
FC7C00
10D380
331080
383800
3C6400
54CB00
5389C0
D2CB00
904800
102E00
10C980
130880
107800
ENDCHAR
STARTCHAR 3BCD
ENCODING 15309
SWIDTH 1000 0
DWIDTH 20 0
BBX 18 18 1 -1
BITMAP
104600
104400
124F80
125C80
FA7300
126B00
33C600
324C00
387900
784100
57FFC0
D24100
925900
924D00
124D00
124100
164900
144700
ENDCHAR
STARTCHAR 3BF0
ENCODING 15344
SWIDTH 1000 0
DWIDTH 20 0
BBX 18 18 1 -1
BITMAP
100000
11FF80
112480
112480
11FF80
FC0800
13FFC0
301800
387F00
7E4100
767F00
D24100
D27F00
924100
124100
127F00
120000
13FFC0
ENDCHAR
STARTCHAR 3C0F
ENCODING 15375
SWIDTH 1000 0
DWIDTH 20 0
BBX 18 18 1 0
BITMAP
118600
110600
13F7C0
124D00
124900
FFFFC0
100000
30FF00
388100
34FF00
500000
D3FF80
920080
927E80
124280
127E80
124080
120380
ENDCHAR
STARTCHAR 3C26
ENCODING 15398
SWIDTH 1000 0
DWIDTH 20 0
BBX 18 16 1 0
BITMAP
083000
082000
082000
7F7F80
086880
08C980
08C900
FF8900
080800
161400
131400
111600
3FB200
F9A300
404180
01C0C0
ENDCHAR
STARTCHAR 3CC3
ENCODING 15555
SWIDTH 1000 0
DWIDTH 20 0
BBX 18 17 1 -1
BITMAP
002000
702000
1BFE00
002200
006200
E04240
70C240
3182C0
171380
001000
181000
17FFC0
301000
201000
601000
C01000
401000
ENDCHAR
STARTCHAR 3CD2
ENCODING 15570
SWIDTH 1000 0
DWIDTH 20 0
BBX 19 17 1 -1
BITMAP
003000
602000
302000
17FFC0
00C400
C0C600
618300
333180
0620E0
046040
186400
104600
30C200
208300
619F80
C7F980
400080
ENDCHAR
STARTCHAR 3D11
ENCODING 15633
SWIDTH 1000 0
DWIDTH 20 0
BBX 18 18 1 -2
BITMAP
001000
401000
E01000
77FFC0
240000
046100
846300
C5FFC0
640800
240800
048880
148880
348880
24FF80
6C0800
481000
C83000
98C000
ENDCHAR
STARTCHAR 3D1E
ENCODING 15646
SWIDTH 1000 0
DWIDTH 20 0
BBX 16 17 2 -1
BITMAP
0002
C0FE
67C0
2061
0222
8322
C336
6000
247F
0441
0441
3441
247F
6441
C441
C47F
8441
ENDCHAR
STARTCHAR 3D64
ENCODING 15716
SWIDTH 1000 0
DWIDTH 20 0
BBX 18 17 1 -1
BITMAP
47FF80
60A280
33AE80
1E3980
00E680
433C80
662880
201000
27FFC0
001200
199200
119300
33FD80
263C80
604C00
418700
CF01C0
ENDCHAR
STARTCHAR 3D9A
ENCODING 15770
SWIDTH 1000 0
DWIDTH 20 0
BBX 18 17 1 -2
BITMAP
4FFFC0
60C800
37FF80
244880
044880
87FF80
E24FC0
6FE840
024840
03CFC0
310840
3FE840
2FEFC0
610840
5FE840
C11040
8111C0
ENDCHAR
STARTCHAR 3DC0
ENCODING 15808
SWIDTH 1000 0
DWIDTH 20 0
BBX 18 18 1 -1
BITMAP
080800
090900
296900
6A6A00
484E00
161E00
333300
62E100
000000
7FFE00
020600
020600
020600
FFFE80
0202C0
0203C0
020380
020180
ENDCHAR
STARTCHAR 3DD4
ENCODING 15828
SWIDTH 1000 0
DWIDTH 20 0
BBX 17 17 1 -2
BITMAP
100000
101F80
11F000
141080
569980
54D900
58CB00
D00100
D13F80
112080
112080
112080
393F80
3D2080
272080
613F80
412080
ENDCHAR
STARTCHAR 3E05
ENCODING 15877
SWIDTH 1000 0
DWIDTH 20 0
BBX 19 18 0 -2
BITMAP
108200
108200
118600
11FFE0
152480
5E2CC0
584400
51F3E0
511220
D1F220
111220
11F220
100220
193220
3DE220
251AE0
611A00
41FA00
ENDCHAR
STARTCHAR 3E3F
ENCODING 15935
SWIDTH 1000 0
DWIDTH 20 0
BBX 18 18 1 -2
BITMAP
100800
100800
500800
51FFC0
500800
FC0800
D1FF80
900000
11FFC0
150040
1D0040
793440
D03400
103400
106440
106440
11C440
1307C0
ENDCHAR
STARTCHAR 3E60
ENCODING 15968
SWIDTH 1000 0
DWIDTH 20 0
BBX 18 18 1 -1
BITMAP
000800
4C0800
680880
380FC0
33FC00
320800
710880
C90880
990880
190880
390880
690880
49FF80
890800
080840
080840
080840
700FC0
ENDCHAR
STARTCHAR 3E66
ENCODING 15974
SWIDTH 1000 0
DWIDTH 20 0
BBX 17 17 1 -1
BITMAP
440000
65FF80
381080
183080
383080
382080
C86080
8CC080
1D8780
1C0000
34FF80
648080
C48080
048080
048080
08FF80
788080
ENDCHAR
STARTCHAR 3E68
ENCODING 15976
SWIDTH 1000 0
DWIDTH 20 0
BBX 17 17 1 -1
BITMAP
440800
680800
380800
31FF80
310880
590880
C90880
990880
190880
39FF80
290880
690880
C90880
890880
090880
09FF80
710080
ENDCHAR
STARTCHAR 3E83
ENCODING 16003
SWIDTH 1000 0
DWIDTH 20 0
BBX 18 18 1 -1
BITMAP
044200
6C4200
2BFFC0
384200
104200
388000
E8FF80
C90080
1D0080
1E0080
3EFC80
248480
648480
448480
84FC80
040080
480180
780F00
ENDCHAR
STARTCHAR 3E94
ENCODING 16020
SWIDTH 1000 0
DWIDTH 20 0
BBX 17 18 1 -2
BITMAP
400300
4DFF00
692200
3B3300
323180
77FE00
D10200
990600
19FF00
390100
290100
69FF80
C90080
89AA80
0AAA80
0AA880
16A180
748700
ENDCHAR
STARTCHAR 3F57
ENCODING 16215
SWIDTH 1000 0
DWIDTH 20 0
BBX 17 17 2 -2
BITMAP
001000
FE1000
921000
921000
921000
921000
921000
FE1800
923800
922800
922C00
926400
924600
FEC300
818300
030180
020000
ENDCHAR
STARTCHAR 3F72
ENCODING 16242
SWIDTH 1000 0
DWIDTH 20 0
BBX 18 17 1 -1
BITMAP
002000
002000
1FFFC0
100000
D00000
57FFC0
704000
104000
10C000
70FF00
D18100
100100
300100
200300
200300
602300
003E00
ENDCHAR
STARTCHAR 3F75
ENCODING 16245
SWIDTH 1000 0
DWIDTH 20 0
BBX 18 17 1 -1
BITMAP
002000
002000
1FFFC0
100000
D00000
D01000
501000
501000
13FF80
701000
D01000
901000
101000
201000
201000
67FFC0
400000
ENDCHAR
STARTCHAR 3F77
ENCODING 16247
SWIDTH 1000 0
DWIDTH 20 0
BBX 18 17 1 -2
BITMAP
002000
002000
1FFFC0
100000
D01000
501000
701080
17D980
10DB00
70DE00
D09600
919200
131300
361180
2C10C0
681040
40F000
ENDCHAR
STARTCHAR 3FAE
ENCODING 16302
SWIDTH 1000 0
DWIDTH 20 0
BBX 18 18 1 -2
BITMAP
002000
002000
1FFFC0
101000
102000
D3FF00
520100
520100
73FF00
120100
13FF00
F00000
97FF80
101000
33FF00
201000
201000
6FFFC0
ENDCHAR
STARTCHAR 3FC9
ENCODING 16329
SWIDTH 1000 0
DWIDTH 20 0
BBX 18 19 1 -2
BITMAP
002000
002000
1FFFC0
101000
D3FF00
D21100
53FF00
501000
5FFFC0
100000
33FF00
D3FF00
920100
13FF00
120100
23FF00
208600
6783C0
0C0080
ENDCHAR
STARTCHAR 3FD7
ENCODING 16343
SWIDTH 1000 0
DWIDTH 20 0
BBX 18 18 1 -2
BITMAP
002000
002000
1FFFC0
100000
D7DFC0
570200
510200
7FEF80
118880
136F80
350880
790880
D28F80
128880
32AF80
22E100
248980
4838C0
ENDCHAR
STARTCHAR 4039
ENCODING 16441
SWIDTH 1000 0
DWIDTH 20 0
BBX 17 18 2 -2
BITMAP
001000
001000
F81000
8FFF80
881000
881000
F99200
899200
891200
8B9700
FB7500
8E2C80
882800
886C00
F84400
80C600
818380
0E0180
ENDCHAR
STARTCHAR 4058
ENCODING 16472
SWIDTH 1000 0
DWIDTH 20 0
BBX 17 17 2 0
BITMAP
003000
F87F00
88E300
8FB600
88C800
F87000
89C000
8FC000
88FF00
F99000
891000
8FFF80
891100
F91100
811100
811100
01FF00
ENDCHAR
STARTCHAR 4093
ENCODING 16531
SWIDTH 1000 0
DWIDTH 20 0
BBX 18 18 1 -2
BITMAP
200000
20FF00
608100
7E8100
50FF00
508100
D08100
108100
FFFF00
108100
108100
10FF00
186400
3C6400
2664C0
2244C0
40C480
C38780
ENDCHAR
STARTCHAR 4105
ENCODING 16645
SWIDTH 1000 0
DWIDTH 20 0
BBX 18 17 1 -1
BITMAP
188400
0C8C00
0D1800
3FFF80
016000
023000
FFFFC0
040C00
1BFF00
7001C0
E000C0
3FFF00
008000
0C8E00
188700
708380
238000
ENDCHAR
STARTCHAR 4148
ENCODING 16712
SWIDTH 1000 0
DWIDTH 20 0
BBX 18 17 1 0
BITMAP
188C00
098800
091800
7FFF80
036000
023000
FFFFC0
0C0C00
183600
37F300
6681C0
C08040
3FFF00
01E000
069C00
388780
408000
ENDCHAR
STARTCHAR 414F
ENCODING 16719
SWIDTH 1000 0
DWIDTH 20 0
BBX 18 17 1 -1
BITMAP
7FFF80
F10080
110080
110080
11FF80
FF0000
111F00
317800
3D0880
77FF80
510800
D10BC0
91FE00
910840
130840
120840
120F80
ENDCHAR
STARTCHAR 4163
ENCODING 16739
SWIDTH 1000 0
DWIDTH 20 0
BBX 18 18 1 -1
BITMAP
000800
1E1800
F0FF80
108080
108080
10FF80
FE8080
108080
30FF80
380000
3FFF80
540800
500800
D00800
91FF80
100800
100800
13FFC0
ENDCHAR
STARTCHAR 41B4
ENCODING 16820
SWIDTH 1000 0
DWIDTH 20 0
BBX 18 18 1 -1
BITMAP
008000
008000
7FFF80
431080
3C1F00
0FF800
083000
1FFF00
708100
DFFF00
1FFF00
008000
3FFF00
3FFF00
208100
3FFF40
2080C0
00FFC0
ENDCHAR
STARTCHAR 41BF
ENCODING 16831
SWIDTH 1000 0
DWIDTH 20 0
BBX 18 18 1 -2
BITMAP
008000
008000
7FFF80
431080
0E1F00
380E00
247F00
244100
247F00
3C7F00
244100
047F00
FC0800
35FFC0
341C00
242B00
65C9C0
440800
ENDCHAR
STARTCHAR 41E6
ENCODING 16870
SWIDTH 1000 0
DWIDTH 20 0
BBX 18 18 1 -1
BITMAP
103000
102000
3FFF80
2C4C00
64C400
460600
408000
1FFE00
108200
108200
108200
FFFFC0
01C000
01A000
031800
0E0E00
7C0780
600000
ENDCHAR
STARTCHAR 41EE
ENCODING 16878
SWIDTH 1000 0
DWIDTH 20 0
BBX 18 17 1 0
BITMAP
101000
303000
3FBFC0
666400
C24600
0C0000
0C0F00
1BFC00
101000
301000
701000
D7FFC0
101000
101000
101000
101000
13FF80
ENDCHAR
STARTCHAR 41F3
ENCODING 16883
SWIDTH 1000 0
DWIDTH 20 0
BBX 17 18 1 -1
BITMAP
002000
302000
3FBF80
644C00
C6D400
030C00
011F00
7FFC00
010000
3FFF00
018000
3FFF80
7C8200
00CC00
007880
01F080
3F1880
700780
ENDCHAR
STARTCHAR 4207
ENCODING 16903
SWIDTH 1000 0
DWIDTH 20 0
BBX 18 18 1 -1
BITMAP
102000
102000
3FFF80
244C00
440C00
00FF00
008000
008000
1FFE00
100200
1FFE00
100200
1FFE00
008000
008000
FFFFC0
008000
008000
ENDCHAR
STARTCHAR 420E
ENCODING 16910
SWIDTH 1000 0
DWIDTH 20 0
BBX 18 18 1 -1
BITMAP
202000
202000
3FFF80
4C4600
C40000
108200
FFFFC0
108200
10FE00
100000
1FFF00
008000
008000
FFFFC0
03F000
0C9E00
7087C0
C08000
ENDCHAR
STARTCHAR 4264
ENCODING 16996
SWIDTH 1000 0
DWIDTH 20 0
BBX 18 17 1 -1
BITMAP
202000
7FFFC0
4C4C00
848400
499000
2B1000
FF9FC0
1E2100
6B3100
C8D300
885300
180A00
FF8E00
330400
760B00
0F1180
F160C0
ENDCHAR
STARTCHAR 42C6
ENCODING 17094
SWIDTH 1000 0
DWIDTH 20 0
BBX 18 17 1 -1
BITMAP
180000
10FFC0
360000
E40000
4C0000
387F80
164080
224080
FF4080
107F80
544080
564080
524000
D3C000
908000
918000
110000
ENDCHAR
STARTCHAR 42D6
ENCODING 17110
SWIDTH 1000 0
DWIDTH 20 0
BBX 18 18 1 0
BITMAP
100800
100800
300800
24FF80
E60880
6DFFC0
380880
160880
26FF80
FB0800
110800
54FFC0
560800
520800
D3FFC0
D20800
900800
100800
ENDCHAR
STARTCHAR 42DD
ENCODING 17117
SWIDTH 1000 0
DWIDTH 20 0
BBX 18 18 1 0
BITMAP
181000
1010C0
359980
E49980
4CC900
284300
341200
361000
3E1000
F3FFC0
102300
546200
564200
567600
D21C00
901F00
907180
118080
ENDCHAR
STARTCHAR 4302
ENCODING 17154
SWIDTH 1000 0
DWIDTH 20 0
BBX 18 18 1 0
BITMAP
180000
10FF80
348080
E68080
6CFF80
288000
388000
16FFC0
228900
FE9980
129380
14FFC0
548400
578400
577F80
D10400
930400
12FFC0
ENDCHAR
STARTCHAR 432B
ENCODING 17195
SWIDTH 1000 0
DWIDTH 20 0
BBX 18 18 1 -2
BITMAP
100400
13F400
124400
27F7C0
EA1800
6BF800
324780
1BF000
2CFF80
FC8080
14FF80
588080
54FF80
548080
54FF80
D43400
906440
1787C0
ENDCHAR
STARTCHAR 4343
ENCODING 17219
SWIDTH 1000 0
DWIDTH 20 0
BBX 18 17 1 0
BITMAP
008000
01FF00
070600
1CEC00
333800
01E000
078000
7E0000
07FF00
184000
104000
FFFFC0
004000
104100
104100
104100
1FFF00
ENDCHAR
STARTCHAR 43EE
ENCODING 17390
SWIDTH 1000 0
DWIDTH 20 0
BBX 18 19 1 -2
BITMAP
000800
000800
7C0800
45FFC0
440880
441080
7C3080
446080
458780
440000
458080
7DC380
447600
440000
441600
447300
C4C1C0
9F8040
800000
ENDCHAR
STARTCHAR 43F0
ENCODING 17392
SWIDTH 1000 0
DWIDTH 20 0
BBX 17 16 1 -2
BITMAP
7CFF80
441180
445180
443180
7C2D00
446100
44C100
448F00
443000
7C1800
44A300
44A100
44A180
45A280
C5A680
9C3C00
ENDCHAR
STARTCHAR 4408
ENCODING 17416
SWIDTH 1000 0
DWIDTH 20 0
BBX 18 17 1 -1
BITMAP
000C00
7C0C00
45FFC0
440800
440800
7C3F80
452080
453F80
452080
452080
7D3F80
452080
452080
453F80
C50000
85FFC0
9D0000
ENDCHAR
STARTCHAR 4417
ENCODING 17431
SWIDTH 1000 0
DWIDTH 20 0
BBX 18 18 1 -2
BITMAP
001000
001000
7C1080
44FF80
441300
441200
7C17C0
45F800
441200
446100
45FF00
7F4100
444100
447F00
444100
C44100
847F00
9C4100
ENDCHAR
STARTCHAR 441C
ENCODING 17436
SWIDTH 1000 0
DWIDTH 20 0
BBX 18 18 1 -2
BITMAP
008000
78FF00
488040
488080
48FF80
480000
783F80
492080
493F80
492080
793F80
492080
493F80
490000
49FFC0
C82200
88E380
BB80C0
ENDCHAR
STARTCHAR 4422
ENCODING 17442
SWIDTH 1000 0
DWIDTH 20 0
BBX 18 18 1 -2
BITMAP
006000
7CFFC0
458040
4594C0
4494C0
7CFCC0
443080
44E780
446000
447FC0
7C80C0
4590C0
4792C0
4492C0
44FE80
C43080
846080
9C8780
ENDCHAR
STARTCHAR 4453
ENCODING 17491
SWIDTH 1000 0
DWIDTH 20 0
BBX 18 18 1 -1
BITMAP
080400
080400
7FFF80
080400
0FFC00
080400
0FFC00
080400
7FFF80
400080
5FFE80
440C80
3FFE00
1E8200
008000
3FFF00
008000
FFFFC0
ENDCHAR
STARTCHAR 445B
ENCODING 17499
SWIDTH 1000 0
DWIDTH 20 0
BBX 18 17 1 0
BITMAP
060380
FC3E00
082400
082400
082400
FFA400
0827C0
083C00
082400
082400
7E2600
422200
422A00
42F240
424340
7E01C0
407C80
ENDCHAR
ENDFONT
